<?xml version="1.0" standalone="no"?>
<!DOCTYPE svg PUBLIC "-//W3C//DTD SVG 1.1//EN" "http://www.w3.org/Graphics/SVG/1.1/DTD/svg11.dtd" >
<svg xmlns="http://www.w3.org/2000/svg">
<metadata></metadata>
<defs>
<font id="great_vibesregular" horiz-adv-x="686" >
<font-face units-per-em="2048" ascent="1638" descent="-410" />
<missing-glyph horiz-adv-x="530" />
<glyph horiz-adv-x="2048" />
<glyph horiz-adv-x="2048" />
<glyph unicode="&#xd;" horiz-adv-x="2048" />
<glyph unicode=" "  horiz-adv-x="530" />
<glyph unicode="&#x09;" horiz-adv-x="530" />
<glyph unicode="&#xa0;" horiz-adv-x="530" />
<glyph unicode="!" horiz-adv-x="716" d="M246 55q4 35 33 59.5t65 24.5q34 0 55 -24.5t15 -59.5t-35 -59.5t-64 -24.5t-55 24.5t-14 59.5zM399 221l2 15l521 991q10 19 33 29t41 11.5t52.5 1t43.5 -0.5l10 -4l4 -13q-10 -27 -160 -252t-331 -492t-195 -288z" />
<glyph unicode="&#x22;" horiz-adv-x="651" d="M348 1278q-2 26 17 47t45 21q39 0 45 -39q11 -56 -68 -367h-20zM571 1280q-3 29 14.5 47.5t45.5 18.5q41 0 47 -41q4 -20 -4.5 -75.5t-20 -104.5t-27.5 -113l-18 -72h-20z" />
<glyph unicode="#" horiz-adv-x="1527" d="M51 469l62 96h319l172 289h-348l59 98h349l282 473h113l-287 -473h287l284 473h111l-285 -473h304l-58 -98h-305l-170 -289h330l-60 -96h-329l-285 -469h-109l281 469h-283l-284 -469h-109l283 469h-324zM541 565h286l172 289h-284z" />
<glyph unicode="$" horiz-adv-x="919" d="M-137 109q2 14 37 49h18q86 -89 221 -115l305 557q-56 71 -89 132.5t-33 127.5q0 79 43 142.5t110.5 100t143 56t147.5 19.5l57 106l66 12l-68 -125q78 -13 115 -61.5t37 -112.5q0 -55 -32 -95t-81 -40q-38 0 -65 28t-25 66q2 37 27.5 61.5t64.5 24.5q17 0 38.5 -11 t25.5 -23q-14 98 -129 122l-240 -434q63 -82 100 -154.5t37 -148.5q0 -94 -50 -172t-128.5 -125.5t-168.5 -73.5t-177 -26l-57 -109l-70 -12l72 125q-197 35 -252 109zM193 37q90 0 174 38.5t141 113.5t57 167q0 90 -84 201zM451 913q0 -20 3.5 -38t13 -37.5t15 -30.5 t21 -34.5t20.5 -31.5l221 398q-5 0 -14 1t-14 1q-98 0 -182 -66t-84 -162z" />
<glyph unicode="%" horiz-adv-x="1271" d="M-68 -162q159 168 346 384.5t292 345t325 401.5q-307 -263 -446 -119q-93 -73 -179 -70q-75 2 -112 58t-32.5 140.5t44.5 176.5q61 142 174.5 243.5t214.5 100.5q146 -4 149 -144q3 -123 -95 -298q-63 -113 -126 -172q21 -37 58.5 -46t86.5 8t102 49t112 79 q51 40 205.5 210.5t165.5 176.5q3 2 11 3.5t17.5 2.5t17 -2.5t7.5 -11.5l-1260 -1526h-76zM243 886.5q8 -47.5 44 -57.5q59 -17 139 50q-34 56 -31 100q0 38 17.5 63t52.5 25q26 0 43.5 -17.5t17.5 -43.5q0 -15 -4 -23q25 36 55.5 101t55.5 139t20 134t-51 73 q-64 18 -147 -61.5t-144 -207.5q-39 -85 -57.5 -156t-10.5 -118.5zM570.5 137q4.5 84 43.5 176q61 143 175 245t215 99q130 -3 148 -122q17 -114 -67 -278q-80 -155 -196 -246q-93 -72 -174 -70q-75 2 -112 57t-32.5 139zM687.5 45.5q7.5 -47.5 43.5 -57.5q87 -25 208 120 q7 8 28 35q48 61 102 211q73 208 -20 234q-65 20 -148.5 -59.5t-144.5 -206.5q-40 -86 -58 -157.5t-10.5 -119z" />
<glyph unicode="&#x26;" horiz-adv-x="1241" d="M24 319q11 159 137 288q159 163 429 199q13 2 26 3q-57 79 -57 184q2 84 43 158t106 126.5t146.5 90.5t166 55.5t161.5 16.5q46 -1 86.5 -10t77.5 -29t59 -56t22 -85q0 -60 -36.5 -106t-87.5 -46q-41 0 -70 29t-27 69q1 41 29.5 67.5t69.5 24.5q19 0 41 -11.5t26 -24.5 q11 63 -30 91.5t-107 30.5q-88 2 -195 -40t-204 -127q-52 -46 -95 -112t-65 -145.5t10 -144.5q9 0 71.5 3t98.5 1q43 -4 68.5 -24.5t27.5 -43.5t-24.5 -42t-77.5 -19q-117 0 -207 90q-188 -28 -307 -186q-102 -134 -111 -300q-10 -165 78 -265q84 -95 232 -95 q103 0 197 39.5t156.5 100t100.5 129.5t41 131q3 65 -53 108.5t-139 53t-168.5 -2t-151 -57.5t-76.5 -112q-8 -49 26.5 -99t109.5 -90q18 -9 18 -31q0 -18 -14 -13l-4 1q-87 47 -140.5 103t-69 109.5t1.5 104t63.5 88t126.5 60.5t181 23h363q41 0 114 18.5t148.5 53t110 83 t-1.5 109.5q-11 17 0 25t22 -9q35 -56 29 -107.5t-50 -95.5t-108 -76.5t-145 -50t-162 -16.5q47 -38 65.5 -91t7 -109.5t-43 -115t-88 -110t-125.5 -92.5t-158.5 -64.5t-183.5 -23.5q-275 0 -413 142q-109 111 -98 269zM702 786q48 -61 148 -61q47 0 62 13.5t-3.5 28 t-54.5 17.5q-71 5 -152 2z" />
<glyph unicode="'" horiz-adv-x="323" d="M158.5 806q3.5 7 15.5 11q62 22 106 67.5t52 110.5q-30 -20 -60 -20q-34 0 -54.5 25.5t-14.5 60.5q6 34 34.5 59t63.5 25q41 0 62.5 -34t21.5 -79q0 -47 -19.5 -88.5t-51.5 -70t-65 -47.5t-69 -31q-13 -4 -19 0t-2.5 11z" />
<glyph unicode="(" horiz-adv-x="716" d="M52.5 338.5q-15.5 149.5 31.5 325.5q24 91 81.5 195.5t146 210.5t195 199.5t240 167.5t269.5 109q46 11 48 -7q1 -15 -28 -29l-20 -7q-113 -30 -216 -86.5t-182 -128.5t-145.5 -151.5t-115 -164t-81 -155t-53.5 -135.5q-46 -142 -53 -283.5t23 -251.5t106 -173t186 -50 q35 4 38 -14q3 -15 -25 -25q-11 -4 -27 -6q-108 -13 -200.5 42t-147.5 161.5t-70.5 256z" />
<glyph unicode=")" horiz-adv-x="1060" d="M29 -97q-2 15 28 29l21 7q133 35 253.5 110t205 163t154.5 192t111 190.5t66 165.5q46 142 53 283t-22.5 251t-105.5 173.5t-185 50.5q-37 -4 -40 14q-2 14 24 24l29 7q108 13 200.5 -42t147.5 -161.5t70.5 -256t-31.5 -325.5q-24 -91 -81 -195.5t-145.5 -210.5 t-195.5 -199.5t-240.5 -167.5t-269.5 -109q-46 -11 -47 7z" />
<glyph unicode="*" horiz-adv-x="882" d="M34.5 773.5q7.5 23.5 41.5 23.5h297q-58 132 -117 256q-17 32 4 43t48 -15q10 -11 18 -26l120 -236l238 240q26 27 39 8q15 -22 -8 -60q-7 -11 -17 -22l-174 -188h279q31 0 32 -21q0 -22 -31 -36q-18 -8 -40 -9l-270 -10q63 -130 108 -215q8 -17 -5.5 -42.5t-33.5 -31 t-39 24.5l-102 229l-223 -244q-14 -14 -40 -7.5t-35 26t15 47.5l205 207l-270 -10q-18 -1 -32.5 22t-7 46.5z" />
<glyph unicode="+" horiz-adv-x="937" d="M280 422q-7 39 16 62q12 12 30 12q23 0 127 -3t157 -4q61 259 72 297q8 32 34 42q22 8 24 -15q1 -7 -1 -18q-14 -59 -61 -306q40 -1 131 -1t135 -1q22 -1 31 -14.5t-1 -27t-36 -13.5q-96 0 -272 -12q-6 -36 -25.5 -141t-22.5 -140q-2 -18 -40 -29q-45 -14 -57 8 q-4 8 -1 21q5 24 31 124t39 153q-48 -4 -153.5 -10t-135.5 -9q-16 -2 -21 25z" />
<glyph unicode="," horiz-adv-x="313" d="M-1 -205q-4 12 15 18q1 1 2 1q61 20 105 66.5t51 111.5q-28 -21 -57 -21q-35 0 -55.5 24.5t-14.5 59.5q4 35 33 59.5t65 24.5q42 0 66 -28t24 -70q0 -91 -66.5 -157t-146.5 -93q-18 -7 -21 4z" />
<glyph unicode="-" horiz-adv-x="831" d="M303.5 470.5q5.5 25.5 32.5 25.5q93 0 450 -9q32 -1 42 -25q8 -21 -17 -28q-7 -2 -16 -2q-54 0 -103.5 -2t-108 -7t-82.5 -7t-93 -10.5t-72 -8.5q-14 -2 -26 23t-6.5 50.5z" />
<glyph unicode="." horiz-adv-x="425" d="M211 55q4 35 33 59.5t65 24.5q34 0 55 -24.5t15 -59.5t-34.5 -59.5t-63.5 -24.5t-55.5 24.5t-14.5 59.5z" />
<glyph unicode="/" horiz-adv-x="1122" d="M37 -78q-13 13 13 38l5 5q42 37 106.5 106.5t160 183t179 215t219.5 272.5t223 280t248 313.5t239 302.5q27 34 74 31q37 -3 40 -25q2 -14 -12 -30q-100 -115 -330.5 -400.5t-428 -530.5t-397.5 -469.5t-286 -281.5q-39 -25 -53 -10z" />
<glyph unicode="0" horiz-adv-x="1028" d="M106 244q0 92 43 216.5t118.5 250t167.5 233t201 175t208 67.5q100 0 145 -62t45 -166q0 -97 -37 -226t-105 -260t-153.5 -242.5t-194 -182t-214.5 -70.5q-109 0 -166.5 77t-57.5 190zM229 172q0 -154 125 -154q67 0 141.5 55.5t139 143.5t124.5 198t103 218.5 t68.5 205.5t25.5 158q0 150 -110 150q-76 0 -166 -78.5t-167.5 -199t-143 -254t-103 -254t-37.5 -189.5z" />
<glyph unicode="1" horiz-adv-x="774" d="M123 12q107 190 302 539t251 448q-160 -145 -334 -251h-8l-8 16l4 12q10 8 29 22q82 62 125.5 96t106.5 89.5t114 108.5q58 63 92 67l63 6q4 2 12 -2v-10l-10 -20l-612 -1123q-7 -4 -22.5 -7t-28.5 -4t-32 -2t-24 -1q-2 0 -9 2t-9 2z" />
<glyph unicode="2" horiz-adv-x="999" d="M2 0q3 10 97.5 114t103.5 107q31 5 45 -2q639 571 639 807q0 90 -99 90q-56 0 -111 -30.5t-97.5 -79t-75.5 -101.5t-53 -106l-9 -8h-24l-4 12q25 69 65.5 134.5t94.5 120.5t125 88.5t145 33.5q81 0 133.5 -45t52.5 -125q0 -40 -27 -94t-65.5 -105.5t-102 -118.5 t-116 -117t-129 -116.5t-118.5 -101.5t-108 -88.5t-75 -61.5q230 -117 280 -117q51 0 102 35.5t86.5 74t43.5 40.5l14 -13v-8q-31 -38 -64.5 -73t-79.5 -77.5t-93.5 -68t-85.5 -25.5q-20 0 -69 16.5t-93.5 35.5t-96.5 42t-61 27l-143 -112z" />
<glyph unicode="3" horiz-adv-x="937" d="M20 27v10l15 12l10 4q65 -30 143 -30q77 0 165 44t159.5 111.5t118.5 154t47 165.5q0 60 -40.5 93.5t-102.5 33.5q-35 0 -144 -29l-14 6l-2 19l8 10q54 21 107.5 46.5t122 67t119.5 85t86.5 100.5t35.5 114q0 74 -80 74q-120 0 -282 -182h-11l-14 12v10q184 226 373 226 q67 0 111 -31t44 -96q0 -225 -454 -387q49 0 94.5 -9.5t88 -29.5t68 -59t25.5 -91q0 -90 -62 -184t-153.5 -163t-197.5 -113t-193 -44q-123 0 -191 50z" />
<glyph unicode="4" horiz-adv-x="950" d="M162 373v16q6 12 8 14q50 63 165.5 179.5t153.5 160.5q177 201 277 334q20 26 36 41.5t37.5 24t34 11.5t47.5 8t56 9l14 -6l2 -14q1 -11 -22 -40t-64.5 -72.5t-92 -93t-113 -107.5t-118.5 -110t-118 -107.5t-102.5 -91.5t-79.5 -71t-43 -38l444 8l133 258q4 8 10 14.5 t15 10t16.5 6.5t20.5 4.5t18.5 2t20 1t16.5 0.5l12 -6l2 -12q0 -7 -60.5 -126t-76.5 -147h49l12 -8l-10 -23l-14 -10l-60 -2q-3 -7 -52 -107t-89.5 -179t-50.5 -89q-7 -7 -61.5 -18.5t-69.5 -11.5l-10 2v8q0 15 204 389z" />
<glyph unicode="5" horiz-adv-x="911" d="M-25 -2v14l13 15l8 4q53 -19 127 -19q83 0 178 49.5t170.5 124t125.5 169t50 177.5q0 63 -35 97.5t-98 34.5q-45 0 -88.5 -17t-102.5 -52.5t-79 -45.5l-13 4v12q14 41 161 297t167 273q42 16 109 16t127.5 -7.5t126.5 0.5t108 40l8 -4q-33 -88 -119.5 -130t-179.5 -39.5 t-186 4.5h-8t-7.5 0.5t-7.5 0.5l-225 -391q60 40 134.5 66t140.5 26q90 0 147 -45t57 -133q0 -82 -43.5 -167t-115.5 -155t-158 -126t-177.5 -87t-168.5 -31q-110 0 -146 25z" />
<glyph unicode="6" horiz-adv-x="862" d="M76 197q0 107 55 229t138 229t192.5 215.5t207 187.5t191.5 144l12 2l15 -22q-2 -2 -5 -8.5t-5 -8.5q-21 -23 -73 -63.5t-67 -54.5q-141 -130 -264 -289q-47 -63 -91.5 -132.5t-88 -152.5t-70 -167.5t-26.5 -153.5q0 -55 29.5 -91t82.5 -36q69 0 141 57t124.5 138.5 t86 170.5t33.5 154q0 82 -69 82q-48 0 -97 -34t-87.5 -87.5t-66.5 -105t-46 -99.5l-9 -10l-20 -2l-4 12q21 84 74 171.5t136 152.5t169 65q69 0 107 -45.5t38 -116.5q0 -113 -80 -243t-203.5 -219t-238.5 -89q-102 0 -161.5 59t-59.5 161z" />
<glyph unicode="7" horiz-adv-x="999" d="M20 4q7 28 145 172.5t332 333t323 312.5t202 192q-37 1 -150.5 4.5t-175.5 3.5q-50 0 -88 -15t-58.5 -36.5t-36 -43t-30 -37t-30.5 -16.5l-7 5v12q31 61 51 96t47 69t51.5 50t61.5 29.5t80.5 17.5t106.5 4q179 0 291 -14q27 20 41 20l8 -12l-4 -14q-57 -66 -117.5 -130.5 t-161 -168t-123.5 -127.5q-216 -227 -459 -535q-4 -4 -37.5 -47t-64 -80t-35.5 -39q-16 -7 -40.5 -11t-62.5 -6t-44 -3l-12 6z" />
<glyph unicode="8" horiz-adv-x="860" d="M29 176q0 46 20 96t57.5 99t76 90.5t93 87.5t89 73t81.5 62q-34 75 -34 164q0 133 105 233.5t239 100.5q82 0 135 -39.5t53 -118.5q0 -49 -22 -102.5t-50.5 -95.5t-77.5 -93.5t-79.5 -79.5t-79.5 -71q25 -56 32 -104t7 -126q0 -99 -62 -187t-157 -138t-193 -50 q-96 0 -164.5 53t-68.5 146zM123 170q0 -69 37 -109.5t106 -40.5q112 0 194.5 94t82.5 208q0 116 -86 323q-334 -248 -334 -475zM545 915q0 -89 76 -290q99 80 174 188.5t75 212.5q0 54 -29 84.5t-83 30.5q-86 0 -149.5 -69.5t-63.5 -156.5z" />
<glyph unicode="9" horiz-adv-x="890" d="M119 -27l8 13q496 350 627 864q20 78 20 147q0 142 -112 142q-70 0 -143.5 -50t-127.5 -122.5t-88.5 -156.5t-34.5 -151q0 -52 25.5 -83t77.5 -31q162 0 280 284l8 7l23 -2l2 -11q-24 -61 -60.5 -125t-86 -127.5t-113 -104t-127.5 -40.5q-68 0 -106.5 45t-38.5 115 q0 84 52.5 190t130.5 195t177 150t184 61q99 0 150 -72.5t51 -175.5q0 -109 -51 -229.5t-130 -224.5t-183 -206.5t-200 -179t-192 -139.5h-12z" />
<glyph unicode=":" horiz-adv-x="524" d="M127 55q6 35 34.5 59.5t63.5 24.5t55.5 -24.5t14.5 -59.5q-4 -35 -33 -59.5t-65 -24.5q-34 0 -55 24.5t-15 59.5zM352 514q4 35 33.5 59.5t65.5 24.5q34 0 54.5 -24.5t14.5 -59.5t-34.5 -59.5t-63.5 -24.5t-55.5 24.5t-14.5 59.5z" />
<glyph unicode=";" horiz-adv-x="522" d="M82 -205q-2 12 16 19q61 20 105 66.5t53 111.5q-32 -21 -59 -21q-34 0 -55 24.5t-15 59.5t34.5 59.5t63.5 24.5q41 0 62.5 -33t21.5 -77q0 -48 -19.5 -89.5t-51.5 -70t-65 -47.5t-69 -31q-19 -7 -22 4zM352 514q4 35 33.5 59.5t65.5 24.5q34 0 54.5 -24.5t14.5 -59.5 t-34.5 -59.5t-63.5 -24.5t-55.5 24.5t-14.5 59.5z" />
<glyph unicode="&#x3c;" horiz-adv-x="673" d="M229 367q4 2 120.5 75.5t211.5 130.5t105 56l14 -6l2 -15q-17 -27 -82 -79t-154.5 -114t-95.5 -67l-2 -278l-10 -21l-14 -6q-11 0 -17 6q-17 43 -30.5 96.5t-26.5 120.5t-21 101z" />
<glyph unicode="=" horiz-adv-x="937" d="M301 457q0 16 9.5 27.5t25.5 11.5h301q201 0 201 -41q0 -23 -35 -23q-146 0 -309 -16q-7 -1 -67 -10t-91 -9q-17 0 -26 21t-9 39zM301 662q0 16 9.5 27t25.5 11h301q201 0 201 -41q0 -22 -35 -22q-146 0 -309 -16q-7 -1 -67 -10t-91 -9q-17 0 -26 21t-9 39z" />
<glyph unicode="&#x3e;" horiz-adv-x="673" d="M55 55q0 9 18 28t47 43t63 50.5t70 52.5t64.5 46.5t48.5 34.5l21 14l2 278q2 3 5 10t5 9l17 8l18 -8q17 -43 30 -96t25 -120t19 -98l-420 -262l-14 -2q-9 0 -17 4z" />
<glyph unicode="?" horiz-adv-x="782" d="M246 55q4 35 33 59.5t65 24.5q34 0 55 -24.5t15 -59.5t-35 -59.5t-64 -24.5t-55 24.5t-14 59.5zM371 342q14 59 44 121.5t81 134t87 118.5t105.5 131t93.5 114q52 65 67 121t-4.5 90t-58.5 52t-96 12t-115 -34q-49 -25 -84.5 -65.5t-29.5 -75.5q10 41 71 74q35 18 64 17 t44.5 -20t20 -43.5t-7.5 -53.5t-39 -50q-39 -30 -81.5 -32.5t-69.5 20t-38 62t13 93.5q29 63 150 136q70 40 141.5 54.5t129 5.5t95 -43t46.5 -84.5t-23.5 -126t-108.5 -161.5q-49 -56 -129 -134.5t-129.5 -129.5t-106.5 -136t-93 -181q-8 -19 -25.5 -12.5t-13.5 26.5z" />
<glyph unicode="@" horiz-adv-x="1957" d="M156 293q-11 144 26 286.5t111.5 262t181.5 222.5t231.5 174.5t266.5 112t282 40.5q96 0 186.5 -16.5t176.5 -54.5t151.5 -93t108.5 -138t51 -184q16 -196 -86 -383.5t-268 -320.5q-55 -44 -155.5 -76.5t-176.5 -32.5q-29 -2 -57.5 5t-59 26.5t-47 56t-20 93t21.5 137.5 q-89 -147 -186 -242q-117 -112 -211 -83q-74 23 -99 125q-34 138 42 323q57 137 166 268q78 93 189 149t225 51.5t184 -81.5q25 -29 15 -54.5t-42 -19.5q-21 71 -86 87.5t-135 -24.5q-85 -46 -177.5 -146.5t-164.5 -219.5q-29 -46 -63.5 -122t-43.5 -140q-17 -111 44 -127 q56 -14 140 56q28 24 54 54q103 121 229 361q49 96 84 134t92 34q9 -1 48 -8.5t61 -4.5q-47 -45 -133 -209t-107 -272q-30 -149 79 -162q85 -9 207 57q42 23 73 48q137 111 216 294t66 365q-8 95 -44 171.5t-91.5 127t-129 84.5t-153.5 49t-169 15q-136 0 -270 -41.5 t-247.5 -113.5t-209.5 -174.5t-160.5 -220.5t-96 -255.5t-20.5 -274.5q8 -106 50.5 -194.5t108 -149t151 -102t179 -61t193.5 -19.5q167 0 329.5 54t303.5 149q17 17 31 1q13 -15 0 -28q-4 -4 -9 -6q-323 -215 -669 -215q-116 0 -221.5 21t-201.5 67t-168.5 114.5 t-119.5 169t-57 224.5z" />
<glyph unicode="A" horiz-adv-x="1458" d="M53 92q-16 60 -16 131q1 77 19 167q36 174 137 355q84 151 180 261q-137 65 -205 141q-42 49 -47 128q-1 10 -1 19q0 63 30 84q18 23 34 13q19 -12 3 -49q0 -1 -1 -3q-15 -28 -11.5 -57t16.5 -52t38 -52q66 -74 181 -129q102 114 210.5 205.5t234.5 168t268 118.5t286 42 q162 0 257 -72t95 -188q0 -47 -20 -96t-67.5 -100t-118.5 -93t-182.5 -74.5t-248.5 -44.5q-105 -9 -200 -9q-238 0 -418 57q-73 -102 -160.5 -248.5t-136.5 -268.5q-45 -110 -59 -198q-8 -46 -7 -83q1 -35 7 -62q14 -57 47 -93t87 -42q16 -2 33 -3q40 -1 86 11 q65 16 142.5 59.5t156.5 109.5q155 131 304.5 311.5t232.5 334.5q58 109 113 119q6 1 11 1q28 0 40 -33q5 -15 5 -31q0 -37 -27 -81q-11 -17 -25 -33q-90 -101 -166 -252.5t-103 -296.5q-12 -67 -12 -116q0 -44 10 -73q21 -60 69 -63h6q46 0 105 40q63 42 124 118 q117 152 178 291q12 27 30 29q14 1 12 -16l-7 -21q-32 -72 -85.5 -165.5t-105.5 -162.5q-56 -75 -137.5 -125.5t-163.5 -50.5q-80 0 -121 64.5t-41 152t21.5 174.5t56.5 133q-35 -42 -72.5 -82.5t-88.5 -91.5t-103 -94t-110.5 -85.5t-118 -72t-118.5 -47.5q-54 -17 -109 -17 q-6 1 -10 1q-60 2 -112 24q-97 40 -131 164zM539 1004q120 -38 255 -47q47 -3 101 -3q102 0 229 11q254 22 403.5 126t149.5 257q0 88 -72.5 135t-189.5 47q-111 0 -216.5 -29.5t-190.5 -75.5t-172.5 -118.5t-153.5 -141.5t-143 -161z" />
<glyph unicode="B" horiz-adv-x="2131" d="M37 202q37 83 137 115q49 15 104 15q81 0 177 -33q42 -16 143 -71t154 -81q75 72 149 186t140.5 240.5t135 257t159 270.5t186.5 247l116 133q-159 27 -324 27q-224 0 -460 -50q-275 -59 -446 -225q-127 -124 -146 -256q-3 -21 -3 -40q0 -94 72 -149q31 -23 72 -36 q50 -15 95 -15q34 -1 66 9q72 20 119 66t71 92q21 39 21 63q0 4 -1 8q0 8 15 12q24 -2 28 -29v-2q-11 -74 -55.5 -134.5t-105.5 -92.5q-62 -33 -134 -43q-21 -3 -41 -3q-51 0 -98 19q-155 54 -201 181q-17 48 -17 98q0 85 50 177q87 161 286 267q166 89 380 119 q189 27 367 27q229 0 440 -45q56 50 112 69q30 12 43 12q10 0 11 -7q2 -13 -33 -35q-20 -13 -38.5 -30.5t-21.5 -25.5q181 -46 297 -119t156 -173q14 -36 14 -74q0 -68 -45 -144q-41 -70 -124.5 -119.5t-167.5 -70t-169 -23.5q58 -18 112.5 -42.5t113.5 -60t102 -84 t59 -103.5q16 -54 16 -103q0 -37 -9 -73q-21 -82 -75.5 -148.5t-137.5 -117t-177.5 -82.5t-195.5 -44q-52 -6 -101 -5q-47 0 -92 5q-317 40 -544 142q-203 -150 -430 -150q-46 0 -93 6q-161 20 -222 117q-27 43 -27 88q0 35 16 71zM144 123q8 -72 77 -111q43 -25 101 -28h24 q195 0 361 125q-21 10 -68 33.5t-75.5 37t-73.5 32.5t-87 34q-62 21 -111 21q-61 0 -103 -33q-46 -37 -46 -94q0 -8 1 -17zM838 106q232 -97 497 -122q37 -3 73 -3q192 0 347 99q139 88 192 219q25 61 25 118q0 69 -38 131q-45 73 -140 118q-65 32 -160.5 61t-153.5 49 t-67 39q0 20 14.5 30t45 10.5t62.5 -2t83.5 -6t91.5 -3.5q62 1 130 30t124 75t92 106q34 59 40 119q1 7 1 14q-1 54 -37 106q-42 60 -131 101q-76 37 -192 63q-89 -122 -205 -316t-207.5 -355.5t-204 -334t-205.5 -272.5z" />
<glyph unicode="C" horiz-adv-x="1454" d="M126 342q-6 48 -5 97q0 57 8 117q15 108 47.5 214.5t83 202t111.5 172.5q-29 106 -33 225q-1 16 0 33q0 103 24 211q4 17 16 26q6 4 11 4t10 -4q9 -10 4 -36q-10 -56 -10 -125q0 -114 27 -265q164 212 385 308q171 74 357 74q54 0 110 -7q274 -31 396 -194 q74 -100 74 -222q0 -39 -7 -80q-30 -166 -167 -291q-172 -157 -432 -174q-28 -2 -56 -2q-71 0 -144 11q-367 53 -508 348q-15 -20 -37.5 -68t-49.5 -119.5t-47 -156.5t-32 -175q-7 -52 -7 -104q0 -37 4 -75q9 -89 37.5 -165t93.5 -136t161 -90q112 -34 234 -35q56 0 115 8 q186 23 337 113q64 38 114 81.5t90 100.5t66.5 104.5t65.5 126.5q11 24 24 19q14 -5 2 -34q-1 -2 -2 -5q-77 -158 -143.5 -250t-185.5 -176q-110 -75 -233 -117q-116 -39 -256 -39q-9 1 -17 1q-150 2 -291 63q-107 45 -182 120.5t-113 167t-50 197.5zM469 1051 q126 -323 498 -365q55 -6 106 -6q219 0 376 111q139 100 183 252q16 57 16 111q0 88 -43 166q-80 142 -273 183q-20 5 -42 8q-46 7 -92 7q-176 0 -352 -102q-220 -128 -377 -365z" />
<glyph unicode="D" horiz-adv-x="2076" d="M22 200q36 82 136 115q50 17 108 16q80 0 174 -32q85 -32 312 -152q84 80 164.5 201t149 250.5t137 260.5t154 266t173.5 233q-152 92 -332 122q-80 14 -163 14q-103 0 -210 -21q-273 -58 -440 -228q-125 -126 -142 -262q-2 -19 -2 -36q0 -99 73 -157q32 -25 75 -38 q54 -15 99 -15q32 -1 60 7q68 18 115 64t71 91t26 76q1 13 18 13q21 0 23 -21v-11q-11 -74 -54.5 -134.5t-104.5 -92.5q-62 -33 -134 -43q-21 -3 -41 -3q-51 0 -98 19q-131 46 -190 162q-34 68 -34 141q0 62 25 128q64 168 270 280q174 94 426 131q86 12 171 12 q101 0 203 -17q186 -32 347 -118q78 93 152 145q63 44 103 43q7 0 13 -1q12 -3 15 -9.5t-2.5 -12t-12.5 -5.5q-25 0 -66 -46.5t-68 -88t-46 -76.5q218 -144 333 -372q92 -183 92 -401q0 -53 -5 -108q-11 -118 -58 -214t-118 -158.5t-162.5 -106t-193.5 -61t-210 -17.5 q-3 0 -6 -1q-105 0 -206 18q-104 18 -199.5 49.5t-173.5 75.5q-191 -154 -421 -154q-45 0 -91 6q-161 19 -222 116q-27 43 -27 89q0 34 15 69zM142 116q9 -71 75 -108q38 -22 90 -24q14 -1 27 -1q196 0 364 123q-24 12 -70.5 35t-76 37.5t-74.5 33.5t-88 34q-57 19 -102 19 q-62 0 -104 -36q-42 -37 -42 -93q0 -9 1 -20zM817 111q98 -58 219 -90q120 -31 242 -35q13 0 25 -1q109 -1 215 27q118 30 212.5 89t158 158t77.5 226q5 52 5 102q-1 187 -73 353q-92 211 -272 352q-60 -95 -228 -373t-285 -452t-218 -283q-29 -32 -78 -73z" />
<glyph unicode="E" horiz-adv-x="1669" d="M44 281v14q0 71 28 145q32 81 94 153.5t160.5 133.5t220.5 98q112 32 207 35q-46 16 -89 40.5t-81 57.5q-36 32 -58 74q-18 35 -19 71q0 7 1 13q9 101 79.5 192.5t177 156t231 109.5t247.5 62q75 10 140 10q42 0 81 -4q115 -13 190.5 -50.5t103.5 -85.5q21 -36 20 -77 q0 -13 -2 -27q-9 -56 -53 -108t-123 -95.5t-179 -65.5q-35 -8 -56 -8t-25 9q-5 10 23 22q21 10 52 13q46 5 94 35.5t84 74.5t53 95q11 34 11 65q-1 16 -3 31q-8 45 -58.5 79.5t-139.5 43.5q-33 3 -67 3q-89 0 -185 -20q-134 -28 -246.5 -85t-194.5 -143t-99 -181 q-4 -24 -5 -46q0 -30 9 -56q14 -44 44.5 -70t71.5 -46t86 -30.5t87 -21.5t75 -21t50 -28.5t12 -44.5q-8 -29 -60 -35q-27 -3 -58 -3q-29 0 -62 3q-35 3 -80 3q-40 -1 -90 -3q-102 -6 -189 -29q-78 -22 -146 -69t-115.5 -107.5t-75 -131t-30.5 -140.5v-14q0 -63 25 -121 q28 -65 83 -114.5t151.5 -79.5t224.5 -30q220 0 434 82t362 197q121 95 157 182q11 27 11 48q0 42 -48 57q-3 1 -7 2q-49 12 -46 27q3 14 40 12q25 -1 49 -13q92 -49 91 -128q0 -16 -3 -32q-22 -102 -160 -210q-154 -121 -395.5 -195t-492.5 -74q-150 0 -269 32t-192.5 86 t-114.5 126t-44 150z" />
<glyph unicode="F" horiz-adv-x="2146" d="M103 327q0 105 36 214q25 79 91.5 137.5t121.5 75.5q33 10 33 4q-2 -8 -72 -58q-26 -19 -43.5 -34.5t-43.5 -44.5t-43.5 -69t-26.5 -89q-9 -51 -9 -99q0 -62 15 -120q27 -102 87.5 -174.5t144.5 -126.5t176 -81.5t184 -31.5q17 -1 35 -1q115 0 223 35q124 40 226 112.5 t194.5 178t164 224.5t132.5 258q-7 0 -52.5 1.5t-78 1.5t-85 -5.5t-91 -16.5t-78 -34t-62.5 -56q-18 -23 -29.5 -11.5t-3.5 30.5q27 60 70.5 100.5t91.5 58.5q48 20 110 24q31 2 60 2t55 -2q54 -4 121 -17q64 157 160.5 323.5t136.5 212.5q-156 77 -288 126t-269 69 q-64 10 -125 10q-197 0 -353 -103q-132 -88 -188 -216q-27 -63 -27 -115q0 -41 17 -76q15 -29 43 -47q78 -44 150 -44q28 0 54 6q96 23 160.5 75.5t63.5 85.5q1 29 22 45q17 13 19 -4q1 -11 -6 -33q-21 -72 -77 -124q-56 -54 -124 -76q-57 -19 -119 -18h-25q-75 4 -136 40 q-119 68 -130 203q-1 14 -1 28q0 119 84 235q105 146 288 206q102 34 213.5 34t231.5 -34q157 -42 299.5 -106.5t249.5 -131.5q9 10 12 13.5t15.5 14.5t21 16.5t24 13t29.5 10t32.5 2.5t37.5 -6q31 -9 36 -41q4 -24 -10 -25q-11 -1 -26 16q-16 6 -32 6q-44 0 -91 -44 q60 -32 154 -66q92 -34 202 -62q81 -21 151 -20q25 0 49 2q90 10 116 68q10 23 19.5 33t14.5 5q4 -4 6 -16q0 -3 1 -7q0 -11 -4 -26q-9 -63 -84 -101q-54 -27 -121 -27q-27 0 -56 4q-82 13 -170 42t-143.5 54t-108.5 51.5l-57 28.5q-46 -52 -92 -132.5t-69.5 -132.5 t-64.5 -152t-46 -112q119 -15 256 -15q62 0 129 3q33 2 46 -5t1 -17.5t-43 -18.5q-53 -13 -195 -16q-36 -1 -67 -1q-94 0 -152 7q-28 -76 -50.5 -132.5t-59 -134.5t-71.5 -136.5t-86 -127.5t-104 -119t-124.5 -99t-149 -79.5t-174.5 -49.5t-205 -19q-118 0 -223 29t-187 81 t-142.5 126.5t-91.5 163t-31 193.5z" />
<glyph unicode="G" horiz-adv-x="1431" d="M-96 -582q16 95 168 192q184 118 447 169q36 7 73 12q194 29 434 33q78 133 127 249.5t80 254.5l8 34q-29 -28 -68 -59t-95 -69t-116 -70.5t-132 -60t-142 -42.5q-61 -13 -126 -13h-22q-77 3 -147 26q-131 45 -213.5 181.5t-87.5 333.5v16q0 190 105 417q-81 84 -115 183 q-20 58 -20 119q0 44 10 90q25 109 116 202q24 26 38 19q12 -6 -11 -36q-66 -83 -84 -175q-7 -38 -7 -75q0 -53 15 -104q26 -86 90 -162q7 16 45 80q106 173 270 298t346 178q123 36 238 36q54 0 107 -8q228 -35 331 -175q62 -84 62 -182q0 -41 -11 -84q-38 -153 -194 -263 q-215 -153 -561 -158h-21q-138 0 -273 35q-145 39 -244 106q-66 -142 -88 -278q-11 -70 -11 -131q0 -59 11 -111q20 -105 79 -180.5t148 -104.5q71 -20 144 -20q72 0 145 19q147 40 264 118.5t147 149.5q69 161 150 186q14 4 26 4q33 0 54 -31q15 -23 15 -52q0 -7 -1 -15 q-20 -160 -88 -317t-191 -359q250 -3 449 -53q43 -10 43 -29q0 -9 -14 -12q-16 -3 -45 4q-68 18 -201 28q-112 9 -219 9h-41q-55 -79 -129 -152.5t-153.5 -131t-168 -106.5t-172 -79.5t-164.5 -49.5q-73 -18 -134 -18h-12q-65 2 -116 18q-149 54 -149 146q0 10 2 20z M19 -573q-14 -25 -14 -45q0 -49 79 -71q9 -3 20 -5q28 -6 64 -6q52 0 119 14q113 23 238.5 78t254 155t213.5 222q-207 -6 -377 -33q-195 -30 -389 -137q-162 -90 -208 -172zM350 999q97 -73 244 -109q104 -26 212 -26q44 0 89 4q301 31 484 184q134 112 155 246q4 23 4 44 q0 100 -78 172q-78 71 -215 92q-35 5 -71 5q-106 0 -224 -44q-157 -59 -298.5 -179t-237.5 -276q-42 -67 -64 -113z" />
<glyph unicode="H" horiz-adv-x="2828" d="M-6 102q-10 48 -9 101q0 82 23 176q25 93 110 175.5t140 84.5q20 0 24.5 -5.5t-2.5 -12.5t-18 -11q-61 -26 -127 -116.5t-82 -206.5q-5 -36 -5 -69q0 -67 19 -126q28 -88 85.5 -145t135 -96.5t164 -55.5t171 -16t157.5 16q695 157 977 899q-54 0 -123 -32 q-31 -13 -47 -13q-13 0 -16 8t8 27q15 25 52 49.5t75 28.5h80q66 167 156.5 363t142.5 300q-48 -5 -121.5 -11.5t-126.5 -11t-123.5 -13t-123 -19t-116 -28.5t-111 -41t-98 -57.5t-88 -77.5t-70 -101t-54.5 -127q-19 -60 -19 -117v-11q2 -62 23.5 -108t59.5 -78t90 -36 q10 -1 19 0q44 0 95 16q43 16 79.5 55.5t57.5 85.5q20 47 35 95q15 47 15 79q0 34 -7 50q-16 23 -1 31q14 7 25 -12q2 -2 3 -5q23 -55 23 -108q-1 -33 -9 -65q-22 -84 -83 -151t-136 -94q-55 -20 -110 -20h-11q-60 2 -109.5 25.5t-92 63t-66.5 92.5q-24 54 -32 116 q-3 19 -2 38q0 44 13 91q19 76 55 139t81 108.5t105.5 82t121.5 60.5t137 42t142.5 27t148 16.5t144.5 11t139.5 8t126.5 9.5q21 38 68 94t89 69q22 6 42 6q22 0 40 -8q35 -14 35 -55q0 -45 -44.5 -81t-98.5 -53t-99 -17q-35 -67 -91 -209t-111 -292t-62 -167 q153 0 396 -17.5t298 -17.5q15 43 43 113t81 191t105 221.5t112 183.5t106 98q76 27 112 27h5q8 -1 8 -4q0 -6 -29 -21q-16 -8 -60.5 -69.5t-103.5 -160.5t-131 -254.5t-129 -322.5q125 0 164 14q30 11 36 3t-20 -27q-66 -46 -198 -55q-1 -4 -32.5 -100t-48 -157t-36.5 -151 q-18 -79 -18 -135v-16q3 -61 28 -89q21 -22 51 -23h2q29 0 62 23q115 86 256 371q11 21 23.5 27t15 -5.5t-7.5 -35.5q-76 -162 -126.5 -238t-123.5 -147q-54 -53 -116 -68q-22 -5 -43 -5q-38 0 -73 17q-30 15 -48.5 45t-23.5 71q-4 34 -4 70v14q1 44 12 99t22 100.5 t29.5 102t30.5 91.5t28.5 80.5t21.5 58.5q-90 0 -694 26q-49 -146 -120.5 -283.5t-171 -265.5t-215 -227.5t-259 -167.5t-297.5 -88q-65 -8 -128 -8q-75 0 -147 11q-134 21 -244 78t-187 148t-101 215zM2183 1481q122 19 131 65q1 4 1 7q0 16 -16 24q-3 2 -7 2q-2 1 -5 1 q-26 0 -104 -99z" />
<glyph unicode="I" horiz-adv-x="1867" d="M-36 97q-2 21 -1 43q0 105 45 233q36 95 131 180t150 88q15 1 21 -2t3.5 -8t-8.5 -10t-14 -9q-64 -28 -141.5 -120.5t-106.5 -208.5q-15 -61 -14 -115q0 -44 9 -84q22 -88 79 -151.5t139 -105.5t176 -62q91 -20 183 -19h5q94 0 177 21q123 31 239 90t208 131t176.5 161 t147 175.5t117 179t89.5 167.5t61 144q79 209 166.5 389.5t140.5 272.5q-99 -21 -168 -38t-172.5 -48.5t-177.5 -64.5t-160 -84t-144.5 -108.5t-106.5 -137t-68 -171.5q-11 -48 -11 -90q0 -87 48 -142q44 -51 112 -51q41 0 90 19q75 30 121.5 87.5t58.5 113.5q9 46 9 84 q-1 8 -1 16q-2 44 -16 58q-4 5 4 17t19 15t20 -14q26 -51 26 -105q-1 -67 -39 -139q-70 -132 -200 -180q-60 -24 -121 -24h-7q-64 2 -114 27.5t-88 69.5q-38 45 -50 105q-5 28 -5 59q0 35 7 74q115 526 1167 705q18 37 66.5 95t91.5 73q25 8 47 9q18 -1 34 -7q36 -13 35 -55 q1 -27 -11 -49q-12 -24 -38 -41t-49 -27.5t-59 -22.5q-13 0 -45.5 -9t-40.5 -9q-67 -123 -121.5 -266.5t-91.5 -266t-80 -248t-110 -256t-158 -247.5q-165 -212 -372.5 -338t-436.5 -164q-121 -20 -233 -20q-48 -1 -94 3q-154 12 -270 64t-189.5 139.5t-85.5 209.5z M2241 1538q134 28 134 77q0 15 -16 23q-4 2 -8 2q-2 1 -4 1q-25 0 -106 -103z" />
<glyph unicode="J" horiz-adv-x="1978" d="M-124 -380q-10 42 -10 88q0 113 58 249q39 93 137.5 175.5t153.5 84.5q30 1 23 -11q-6 -9 -25 -18q-65 -26 -145.5 -116.5t-112.5 -204.5q-20 -70 -20 -131q0 -23 3 -44q10 -80 50 -142.5t100.5 -109t136.5 -77t157 -45.5q78 -14 157 -14h5q81 1 152 16q523 116 923 789 q126 211 289 579q38 84 50 111q158 349 328 622q-106 -17 -221.5 -51.5t-242 -94t-230 -133t-179 -176t-94.5 -216.5q-6 -36 -6 -69q0 -95 49 -153q42 -49 107 -49q38 0 85 17q62 22 106.5 63.5t64 86t27.5 88.5q6 29 6 53q0 11 -1 21q-4 31 -14 42q-21 13 -8 27q14 15 36 2 q8 -4 15 -13q18 -48 18 -95q0 -36 -10 -71q-23 -83 -89.5 -153.5t-152.5 -100.5q-64 -20 -123 -20h-3q-60 1 -110 28.5t-84 70t-48 104.5q-7 34 -7 71q0 30 5 62q16 98 68 186t125 154.5t169 124t194.5 97.5t205.5 71.5t198.5 50t177.5 29.5q23 39 72.5 94.5t93.5 68.5 q23 7 43 7t37 -7q35 -14 35 -53q-1 -30 -14.5 -53t-40.5 -39.5t-50 -25.5t-61 -21q-13 0 -46.5 -8t-41.5 -8q-72 -124 -136 -278.5t-115 -304t-107.5 -306t-139 -331.5t-184.5 -333q-86 -134 -210 -248.5t-253.5 -189.5t-253 -122.5t-227.5 -61.5q-102 -14 -197 -14 q-107 0 -204 18q-182 34 -296.5 125t-147.5 236zM2384 1481q130 22 139 68q1 4 1 7q0 15 -15 22l-6 1q-3 1 -6 1t-6 -1q-7 -2 -16 -9t-17 -13.5t-20 -18.5t-19 -19.5t-19 -20t-16 -17.5z" />
<glyph unicode="K" horiz-adv-x="2342" d="M0 101q-13 54 -13 115q0 77 21 163q18 68 66.5 126.5t94 87.5t75.5 32q15 2 21.5 -3.5t3.5 -13.5t-11 -12q-17 -7 -44.5 -30t-61.5 -60.5t-62 -96t-37 -122.5q-5 -36 -5 -70q0 -53 12 -101q18 -80 60 -137t101.5 -101t129 -69.5t143.5 -38.5q69 -12 135 -12h10 q71 1 133 15q121 28 231 78.5t195.5 111t164 141t135 155t112 167.5t90.5 164t74 158q220 495 311 677q-43 -5 -139.5 -13.5t-158 -15t-146 -20.5t-150.5 -33q-245 -68 -369 -249q-87 -125 -87 -258q0 -11 1 -23q6 -124 84 -182q46 -35 107 -36q44 0 94 19q65 24 109 92 q46 68 60 146q8 41 7 79q0 34 -6 66q-2 12 8 12q18 -2 29 -26q15 -45 15 -91q1 -32 -7 -66q-18 -80 -74 -151t-127 -97q-65 -24 -124 -24q-83 0 -154 47q-101 66 -133 193q-12 47 -12 94q0 101 55 200q105 189 372 281q61 21 127 36q100 22 210.5 35t257 22.5t180.5 12.5 q21 38 68 94t89 69q23 7 43 7q37 0 60 -25q18 -19 18 -42q0 -18 -11 -39q-37 -72 -174 -100l-61 -9q-52 -94 -106.5 -229.5t-96 -263t-98.5 -275t-114.5 -275t-143.5 -252.5t-185.5 -219t-240.5 -162.5t-309 -93.5q-72 -11 -144 -11q-67 -1 -135 9q-140 20 -257.5 77 t-202 149.5t-113.5 216.5zM1820 533q4 35 15 40h7q48 1 158 49q118 52 283.5 156t339.5 238t350 315.5t296 366.5q22 34 42 38q3 1 6 1q16 0 16 -22q0 -19 -13 -44q-118 -196 -301 -394t-373 -348.5t-374.5 -257.5t-317.5 -141q-5 -6 -5 -29q0 -17 3 -44q6 -63 42 -191 t83 -235q138 -320 366 -320q130 0 250 55.5t174 159.5q10 25 25 29q12 2 12 -11q1 -13 -10 -34q-56 -114 -194 -200.5t-267 -86.5q-161 0 -290.5 106t-207.5 277q-33 73 -58 154.5t-37 150.5t-18 128q-3 34 -4 60q0 19 2 34zM2183 1481q59 9 90 24q51 24 55 57v5 q0 17 -18 19h-5q-18 0 -42 -19q-27 -20 -80 -86z" />
<glyph unicode="L" horiz-adv-x="1458" d="M5 -108q-18 37 -18 74q0 53 37 106q73 108 267 166q106 32 255 38q31 1 60 0q112 0 199 -16q93 144 215 395h-23q-93 0 -177 22q-94 25 -159.5 69.5t-107.5 105.5q-43 60 -55 126q-5 25 -4 50q0 42 12 84q20 68 72 129.5t146.5 112.5t221.5 80q26 6 42 6q20 0 25 -9 q7 -11 -21 -22q-18 -7 -42 -10q-87 -11 -162 -58.5t-118 -114.5q-44 -67 -66 -145q-12 -42 -11 -82q1 -35 9 -69q20 -72 66 -128q46 -57 146 -84q62 -17 139 -17q45 0 96 6l174 438q159 409 378 542q88 54 169 54q40 0 78 -13q75 -26 102 -87q8 -18 10 -37q2 -23 2 -47 q0 -128 -60 -263q-70 -160 -191.5 -288t-282.5 -221.5t-322 -120.5q-122 -251 -180 -353l-43 -69q168 -41 353 -121.5t318 -183.5q69 -54 118 -127q48 -72 68 -138q20 -68 20 -127q0 -56 -19 -88q-21 -40 -51 -55q-22 -12 -35 -14q-4 -1 -8 -1q-6 0 -8 3q-3 5 -1 14.5 t7 21.5t11 23q2 3 3 5t2 4.5t2 4.5q19 41 21 108v9q0 64 -28 142q-30 84 -93 141q-71 63 -158.5 110.5t-195 81t-186 52.5t-202.5 43q-173 -244 -362 -334q-110 -53 -208 -53q-55 0 -106 16q-101 32 -140 113zM50 4q-19 -32 -19 -61q0 -33 25 -62q51 -60 161 -60h4 q97 0 205 52q168 80 315 289q-93 20 -195 20h-19q-113 -2 -212 -28q-206 -53 -265 -150zM1135 719q137 30 271.5 113t238.5 195t168 253q63 139 63 275q0 62 -48 75q-11 3 -24 3q-64 0 -157 -81q-162 -144 -332 -477q-96 -182 -180 -356z" />
<glyph unicode="M" horiz-adv-x="2721" d="M39 605q-4 30 -4 63q0 42 7 90q13 84 50 174q108 252 350 453q218 182 453 248q107 30 195 30q110 0 191 -47q152 -90 152 -327q0 -30 -2 -63q0 -8 -1 -16q-19 -174 -107 -407q-14 -40 -14 -56q0 -10 6 -10q12 -1 35 43q91 164 158.5 265t174.5 231q39 47 91 84 q53 36 107 58q53 21 103 21q1 1 2 1q51 0 90 -22q38 -22 58 -78q14 -40 14 -94q0 -22 -2 -46q-6 -63 -19 -134.5t-23.5 -119t-37 -136t-35.5 -117.5t-44.5 -136t-40.5 -123q169 263 405 557q225 281 406 366q64 30 110 30q48 0 78 -32q33 -36 33 -101q0 -55 -23 -130 q-20 -68 -59 -145q-39 -78 -74.5 -154t-80.5 -181.5t-75 -199.5t-56 -194q-27 -102 -27 -185q0 -77 18 -139q19 -64 73 -98q49 -30 122 -29h18q44 2 46 -12q1 -12 -31 -18q-13 -3 -29 -3q-9 0 -19 1q-25 2 -46.5 5.5t-59 14.5t-67 27t-62 46t-52.5 68.5t-30 97.5 q-6 35 -7 75q0 26 3 55q7 70 28.5 150.5t59.5 177.5t69 168.5t86 191.5t80 178q55 127 55 194q0 37 -17 56q-14 15 -37 15q-47 0 -132 -62q-132 -96 -301 -307q-104 -128 -301 -439t-250 -438q-43 -100 -114 -110q-8 -1 -15 -1q-34 0 -54 24q-18 23 -3 46q2 5 35 64.5 t67 124.5t82.5 178t88.5 229.5t77.5 275t56.5 318.5q4 33 4 62q0 37 -7 64q-13 50 -43 64q-18 9 -40 8q-15 0 -31 -4q-40 -10 -89 -48t-97 -97q-232 -288 -355.5 -511.5t-336.5 -697.5q-31 -68 -47 -104q-19 -44 -82 -57q-17 -3 -30 -3q-32 0 -49 16q-13 13 -7 32 q135 210 300.5 633.5t199.5 666.5q9 65 9 120q0 204 -127 264q-49 24 -112 24q-101 0 -238 -62q-205 -93 -389 -277q-185 -185 -253 -372q-53 -158 -53 -277q0 -62 14 -114q42 -150 162 -206q63 -30 131 -30q60 0 125 23q114 43 206 174q86 124 95 238q1 11 1 22 q0 99 -78 125q-25 8 -57 8q-17 0 -36 -2q-29 -3 -43 12q-15 16 25 26l28 5q25 4 47 3q101 0 149 -74q32 -49 32 -113q0 -45 -16 -99q-44 -149 -182 -261q-77 -63 -173 -103q-56 -23 -116 -27q-14 -1 -27 -1q-45 0 -89 10q-56 14 -108.5 45t-93.5 75t-68 105t-37 130z" />
<glyph unicode="N" horiz-adv-x="2127" d="M1 568q-8 40 -8 84q0 123 62 278q70 169 222 319t339 252q86 47 181 77t190 42q38 5 74 5q55 0 105 -11q84 -18 144 -62t90 -132q20 -58 20 -130q0 -37 -5 -78q-4 -33 -10.5 -66t-19.5 -73t-21 -64.5t-29 -73t-27.5 -64t-32.5 -72t-30 -64.5q-57 -125 -53 -125q1 0 27 44 q25 43 36 59q118 184 271 368q273 329 485 426q74 35 148 47q39 7 74 7q33 1 63 -5q62 -12 100 -60q37 -47 37 -124q-1 -86 -49 -211q-48 -122 -108 -233.5t-154 -287t-156 -310.5q-107 -234 -107 -390q0 -24 3 -47q14 -122 100 -137q12 -2 25 -2q43 0 98 25q38 18 60 18 q18 0 25 -12q13 -19 -15 -47q-40 -37 -108 -37h-7q-208 9 -271 145q-27 58 -27 137q0 105 48 248q27 81 143.5 322.5t220 471t117.5 321.5q3 18 3 33q0 43 -25 65q-27 23 -70 23q-12 0 -24 -2q-60 -8 -134 -44q-238 -113 -454 -372q-69 -84 -139.5 -189t-122 -192 t-115 -210.5t-96 -190.5t-89 -188.5t-71.5 -152.5q-21 -44 -84 -56q-17 -3 -31 -3q-32 0 -48 17q-11 12 -7 30q99 145 275.5 538t242.5 683q22 98 22 172q0 48 -10 85q-24 95 -86 137q-55 37 -133 37q-11 0 -23 -1q-94 -6 -199 -45t-214 -107q-261 -162 -405 -416 q-118 -208 -118 -400v-9q2 -173 103 -251q62 -48 152 -48q181 0 330 136q111 103 151 229q16 49 16 89q0 57 -33 92q-35 40 -104 40q-18 0 -39 -3q-19 -2 -23.5 5.5t2.5 16.5t17 11q52 13 94 13q95 0 136 -65q25 -40 25 -94q0 -52 -23 -117q-50 -141 -177 -249 q-167 -143 -378 -143q-134 0 -234 83.5t-130 234.5z" />
<glyph unicode="O" horiz-adv-x="1486" d="M104 936q-3 31 -3 60q0 208 154 363q149 149 388 203q108 25 213 25q132 0 257 -40q241 -76 355 -274q87 -149 87 -350q0 -19 -1 -38q205 137 267 258q9 21 27 19q13 -1 14 -13q0 -4 -2 -11q-3 -8 -9 -18q-122 -190 -305 -307q-8 -99 -47 -219q-48 -147 -152.5 -291 t-244.5 -253q-142 -109 -304 -154q-76 -21 -152 -21q-86 0 -173 27q-87 28 -150.5 103.5t-94.5 178.5q-25 84 -25 186q0 24 1 48q7 130 58 260q-144 96 -158 258zM217 918q12 -95 82 -156q30 63 76 135t109 151t133.5 141t150.5 107q80 44 158 48h12q72 0 145 -37 q15 -8 16 -16.5t-9 -12.5t-23 0q-29 9 -60 9q-47 0 -99 -21q-86 -35 -161 -104t-146.5 -158t-120.5 -169t-77 -143q129 -60 309 -60q80 0 170 12q293 38 548 175q5 55 5 106q0 294 -163 462q-142 146 -366 161q-26 2 -51 2q-179 0 -341 -87q-179 -96 -256 -258 q-47 -98 -47 -207q0 -39 6 -80zM312 360q-2 -26 -2 -52q0 -100 32 -186q42 -108 137 -155q92 -43 184 -43q89 0 177 40q180 82 323.5 256t216.5 382q29 86 37 146q-255 -136 -547 -172q-90 -11 -172 -11q-184 0 -325 56q-51 -133 -61 -261z" />
<glyph unicode="P" horiz-adv-x="1822" d="M-38 198q37 83 138 116q50 16 108 17q80 0 173 -32q27 -10 26.5 -22.5t-22.5 -7.5q-5 1 -10 3q-65 25 -119 25q-65 0 -114 -36q-63 -44 -66 -119v-9q0 -71 59 -113q45 -33 113 -36q11 -1 23 -1q229 0 448 214q74 73 148 186.5t141 239.5t136.5 256.5t160 270.5t186.5 247 q14 14 35.5 38t39 42t33.5 34q-151 20 -294 20q-33 1 -65 -1q-173 -6 -314 -33q-84 -15 -171 -41.5t-184 -71t-174 -99.5t-133.5 -133t-70.5 -165q-4 -23 -4 -44q0 -77 48 -137q61 -76 156 -79h7q91 0 176 70q88 73 124 178q4 23 16.5 21.5t12.5 -23.5q-1 -89 -53 -157 t-128 -100q-72 -30 -149 -30h-10q-62 2 -117 23t-98 59q-44 40 -68 100q-21 52 -21 115q0 11 1 21q4 76 37 144t84.5 120t121.5 97t143.5 76.5t156 57.5t152 41t137.5 25q208 31 390 31q188 0 347 -33q71 55 153 86q29 12 43 12q9 0 11 -6q4 -14 -33 -37q-53 -37 -92 -76 q132 -35 237 -98q94 -56 147 -122t64 -132q4 -25 5 -51q0 -42 -12 -84q-18 -69 -62.5 -132t-106.5 -121.5t-136 -106t-153 -83t-155 -53.5q-122 -31 -248 -43q-85 -8 -152 -8q-32 0 -59 2q-149 -221 -307 -373q-230 -217 -510 -217q-45 0 -92 6q-161 19 -223 115 q-27 43 -27 88q0 34 15 69zM1135 553q15 -1 29 -1q151 0 335 56q109 33 208 90.5t172.5 127t120.5 148.5q46 80 58 156q3 20 4 39q0 55 -24 108q-32 72 -111 124q-90 60 -229 92q-114 -160 -296 -485t-267 -455z" />
<glyph unicode="Q" horiz-adv-x="1540" d="M59 -270q3 46 53.5 95.5t114.5 49.5q74 0 144.5 -25t133.5 -67t128 -94t140.5 -109t158 -109t194.5 -96.5t236 -68.5q58 -11 105 -11q106 0 158 56q34 37 34 89q0 30 -12 66q-34 98 -140 166q-80 52 -182 68q-28 4 -33 22q-4 15 15 17q5 1 12 0q204 -33 318 -148 q80 -83 80 -170q0 -10 -1 -20q-11 -101 -123 -154q-91 -43 -231 -43q-147 0 -272.5 31.5t-213 81.5t-162.5 111t-134.5 122t-113.5 111t-114.5 81.5t-124.5 31.5q-43 0 -87 -28t-48 -69q-2 -25 -15 -25q-14 0 -17 24zM172 1143q12 112 71.5 203.5t164 156.5t231.5 86 q133 21 249 21q56 0 108 -5q158 -15 267 -77t182.5 -150.5t102.5 -205.5q29 -110 29 -228q0 -6 -1 -12q-1 -124 -42 -257t-107.5 -254.5t-168 -232.5t-224.5 -192q-103 -67 -218 -99q-92 -25 -180 -25q-24 0 -47 2q-111 8 -204.5 76t-142.5 191q-37 92 -44 197q-3 28 -3 56 q0 76 15 149q20 101 59.5 202.5t97.5 190t125 165.5t143.5 131t152.5 84q72 30 146 30h7q77 -2 142 -39q15 -8 16 -16.5t-9 -12.5t-23 0q-29 9 -60 9q-42 0 -89 -16q-82 -27 -160.5 -90.5t-156 -155t-136 -199t-101 -223t-50.5 -227.5q-2 -27 -2 -54q0 -82 18 -156 q35 -121 111.5 -185.5t173.5 -68.5h16q90 0 189 36q107 40 210 118q132 100 227 225t145 253t62 260q3 41 3 79q0 90 -19 171q-26 118 -92.5 218t-164.5 168t-239 97q-79 16 -167 16q-67 0 -138 -9q-118 -16 -205 -70t-133.5 -135.5t-58.5 -186.5q-4 -30 -4 -62 q0 -77 22 -162q8 -35 -10.5 -43t-38.5 30q-48 97 -48 191q0 18 1 37z" />
<glyph unicode="R" horiz-adv-x="2097" d="M53 201q36 82 137 115q51 17 110 17q84 0 183 -34q26 -10 21 -22q-6 -11 -33 -3q-66 25 -120 25q-63 0 -111 -34q-62 -45 -64 -121v-7q0 -73 60 -117q45 -33 114 -36q12 -1 24 -1q46 -1 92 9q57 12 106.5 33t100 58.5t91.5 75t87 94t81 104.5t79 118t74.5 122t73.5 128 q29 51 117.5 209.5t129.5 229t110.5 173t128.5 168.5q-113 11 -228 11q-262 0 -534 -58q-247 -51 -400.5 -177.5t-183.5 -268.5q-7 -32 -7 -62q0 -32 8 -60q15 -56 49 -91q33 -35 83 -53q44 -16 90 -16h13q53 2 108 26.5t98 70.5q74 80 78 134q2 27 12 26q11 -1 14 -22 q1 -5 1 -9q-15 -96 -80 -165q-50 -53 -116 -83t-131 -34q-12 -1 -23 0q-52 0 -104 16q-62 20 -108 62q-48 41 -72 109q-19 53 -19 115q0 18 2 36q8 83 57 165.5t135.5 156.5t222 130t299.5 80q229 33 440 32q176 0 341 -22q52 57 72 57q11 0 12 -17t-9 -50q142 -23 203 -39 q237 -69 292 -202q15 -37 15 -74q0 -80 -69 -164q-113 -136 -356 -218q-107 -36 -228 -56q-101 -15 -188 -19q7 -38 19.5 -90.5t39 -144.5t71 -193t97.5 -182q41 -63 78 -100q37 -36 81 -54q22 -9 44.5 -9.5t46.5 9.5q48 18 102 70q20 20 40 44.5t38.5 52t32.5 49.5t30 51.5 t23.5 43.5t20.5 39l12 25q14 26 31 30q10 2 10 -9q0 -8 -6 -21q-125 -274 -209 -365q-95 -103 -213 -103l-1 1q-120 0 -220 104q-65 68 -120.5 173.5t-90.5 217t-55 191.5t-31 146q-49 -97 -76.5 -149.5t-75 -134t-98.5 -150t-111 -134.5q-135 -146 -301 -212 q-123 -48 -252 -48q-45 0 -92 6q-167 20 -232 117q-29 44 -29 90q0 34 15 68zM1348 825q45 8 132.5 15t125.5 12q198 25 354 144q128 99 160 211q8 30 8 57q0 84 -80 141q-44 30 -106 49q-59 16 -201 39q-34 -60 -179 -295t-214 -373z" />
<glyph unicode="S" horiz-adv-x="1845" d="M-4 332v19q0 89 40 192q46 114 129.5 212t180.5 144q9 4 20 6.5t19.5 2.5t12 -3.5t-4 -13t-26.5 -23.5q-90 -71 -142 -153q-114 -177 -114 -388q0 -102 40 -185q41 -85 112.5 -138.5t165 -88.5t200.5 -44q54 -4 107.5 -4.5t108.5 4.5q109 9 214 38.5t192 74.5 q127 67 217 162.5t127 195.5q22 60 22 121q1 41 -9 81q-24 100 -115 173q-67 54 -275.5 142.5t-279.5 135.5q-88 59 -127 131q-30 57 -30 112q0 14 2 30q11 70 54.5 136.5t117.5 119t163 84.5q158 56 351 60h29q173 0 278 -50q72 -36 110 -97q30 -48 30 -101q0 -14 -2 -28 q-10 -68 -71 -118q-53 -43 -137 -66q-33 -9 -40 7q-7 14 19 26q14 6 31 8q84 10 114 79q13 29 13 59q0 43 -26 88q-56 96 -192 127q-54 12 -116 12q-138 0 -313 -62q-74 -27 -132 -68t-92 -92q-34 -52 -38 -107v-12q0 -49 34 -101q38 -58 117 -107q58 -35 231 -113.5 t253 -128.5q121 -74 172 -167q40 -74 40 -146q-1 -19 -3 -38q-14 -91 -72 -184t-145.5 -172t-194.5 -143q-115 -68 -260 -109q-146 -40 -294 -50q-38 -2 -74 -2q-110 0 -218 21q-144 28 -256.5 87.5t-186 166t-81.5 245.5z" />
<glyph unicode="T" horiz-adv-x="1880" d="M66 320q-5 34 -6 71q0 101 40 223q36 113 130 182q55 41 91 41q6 0 12 -1q23 -6 19 -33q-8 -10 -41.5 -34t-64.5 -49.5t-62.5 -79t-42.5 -120.5q-9 -53 -10 -103q0 -65 16 -125q27 -106 89.5 -180.5t149.5 -128.5q88 -54 184 -79q89 -23 178 -23h14q424 11 696 307 q85 92 186.5 270t175.5 340.5t144 311.5t96 184q-313 99 -620 113q-22 1 -43 1q-235 0 -407 -131q-133 -102 -178 -241q-18 -55 -18 -103q0 -66 34 -118q38 -59 112 -82q52 -15 99 -15q37 0 69 10q74 22 124 70t76 96q23 42 23 66v5v4q15 14 28 8.5t13 -25.5 q-10 -80 -55 -144t-109 -98t-140 -44q-21 -3 -42 -3q-54 0 -106 19q-141 49 -198 181q-30 70 -30 144q0 68 25 140q55 163 210 263q165 106 397 106q49 0 101 -5q110 -9 239.5 -43t266 -81t162.5 -54q27 35 75 80t77 45h-2q36 11 52 -17q14 -23 -1 -38q-12 -11 -37 -4 q-5 4 -14.5 0.5t-24 -16.5t-23.5 -20.5t-26.5 -26t-18.5 -19.5q84 -27 182 -53q99 -26 218 -48q84 -16 147 -15q27 1 49 3q78 10 78 58q0 30 23 30q9 0 14.5 -16t5.5 -27q-1 -58 -67 -88q-48 -21 -111 -21q-25 0 -53 3q-293 38 -516 131q-66 -106 -122.5 -238t-97 -251 t-85.5 -239.5t-110 -240t-149 -215.5q-79 -90 -198.5 -155t-251 -94.5t-274.5 -32.5h-23q-130 0 -247 31q-127 34 -237 95t-174.5 159.5t-84.5 226.5z" />
<glyph unicode="U" horiz-adv-x="1929" d="M22 545q-32 91 -32 190q0 108 38 224q91 281 370 501q104 82 229 150q179 98 353 123q53 8 101 7q115 0 213 -40q198 -85 198 -330q0 -85 -24 -188q-20 -86 -69 -206.5t-100.5 -233t-100.5 -228.5t-76 -227q-20 -83 -20 -151q0 -23 2 -44q13 -116 91 -132q12 -2 24 -2 q82 0 193 104q75 70 149 178q82 119 212.5 378.5t131.5 260.5q31 55 61.5 81.5t52.5 26.5q29 -15 37 -39q3 -10 3 -21q0 -17 -7 -38q-12 -35 -27.5 -66.5t-40.5 -77.5t-38 -75q-78 -165 -123 -332q-23 -87 -36 -167.5t-15 -149.5v-10q0 -61 18 -99q19 -39 57 -39h4 q55 4 56 -16q0 -16 -26 -26q-15 -6 -30 -6q-7 0 -14 1q-55 10 -89 54q-36 43 -48 100q-12 55 -12 126v6q0 74 8 133.5t20 121.5q-66 -109 -125 -185q-79 -102 -162.5 -169t-155.5 -90q-51 -16 -96 -16q-19 1 -37 3q-60 10 -100 57.5t-53 124.5q-4 26 -4 57q0 59 16 132 q25 112 74 233.5t101.5 238t103 238t70.5 199.5q26 104 33 190q2 24 2 47q0 59 -13 109q-18 70 -65 98q-81 49 -199 51h-12q-112 0 -229 -36q-123 -38 -242 -107q-309 -181 -452 -448q-95 -179 -96 -351q0 -37 5 -74q21 -174 133 -266q84 -68 196 -68q56 0 119 17 q22 6 45 15q116 43 212 180q91 130 104 255q2 18 2 35q0 100 -73 131q-28 12 -66 12q-33 0 -74 -9q-39 -9 -48.5 -6t-2 12t20.5 17.5t20 11.5q72 30 127 30q68 0 110 -46q46 -51 46 -139q0 -32 -6 -69q-25 -154 -138 -288q-99 -117 -236 -175q-102 -43 -193 -43 q-90 0 -169 42q-131 69 -187 227z" />
<glyph unicode="V" horiz-adv-x="1996" d="M-8 642q-11 49 -11 104q0 130 64 286q54 123 146.5 235t203 196t237.5 147q128 62 250 92q113 28 220 27q9 1 18 1q116 -2 205 -42q72 -32 118.5 -87.5t62.5 -125.5q16 -66 16 -141v-10q-1 -80 -22.5 -168t-52 -172.5t-71.5 -168.5q-92 -188 -163.5 -405t-98.5 -369 q-8 -45 -8 -78q0 -94 63 -93h11q115 13 372 267q83 81 127 133q115 135 201 275q84 140 132 292q33 107 34 198q0 38 -6 73q-4 22 -8.5 38.5t-11 27t-11.5 17t-15 10.5t-14.5 5.5t-18.5 3t-19 2.5q-43 8 -52 33q-8 20 17 26q17 3 43 -3q27 -7 55 -23.5t58 -43t50.5 -66 t32.5 -87.5q7 -29 7 -64q1 -23 -3 -49q-8 -65 -36 -138q-57 -151 -156.5 -305.5t-215.5 -281t-236 -224.5q-120 -97 -232 -145q-86 -37 -152 -37q-19 0 -37 3q-99 18 -99 174q0 251 255 859q36 86 66.5 170t57.5 186t36 183q3 30 3 58q0 48 -10 91q-16 68 -61 96 q-81 50 -191 54h-23q-99 0 -202 -31q-115 -35 -235 -103.5t-221.5 -157t-183.5 -198.5t-123 -221q-54 -154 -53 -270q-1 -5 -1 -11q2 -120 52.5 -198.5t125 -118t164.5 -39.5q111 0 222 70.5t181 181.5t70 221q0 44 -10 78.5t-32 60.5q-21 26 -57 32q-11 2 -24 2 q-28 0 -63 -9q-43 -12 -42.5 0.5t32.5 27.5q61 27 111 27q22 0 41 -5q64 -17 99.5 -74t35.5 -136q0 -125 -95.5 -250.5t-234.5 -203t-266 -77.5q-145 0 -262.5 99t-155.5 267z" />
<glyph unicode="W" horiz-adv-x="2752" d="M-32 600q-3 27 -3 55q0 53 10 111q16 92 58 186q53 123 143 235.5t196.5 197.5t228.5 149q123 63 241 94q111 29 218 29h14q114 -2 202 -41q197 -87 197 -329q0 -202 -138 -513q-94 -211 -180.5 -452t-114.5 -383q-8 -39 -8 -67q0 -20 4 -36q10 -36 39.5 -35t71.5 23 q70 41 150.5 133t157 209t144.5 230.5t139.5 233t116.5 181.5q31 43 60.5 66.5t50 22.5t33 -17.5t11 -54.5t-18.5 -87q-18 -52 -68.5 -167t-88.5 -218.5t-48 -179.5q-5 -43 -5 -79q0 -162 110 -190q22 -5 46 -5q102 0 253 93q174 107 310 275q88 108 130 209q64 151 84 289 q10 67 10 126q0 64 -11 116q-22 102 -97 156q-58 42 -141 42q-25 0 -52 -4q-48 -13 -72 -13q-22 0 -25 11q-3 15 34 35q35 18 69 18q11 0 22 -2q15 1 29 2q117 -1 210 -87q104 -96 132 -276q7 -42 7 -87q0 -151 -72 -344q-85 -215 -290 -388q-184 -155 -378 -204 q-71 -18 -131 -18q-107 0 -177 58q-83 70 -93 214q-1 19 -1 38q0 117 42 255q-41 -67 -91.5 -141.5t-126.5 -171.5t-148.5 -172t-153 -128.5t-144.5 -56.5h-8q-64 0 -102 46q-34 41 -34 131q0 17 1 36q8 121 73.5 312.5t192.5 494.5q47 114 82 218.5t64 227.5q21 88 21 159 q1 28 -3 54q-12 90 -68 125q-81 50 -188 53h-16q-100 0 -202 -34q-110 -37 -224 -107t-211 -160.5t-175.5 -201.5t-120.5 -223q-47 -124 -57 -229q-4 -35 -3 -66q0 -62 14 -110q21 -71 64 -121.5t103 -72.5q57 -21 121 -21h5q68 1 136 26q119 44 211 181q87 129 95 255 q1 11 1 21q0 110 -78 146q-32 15 -75 15q-23 0 -49 -4q-43 -7 -43 7q3 14 39 26q67 21 121 20q87 0 138 -54q50 -53 50 -139q0 -32 -7 -68q-28 -151 -154 -283q-106 -111 -253 -173q-58 -25 -122 -29q-13 -1 -27 -1q-49 0 -96 12q-59 15 -112.5 49t-95.5 82t-69 114t-36 140 z" />
<glyph unicode="X" horiz-adv-x="1652" d="M-246 -411q7 27 35 65q417 578 1229 1155q1 103 1 189.5t-5 178.5t-17 171q-23 156 -178 161h-8q-132 0 -306 -101q-148 -86 -222 -184q-19 -26 -29 -48q-6 -5 -22.5 0t-23.5 19.5t13 45.5q8 13 51.5 52.5t116 94t153 105t174.5 86t169 35.5q47 0 84.5 -15t64 -43.5 t46 -66t31 -87t19 -102t10.5 -116t4 -123.5t1 -129v-45q120 84 353 241t355.5 248t210.5 178q9 9 23 22.5t21.5 21t19 18.5t18 17t15.5 13.5t15.5 11.5t13.5 8t13 5.5t11 1.5q12 0 21.5 -1.5t17.5 -8t8 -16.5t-12.5 -29t-38.5 -45q-69 -67 -216.5 -173.5t-412.5 -288 t-434 -302.5q-2 -112 -2 -208q0 -365 33 -492q45 -167 155 -172q3 0 6 -1q104 0 227 137q113 126 195 314q11 25 30 27q12 2 13 -11q-1 -11 -8 -26q-160 -336 -354 -479q-108 -80 -199 -80q-35 0 -67 12q-109 39 -146 195l-2 10q-4 16 -6.5 38.5t-4.5 54.5t-3 61t-1 76v80 t1 91.5t2 92.5t2 101.5t2 100.5q-176 -127 -322 -244t-295.5 -253.5t-276.5 -283t-222 -296.5q-34 -55 -67 -80t-58 -25q-28 0 -28 23q0 8 3 17z" />
<glyph unicode="Y" horiz-adv-x="1964" d="M44 625q-6 35 -6 74q0 51 10 107q19 102 71 208q59 121 154 233t206 198t237.5 150.5t247.5 96.5q116 32 228 32h6q115 -1 203 -41q108 -49 157 -141q41 -76 41 -169q0 -17 -1 -36q-10 -114 -52.5 -233t-115.5 -242q-265 -451 -320 -700q-9 -42 -9 -77q0 -37 11 -65 q20 -55 66 -68q20 -6 43 -6q29 0 63 9q61 16 121 59q89 63 179 185t157.5 258.5t115 254t74.5 208.5q5 25 39 50q24 18 41 18q16 0 26 -16q12 -20 12 -60q0 -48 -17 -124q-62 -271 -161 -568t-204 -482q31 2 93.5 3t107.5 3t106 8t105 19t86.5 34t69 56t34.5 82q-4 28 6 31 q8 2 18 -31l1 -2q4 -12 4 -26q0 -37 -28 -83q-38 -63 -124 -100q-50 -20 -140.5 -30.5t-162 -13t-207.5 -3.5q-98 -148 -249 -260.5t-318 -176.5q-163 -63 -306 -63q-62 0 -120 12q-135 27 -185 104q-22 34 -22 69q0 48 40 98q62 77 208 137q190 78 403.5 104.5t481.5 26.5 q199 491 280 792q-33 -71 -72 -141.5t-92 -150t-118.5 -149.5t-132.5 -116q-52 -35 -110 -55t-113 -24q-11 -1 -22 -1q-43 0 -82 13q-49 15 -83.5 47.5t-50.5 90.5q-10 35 -10 77q0 26 4 55q32 228 299 662q70 114 121.5 234t78.5 230q17 74 17 137q0 31 -4 59 q-13 86 -70 122q-80 51 -189 56h-25q-97 0 -197 -32q-114 -35 -233 -104t-222 -158t-187 -198.5t-131 -220.5q-71 -179 -71 -307q0 -53 12 -98q43 -149 164 -202q63 -28 130 -28q63 0 130 24q121 43 225 185q97 133 116 260q4 24 4 46q0 91 -67 121q-27 12 -64 12 q-23 0 -50 -5q-45 -9 -43 4q2 12 30 22q4 1 9 2q56 15 100 15q90 0 132 -62q29 -43 29 -104q0 -52 -21 -117q-49 -154 -184 -281q-100 -94 -224 -145q-69 -28 -142 -30h-10q-67 0 -126 23q-64 24 -119.5 68.5t-90.5 112.5t-50 148zM548 -665q10 -58 117 -81q53 -12 112 -12 q87 0 187 26q38 10 74 23q149 56 282 155.5t220 238.5q-246 0 -451 -35t-372 -131q-170 -97 -170 -173q0 -6 1 -11z" />
<glyph unicode="Z" horiz-adv-x="1386" d="M38 186q38 81 139 97q19 3 40 3q46 0 98 -14q106 -28 293 -147q532 622 692 817q208 244 437 430q-130 37 -275 59.5t-304 26.5h-35q-137 0 -242 -28q-53 -14 -104.5 -41.5t-89.5 -65.5q-39 -38 -55 -80q-7 -19 -7 -39q0 -24 11 -50q20 -47 81 -87q33 -22 30 -33 t-24 -9.5t-31 3.5q-35 9 -82 62q-35 39 -49 94q-6 25 -6 52q1 32 9 66q16 62 62 117t144 96t234 52q33 3 68 2q40 0 82 -3q78 -7 170.5 -29.5t148.5 -38t165 -51t138 -44.5q129 101 227 137q41 14 79 14q2 0 3 1q35 0 60 -11q26 -11 41.5 -31.5t17.5 -45.5v-6q0 -23 -14 -49 q-16 -30 -48 -58q-30 -25 -82 -31q-22 -2 -45 -2q-32 1 -66 5q-58 8 -139 28q-65 -60 -156.5 -173.5t-202 -261.5t-161.5 -210q-34 -42 -71.5 -84.5t-69.5 -77.5t-73 -75.5t-68.5 -67.5t-70 -65.5t-64 -57.5t-65 -55.5t-57 -47.5t-55.5 -45.5t-47 -38.5q63 -27 162.5 -69 t310.5 -120.5t308 -97.5q52 -10 116 -14q22 -1 46 -1q45 0 95 4q77 8 141.5 28.5t112 67t56.5 112.5q7 44 26 52q14 6 20 -19q3 -12 3 -31q0 -15 -2 -33q-3 -29 -14 -60.5t-44.5 -75t-83 -76.5t-138 -58t-201.5 -27h-8q-83 0 -207 38q-130 40 -256 97.5t-240 115t-184 98.5 l-70 41q-207 -148 -355 -148q-29 0 -55 6q-105 24 -147 110q-20 40 -20 80q0 36 17 72zM125 66q28 -62 119 -78q24 -4 52 -5q6 0 11 1q68 3 142.5 33t119.5 69q-41 33 -61 47q-126 71 -209 80q-19 2 -36 2q-85 0 -126 -49q-22 -27 -22 -58q0 -20 10 -42zM1841 1384 q113 -32 183 -32q53 0 81 18q29 18 37 54q3 12 3 24q-1 22 -11 41q-16 29 -51 29q-85 0 -242 -134z" />
<glyph unicode="[" horiz-adv-x="1198" d="M78 57q0 122 64 303t160 358.5t200 336t192 260.5q37 43 60 65.5t56.5 46t71 33.5t85.5 10h41q186 0 186 -73q0 -14 -3 -22t-12 -11t-14 -3.5t-22 -0.5q-25 0 -76 4t-76 4q-77 0 -96 -10q-74 -37 -195.5 -201.5t-231 -358.5t-189.5 -384t-80 -275q0 -90 137 -90 q24 0 73 4t74 4q30 0 58 -10.5t28 -34.5q0 -9 -7 -16t-20.5 -11.5t-27.5 -8t-35.5 -5.5t-37.5 -3.5t-39.5 -2t-35 -0.5h-30.5h-21q-237 0 -237 92z" />
<glyph unicode="\" horiz-adv-x="1775" d="M41 1544q25 74 147 74q275 0 699 -567q65 -87 200.5 -274.5t213 -291.5t200.5 -253t240 -271q16 -20 18 -31l-14 -12q-67 20 -161.5 102.5t-195.5 201t-218 264.5t-229 294t-229 289t-217.5 249.5t-194 174.5t-159.5 66q-17 0 -47.5 -13.5t-38.5 -15.5z" />
<glyph unicode="]" horiz-adv-x="1138" d="M35 -25q7 35 34.5 53t66 20.5t89 6t99.5 8.5t100.5 29t89.5 66q99 111 213 323.5t194 444t80 374.5q0 32 -6 62q-23 8 -67 8q-38 0 -114 -4t-114 -4l-6 4q6 24 24.5 42.5t48.5 29t55 17t64.5 8.5t56.5 2.5t50 0.5q32 0 51.5 -2.5t39.5 -11.5t29 -28.5t9 -51.5 q0 -192 -81 -449t-210.5 -491t-267.5 -373q-33 -33 -77.5 -53.5t-101 -28.5t-96 -10t-100.5 -2q-6 0 -27.5 -0.5t-36 0t-33.5 1t-33 3t-23 6.5z" />
<glyph unicode="^" horiz-adv-x="757" d="M242 805q4 27 152.5 137t183.5 115l12 -6q83 -115 225 -234l10 -16q0 -19 -24 -19q-45 0 -139.5 71t-129.5 118q-241 -174 -278 -180z" />
<glyph unicode="_" horiz-adv-x="1650" d="M16 -90q0 16 9.5 27.5t25.5 11.5h1516q23 0 39 -17.5t18 -40.5l-14 -14q-484 0 -1161 -14q-58 -1 -192 -7t-206 -6q-17 0 -26 21t-9 39z" />
<glyph unicode="`" horiz-adv-x="432" d="M18 1051q0 19 11 31t28 12q18 0 102 -61.5t160 -125.5t76 -71q0 -9 -6 -14t-14 -5t-68.5 31t-130 67.5t-82.5 42.5q-76 37 -76 93z" />
<glyph unicode="a" horiz-adv-x="716" d="M51 126q-3 23 -3 48q0 114 73 250q40 75 100 147q62 73 150 117q82 42 167 43q6 0 12 -1q90 -3 146 -64q21 -23 13 -44t-35 -16q-17 56 -67 70q-15 4 -30 4q-37 0 -77 -23q-67 -37 -141.5 -117.5t-131.5 -174.5q-72 -131 -84 -207q-3 -18 -2 -34q0 -60 41 -68q7 -1 13 -2 q45 0 106 57q16 16 31 34q81 97 182 287q38 74 66 104q25 27 65 27h8q3 0 36 -6t50 -2q-37 -37 -104 -166.5t-86 -216.5q-8 -43 -9 -71q0 -52 29 -52h2q29 0 68 38q40 39 80 101.5t66.5 111t48.5 93.5q12 26 27 22q8 -2 8 -12q0 -7 -4 -19q-1 -4 -3 -7q-181 -371 -309 -381 h-9q-23 0 -44 9q-24 11 -46 41t-23 84q0 52 20 130q-77 -123 -148 -192q-74 -71 -136 -71q-20 0 -39 8q-63 25 -77 121z" />
<glyph unicode="b" horiz-adv-x="706" d="M-52 82q-2 5 -2 9q0 7 5 15q58 77 167 285t227.5 437t191.5 337q69 101 133 101h4h10q4 0 36.5 -6.5t49.5 -2.5q-67 -71 -212.5 -285t-238.5 -399q-41 -83 -71 -166t-46 -161q-8 -40 -8 -74q0 -32 7 -59q15 -54 65 -64q6 -1 13 -2q63 0 163 119q93 111 154 254 q28 71 33 129q1 9 1 17q0 46 -24 78q-24 31 -71 31q-8 0 -17 -1q-35 -3 -42 15q-7 16 18 24q21 7 53 2q72 -11 115.5 -56t51.5 -105q3 -25 4 -52q0 -37 -7 -76q-30 -139 -121 -259.5t-213 -152.5q-67 -18 -117 -18q-38 0 -68 10q-68 24 -93 80q-13 32 -13 70q0 30 8 63 q22 85 90 225q-167 -317 -217 -364q-13 -11 -19 2z" />
<glyph unicode="c" horiz-adv-x="532" d="M78 134q-4 24 -4 50q0 42 10 90q16 76 50.5 149.5t80.5 135.5q57 77 129 119.5t145 42.5q75 -1 113 -39q31 -32 31 -80q0 -10 -2 -22q-5 -54 -55 -98q-29 -25 -52 -25q-17 0 -30 14q51 60 63 104q7 28 7 48q0 53 -48 53q-51 0 -110 -52t-109 -124q-38 -55 -75.5 -145 t-37.5 -169q0 -68 29.5 -112.5t91.5 -44.5q37 0 72 12.5t62 29.5t56.5 50t48 57.5t45 69.5t39 69t36.5 72q9 18 19.5 22t13.5 -6q1 -3 1 -6q0 -9 -6 -24q-27 -58 -42.5 -89t-42 -79t-47 -73.5t-52 -57t-62.5 -47t-72.5 -26.5t-88.5 -11q-93 0 -145 40t-62 102z" />
<glyph unicode="d" horiz-adv-x="751" d="M62 242q20 84 63 172t100 157q59 68 133 109t154 47q10 1 20 1q70 0 134 -38q139 263 237 486q29 67 59 89q24 18 62 18q9 0 18 -1q3 0 36.5 -5t51.5 -3q-47 -44 -249.5 -419t-290.5 -583q-11 -26 -20 -55.5t-17 -70.5q-3 -16 -3 -30q0 -21 7 -37q12 -26 45 -26 q23 0 48 15.5t50.5 47.5t45.5 59.5t45.5 74t36 66.5t29.5 59q6 13 9 18q8 18 19.5 22.5t15 -5t-3.5 -29.5q-162 -381 -332 -381q-54 0 -92 55q-28 42 -28 103q0 36 10 78q-72 -118 -119 -165q-69 -68 -140 -68q-20 0 -40 5q-70 18 -92 84q-12 35 -12 76q1 35 10 74zM159 113 q11 -51 51 -50h9q69 9 156 132q108 150 274 462q-28 25 -63 25q-32 0 -71 -21q-81 -43 -163 -135t-139 -196q-58 -109 -58 -182q0 -19 4 -35z" />
<glyph unicode="e" horiz-adv-x="503" d="M63 192q-1 88 43 192q44 106 115 187q53 63 117 105t126 52q15 3 28 2q44 0 79 -25q36 -28 36 -73q1 -27 -13 -61q-34 -89 -135 -165q-45 -34 -127 -62.5t-125 -28.5q-13 -31 -21 -75q-7 -40 -7 -82v-10q1 -48 25.5 -80.5t71.5 -32.5q187 0 338 350q11 25 30 29 q12 2 12 -11v-2q0 -7 -5 -18q-68 -146 -94 -191q-102 -171 -243 -195q-26 -5 -54 -5q-80 0 -138 52q-58 53 -59 148zM221 350q35 0 101 24.5t116 65.5q77 65 105 151q9 29 9 49q0 28 -17 39q-8 5 -18 5q-40 0 -118 -80q-27 -27 -55 -61q-74 -92 -123 -193z" />
<glyph unicode="f" horiz-adv-x="405" d="M-240 -606v10q0 90 52 246q55 164 159 409q-24 41 -24 85q0 10 1 20q7 55 38 78q29 23 60 23q6 0 13 -1q232 524 420 875q38 73 76 108t98 35q9 0 41 -6t49 -4q-96 -90 -270 -397.5t-330 -657.5q47 -58 66 -154l6 -26h5q33 0 68 22q38 24 68.5 59.5t64 90.5t54.5 95.5 t47 94.5q11 21 26 15t5 -29q-34 -76 -65.5 -135t-74.5 -121t-92.5 -96.5t-101.5 -34.5q3 -30 3 -62q0 -81 -17 -172q-23 -126 -69 -233t-118 -177q-68 -67 -143 -67h-8q-104 4 -107 107zM-130 -597q0 -40 12 -52q8 -9 21 -9q5 0 11 2q20 5 43.5 26.5t48.5 54.5 q74 98 124 263q46 156 46 286v16q-7 -1 -15 -1q-24 0 -50 7q-34 10 -54 27q-119 -298 -170 -506q-17 -70 -17 -114zM78 68q9 -17 31.5 -28t50.5 -11h12q-3 51 -18 92q-11 25 -31 49z" />
<glyph unicode="g" horiz-adv-x="802" d="M-217 -489q0 131 178 235q90 53 185 92t203.5 74.5t156.5 54.5q34 99 47 228q7 68 7 112q0 36 -5 55q-25 -47 -51 -91t-68.5 -101.5t-83.5 -95.5t-92 -59q-31 -13 -60 -13q-19 0 -38 6q-73 31 -97 99q-13 36 -13 75q0 36 10 74q22 81 65.5 162.5t103.5 152.5 q62 74 142 117q75 39 158 39h12q90 -3 164 -61q32 -26 32 -51q0 -8 -3 -15q-8 -21 -27 -19q-16 4 -25 25q-25 69 -81 74q-7 1 -13 1q-50 0 -106 -37q-64 -41 -130 -114q-76 -85 -131 -184t-66 -175q-2 -13 -2 -25q0 -56 42 -78q13 -6 28 -6q33 0 73 28q58 39 109 106.5 t92 140t56 122.5q13 42 36.5 56t51.5 16t39 10q15 -92 15 -184q0 -156 -42 -314q96 69 144 133q30 40 53.5 82.5t43.5 86.5t22 48q9 18 20.5 21.5t14.5 -6.5q1 -3 1 -7q0 -9 -6 -24q-38 -78 -59 -119t-52 -93t-58 -81t-64 -58.5t-82 -50.5q-28 -79 -74 -163.5t-111 -167 t-138.5 -147t-161 -104.5t-173.5 -40q-192 0 -192 158zM-154 -449q-20 -43 -20 -75t20 -54q25 -28 80 -28q59 0 134.5 35t123.5 71q87 71 185 201q74 106 116 207l-71 -25q-101 -34 -160 -56t-145 -61t-146 -79q-78 -52 -117 -136z" />
<glyph unicode="h" horiz-adv-x="679" d="M-82 -14q15 30 71.5 147.5t80 166t75.5 155.5t85 173.5t79.5 158t88.5 171.5t83 156q40 72 70 102q27 27 68 27h8t36.5 -5t49.5 -3q-62 -63 -220.5 -351.5t-304.5 -584.5q91 116 166 180q84 75 208 143q99 54 149 53q13 0 22 -3q-25 -43 -62 -111t-104.5 -211t-79.5 -207 q-6 -29 -6 -51q0 -54 37 -57h3q32 1 72 39q42 40 84.5 108.5t67.5 115t50 97.5q13 26 27 21q8 -3 8 -14q0 -9 -5 -22q-1 -2 -2 -5q-83 -171 -133 -243q-99 -139 -198 -140q-30 0 -56 10.5t-48 37.5q-24 28 -24 78q0 45 19 113q19 64 113 215q21 34 21 55q0 12 -7 19 q-6 7 -17 7q-30 0 -97 -53q-21 -17 -46 -40q-146 -131 -287 -405q-10 -20 -25 -25.5t-50 -5.5q-5 0 -20 -1t-20 -1.5t-14 -3t-16 -6.5z" />
<glyph unicode="i" horiz-adv-x="356" d="M44 180q5 44 22 86l131 334q5 12 5 24q0 29 -26 62l113 2q47 0 55 -17.5t-12 -54.5l-164 -383q-21 -45 -25 -59q-10 -38 -10 -64q0 -61 53 -65q4 -1 9 -1q39 0 84 40q77 77 192 309q10 24 24 21q9 -2 9 -14q0 -6 -2 -15l-4 -10q-18 -39 -27 -58t-33 -65.5t-41.5 -73.5 t-46 -65.5t-54 -59.5t-57.5 -37t-63 -16q-55 0 -88 26.5t-41 67.5q-5 25 -5 52q0 17 2 34zM262 856q6 35 35 59.5t63 24.5t56 -24q17 -19 17 -45q0 -7 -1 -15q-6 -35 -34.5 -59.5t-63.5 -24.5t-56 24q-17 20 -17 47q0 6 1 13z" />
<glyph unicode="j" horiz-adv-x="362" d="M-806 -534q-3 15 -3 30q0 18 5 37q7 35 26 70q53 104 192 168q61 30 142.5 54t194 51.5t161.5 41.5q46 79 65 119q21 43 144 295q-12 0 -19.5 7.5t0.5 25.5l109 235q6 12 6 25q0 27 -27 61l113 2q47 0 55 -17.5t-12 -54.5l-164 -383q-52 -120 -127 -270q50 19 71 27.5 t60 28t61.5 38t52 49.5t56.5 70q23 33 45 70.5t33.5 59t27 53.5t17.5 36q12 25 26 21q10 -2 10 -14q0 -6 -3 -15l-4 -10q-40 -82 -64 -128t-58 -98.5t-64 -81.5t-75 -62t-98.5 -57.5t-128.5 -51.5q-46 -83 -86.5 -147t-104.5 -143t-126.5 -131t-146 -88t-170.5 -36 q-59 0 -101 15t-63 40t-28 58zM-754 -558q20 -48 90 -48q63 0 138 40.5t142.5 104t119.5 122.5t92 116q22 32 45 76q-14 -4 -99.5 -26t-123 -32.5t-99 -30.5t-102.5 -38q-114 -49 -175 -145q-35 -57 -35 -101q0 -20 7 -38zM262 856q6 35 35 59.5t63 24.5q35 0 56 -24 q17 -20 17 -45q0 -7 -1 -15q-6 -35 -34.5 -59.5t-63.5 -24.5t-56 24q-17 20 -17 47q0 6 1 13z" />
<glyph unicode="k" horiz-adv-x="743" d="M-52 82q-2 5 -2 9q0 7 5 15q58 77 167 285t227.5 437t191.5 337q69 101 133 101h4h10q4 0 36.5 -6.5t49.5 -2.5q-75 -58 -209 -264t-242 -420q-45 -88 -73 -174q188 232 334 287q67 24 112 23h13q47 -4 63 -34q11 -21 11 -47q1 -10 -1 -22q-6 -40 -37 -85t-77 -77 q-50 -35 -97 -54t-110 -25q-24 -57 -23 -116q0 -39 9 -77q25 -98 91 -120q13 -4 28 -5q58 0 136 72q66 71 166 280q11 23 24 16q8 -4 8 -15q0 -8 -5 -19q-47 -108 -93.5 -185t-85.5 -118.5t-81.5 -63.5t-74.5 -26q-16 -2 -34 -2t-39 2q-57 6 -99.5 51.5t-57.5 122.5 q-5 29 -5 56q1 58 25 105q36 70 76 74h10q30 0 70 15q46 18 82 47q59 47 59 96q0 43 -44 51q-8 1 -17 1q-72 0 -184 -92l-11 -9q-96 -86 -168 -187q-33 -59 -57 -179q-12 -60 -12 -96q0 -34 12 -44h-129q-20 0 -22.5 12.5t5.5 32.5q17 63 43 126.5t66 146t59 126.5 q-167 -317 -217 -364q-13 -11 -19 2z" />
<glyph unicode="l" horiz-adv-x="434" d="M81 258q6 30 38 141q47 169 133.5 370t177.5 353q30 51 65.5 88t67 53.5t60.5 20.5q5 1 9 0q23 0 38 -16q18 -18 25 -50q3 -12 3 -27q0 -25 -8 -59q-12 -54 -41 -122q-175 -393 -420 -615q-3 -10 -19.5 -58t-23.5 -77q-13 -58 -12 -102v-20q4 -50 28 -74q24 -22 56 -24 q2 0 4 -1q30 -1 66 23q38 24 69 69q70 98 152 260q13 26 28 24q15 -4 3 -34q-4 -8 -17 -37t-21 -45.5t-24.5 -48.5t-29 -52t-32.5 -49.5t-38 -48.5t-42.5 -40.5t-48.5 -34t-53 -21t-59 -8.5q-146 0 -146 157q0 46 12 105zM246 461q105 106 207 267.5t165 311.5q33 76 33 130 q0 31 -13 31q-10 0 -29 -18q-17 -17 -40 -50q-67 -95 -165 -305.5t-158 -366.5z" />
<glyph unicode="m" horiz-adv-x="1038" d="M-76 -10q33 66 127.5 265t151.5 304q43 79 71 105q25 24 65 24h9q3 0 36 -6t50 -2q-74 -40 -248 -385q96 119 170 184q11 9 33 30q47 43 74 66t68 53.5t71.5 41t52.5 2.5q28 -10 36.5 -34.5t-5.5 -55.5q-21 -48 -75 -147.5t-74 -139.5q90 112 170 184q83 75 207 143 q99 54 149 53q13 0 22 -3q-24 -43 -61 -111t-104 -211t-80 -207q-4 -26 -4 -45q0 -57 38 -57q37 0 81 40t84 103.5t67.5 113.5t48.5 97q11 25 25 21q10 -2 10 -14q0 -6 -2 -14q-1 -5 -4 -11q-83 -171 -138 -246q-101 -139 -200 -139q-31 0 -57 10.5t-49 37.5q-24 28 -24 78 q0 45 19 113q19 64 113 215q21 34 21 55q0 12 -7 19q-6 7 -17 7q-30 0 -97 -53q-21 -17 -46 -40q-76 -71 -172.5 -210t-115.5 -224q-34 0 -54 34q-14 24 -14 54q0 12 2 25q4 26 10 49.5t17 51t17 41.5t22 48t20 43q12 24 20.5 42t18 39.5t14.5 36.5t9.5 30.5t3 23t-6 12 t-16 0.5t-28 -14.5t-41 -31t-56.5 -50.5q-140 -126 -282 -399q-10 -22 -25.5 -27.5t-52.5 -5.5q-5 0 -19 -1t-19 -1.5t-14 -3t-16 -6.5z" />
<glyph unicode="n" d="M-80 -14q29 58 127 262.5t156 310.5q43 79 71 105q25 24 65 24h9q3 0 36 -6t50 -2q-74 -40 -248 -385q96 119 170 184q84 75 208 143q99 54 149 53q13 0 22 -3q-25 -43 -62 -111t-104.5 -211t-79.5 -207q-5 -27 -5 -47q0 -55 38 -55q104 0 281 354q11 26 26 21 q9 -3 9 -14q0 -7 -4 -18q-1 -4 -3 -7q-78 -161 -125 -229q-107 -155 -212 -156q-30 0 -56 10.5t-48 37.5q-24 28 -24 78q0 45 19 113q19 64 113 215q21 34 21 55q0 12 -7 19q-6 7 -17 7q-30 0 -97 -53q-21 -17 -46 -40q-145 -130 -284 -405q-11 -20 -26.5 -25.5t-51.5 -5.5 q-5 0 -20 -1t-20 -1.5t-14 -3t-16 -6.5z" />
<glyph unicode="o" d="M60 197q4 84 44 176q61 143 174 245q110 99 210 99h6q75 -1 112 -57q33 -49 33 -122q-1 -10 -1 -18q-4 -84 -44 -176q-25 -58 -70.5 -123.5t-101.5 -118.5q26 -51 96 -51q27 0 54 13t52.5 41t45.5 52.5t43.5 67t35.5 64.5t32.5 64.5t23.5 49.5q5 10 15 11q10 2 16 -6 q3 -4 3 -9q0 -6 -3 -14q-1 -1 -13 -28.5t-17.5 -40.5t-21.5 -44.5t-27 -50.5t-30.5 -49t-35.5 -49t-38 -41.5t-43 -35t-46 -21.5t-50 -9q-84 0 -131 54q-92 -70 -172 -70h-6q-75 2 -112 58q-33 49 -33 121v18zM176 160l-2 -24q0 -71 47 -89q11 -3 23 -3q52 0 116 54 q-32 46 -32 101q4 88 71 88q26 0 44 -18.5t18 -43.5q0 -6 -4 -22q36 52 63 110q60 129 66 223q0 9 1 16q0 80 -50 97q-12 3 -24 3q-55 0 -124 -65q-84 -80 -143 -206q-62 -129 -70 -221z" />
<glyph unicode="p" horiz-adv-x="688" d="M-297 -545q45 44 228 409t208 492q-19 -29 -41 -34q-9 -2 -9 6q0 4 3 10q21 42 41 92q20 46 31 104q9 42 9 78q0 12 -1 24q-4 45 -27 50q85 14 101 16q29 4 46 3t23 -19q5 -14 5 -45q0 -11 -1 -23q-3 -105 -57 -245q107 175 179 252q91 96 161 96q14 0 27 -4 q69 -19 92 -85q12 -35 12 -75q0 -35 -9 -73q-20 -84 -64 -171.5t-101 -156.5t-131.5 -110t-153.5 -46q-10 -1 -18 -1q-70 0 -135 38l-195 -486q-31 -66 -58 -87q-25 -19 -67 -19h-12q-7 0 -38 6t-48 4zM137 68q27 -25 62 -25q32 0 71 21q80 43 162.5 135.5t140.5 197.5 q58 108 58 181q0 19 -4 36q-11 49 -50 49q-5 0 -10 -1q-68 -9 -155 -130q-100 -136 -275 -464z" />
<glyph unicode="q" horiz-adv-x="700" d="M62 256q21 81 65 162.5t104 152.5q62 74 142 117q75 39 158 39h11q90 -3 163 -61q33 -26 33 -52q0 -7 -2 -14q-8 -21 -26 -19q-17 2 -26 25q-29 77 -91 77q-33 0 -76 -22q-103 -52 -214 -199q-112 -148 -140 -268q-7 -30 -7 -53q0 -55 41 -73q12 -5 26 -5q25 0 55 18 q45 28 99 100.5t78.5 109t68.5 109.5q11 17 15 24q40 68 63 86q19 16 51 16h11q9 0 39.5 -5t46.5 -3q-112 -171 -289.5 -587t-192.5 -519q-8 15 -32 37t-27 25q-22 24 -25.5 53.5t5.5 60t32 80.5q95 220 188.5 407.5t120.5 248.5q-20 -38 -143 -209q-95 -114 -184 -114 q-22 0 -43 7q-72 31 -96 99q-12 36 -12 75q0 36 10 74z" />
<glyph unicode="r" horiz-adv-x="532" d="M-56 82q-2 5 -2 9q0 7 5 15q115 151 198.5 358.5t116.5 393.5q10 55 48 62q6 1 11 1q30 0 51 -32q19 -29 19 -67q0 -18 -4 -38q-14 -66 -113 -137q42 -2 86 -2q94 0 197 10q4 -8 4 -20q0 -42 -47 -137q-3 -6 -16 -31t-25.5 -50t-30 -61t-31 -68t-26.5 -67.5t-19 -64 t-7 -52t8.5 -37t29.5 -14.5h1q86 0 253 342q13 25 26 19q7 -3 7 -13t-8 -26q-25 -52 -41.5 -84.5t-49.5 -88.5t-61.5 -91.5t-67.5 -67.5t-77 -41q-12 -3 -23 -3q-18 1 -36 7q-30 10 -54 40q-24 29 -26 82q0 3 -1 5q0 52 27 127q18 49 69.5 138.5t57.5 103.5q7 16 7 29 q0 27 -29 43q-43 22 -135 24l-25 -66q-49 -129 -115 -258.5t-133 -193.5q-13 -11 -19 2z" />
<glyph unicode="s" horiz-adv-x="524" d="M-10 218q21 56 61 62q3 1 6 1q109 206 176 354q32 69 76 119t94 57q12 2 24 2q30 0 52 -12q27 -13 24 -30q-3 -16 -27 -7q-2 1 -5 2q-20 8 -38 8q-15 0 -27 -6q-44 -21 -60 -71q-11 -35 -10 -70q0 -15 2 -29q6 -48 24 -90q5 -12 24.5 -55.5t27.5 -63.5q8 -19 16 -55 q7 -31 6 -60v-8q-3 -60 -44 -123.5t-101 -103.5l14 -2q10 -1 20 -1q83 0 164 95q44 54 154 268q5 9 14.5 10t15.5 -6q3 -4 3 -8t-2 -8q-16 -35 -24.5 -54t-26.5 -56.5t-32 -59.5t-34.5 -55t-39.5 -53t-43.5 -44t-49.5 -35.5t-53.5 -21t-60.5 -8t-66 11.5q-48 -20 -84 -20 q-127 0 -168 91q-15 34 -15 69q0 33 13 66zM68 118q-1 -7 -1 -13q-1 -30 17 -52q22 -26 61 -26q25 0 41 8q-77 48 -82 153q-32 -32 -36 -70zM92 276h5t10.5 -3.5t13.5 -9.5t10.5 -19.5t3.5 -32.5v-11q1 -48 23 -86q26 -42 63 -61q82 64 90 213v19q1 62 -15 182 q-13 98 -13 151q0 23 2 37q-135 -273 -193 -379z" />
<glyph unicode="t" horiz-adv-x="409" d="M70 211q13 98 58.5 243.5t100.5 278.5h-106q-11 0 -14.5 11.5t2 22.5t16.5 11h123q76 165 149 291q29 51 64 89t66 54t60 19h8q25 0 39 -16q18 -19 24 -51q2 -11 2 -25q0 -26 -8 -62q-12 -55 -44 -123q-54 -113 -88 -176h99q9 0 12 -11t-2.5 -22.5t-14.5 -11.5h-118 q-112 -190 -273 -338q-8 -24 -20 -76t-19 -93l-8 -40q-6 -28 -6 -50q0 -18 4 -31q9 -30 30.5 -41.5t49 -7.5t53.5 24q63 47 113.5 124t103.5 185q8 18 19 22.5t13.5 -5t-5.5 -29.5q-68 -141 -106 -202t-95 -118q-41 -39 -95 -51q-24 -5 -46 -6q-27 0 -53 9q-46 16 -72 69 q-19 37 -19 88q0 22 3 45zM244 461q113 116 207 272h-97q-7 -16 -110 -272zM375 778h102q59 106 103 209q33 72 33 133q0 33 -16 32h-3q-23 -4 -74 -75q-14 -20 -27.5 -43.5t-31.5 -61.5t-26 -55t-31.5 -72.5t-28.5 -66.5z" />
<glyph unicode="u" horiz-adv-x="731" d="M48 126q0 3 -1 7q0 13 2 25q2 14 6.5 30.5t9.5 29.5t13 29.5t14 28t15 29t14 27.5q-12 0 -19.5 7.5t0.5 25.5l37 71q59 113 115 226q21 43 80 43h125q-41 -30 -67 -62.5t-64 -110.5q-92 -186 -129 -264q-43 -93 -44 -151q0 -25 9 -43q11 -27 36 -27q17 0 40 12 q37 19 79 68q53 61 117.5 171.5t95.5 172.5t93 191q21 43 80 43h110q-45 -36 -70.5 -72.5t-70.5 -130.5q-124 -250 -137 -326q-6 -30 -6 -52q1 -23 7 -39q12 -30 37 -32q35 0 73.5 31t75.5 87t64.5 106.5t59.5 117.5q12 25 26 21q10 -2 9 -14q0 -6 -2 -14q-1 -5 -4 -11 q-17 -35 -24 -50.5t-26 -52.5t-31 -57t-32.5 -53t-37 -52t-39 -43t-43 -36.5t-45 -21.5t-48.5 -9q-73 0 -101 69q-13 30 -13 72q0 52 20 121q-62 -109 -135.5 -185.5t-141.5 -76.5q-42 0 -80 20t-49 72q-3 16 -3 32z" />
<glyph unicode="v" horiz-adv-x="536" d="M75 122q1 32 11.5 74.5t21.5 78.5t27 81q-18 -28 -33 -20q-12 6 -4 26l37 70q21 42 33 98q8 37 7 69q0 17 -2 33q-6 46 -32 54q85 14 101 16q29 4 46 3t23 -19q4 -14 4 -45v-23q-1 -48 -19 -120t-40 -127q-23 -60 -37 -104t-26 -92q-9 -37 -9 -63v-14q4 -30 23 -39 q15 -6 31 -7q34 0 70 30q54 43 100 122t90 187q-21 47 -26 105q-1 15 -1 30q0 40 10 70q32 102 101 139q24 13 42 13q15 0 26 -9t12 -24q0 -12 -7 -27q-4 -4 -4 -10q-66 -206 -107 -303q-166 -389 -357 -389q-18 0 -37 4q-30 6 -48 24t-23 47q-4 24 -4 51v10z" />
<glyph unicode="w" horiz-adv-x="974" d="M48 126q0 3 -1 7q0 13 2 25q2 14 6.5 30.5t9.5 29.5t13 29.5t14 28t15 29t14 27.5q-12 0 -19.5 7.5t0.5 25.5l37 71q95 186 115 226q21 43 80 43h125q-41 -30 -67 -62.5t-64 -110.5q-92 -186 -129 -264q-42 -91 -42 -150q0 -24 7 -42q12 -31 39 -31q12 0 28 7 q23 10 48 34q30 29 65.5 80t64.5 99t66 119.5t55.5 109.5t48.5 102t31 66q18 43 78 43h125q-5 -5 -21.5 -16t-33 -26t-27.5 -34q-57 -95 -113 -215q-18 -36 -36.5 -82t-42.5 -120q-18 -56 -18 -98q-1 -12 1 -24q8 -50 53 -53h9q76 -1 150 93q78 100 143 263q-21 45 -25 105 l-2 30q0 40 10 70q30 104 96 139q22 12 39 12q15 0 26 -10q9 -9 9 -23q0 -11 -6 -26q-4 -4 -4 -10q-2 -8 -8 -27q-13 -44 -21.5 -72.5t-29 -88.5t-37.5 -102t-45 -101.5t-54.5 -100.5t-62 -84t-71.5 -67q-36 -23 -80 -35q-24 -6 -47 -7q-21 0 -42 5q-39 9 -61.5 40.5 t-26.5 74.5q-2 19 -1 37q1 24 3 46q4 40 15 78q-151 -276 -273 -276q-45 0 -81.5 25.5t-45.5 68.5q-3 16 -3 32z" />
<glyph unicode="x" horiz-adv-x="681" d="M-66 -20q6 12 16.5 16t20.5 -4q18 -16 44.5 -16t60.5 16q63 30 147.5 160t126.5 268q19 103 19 147v8q0 46 -29 55q-5 2 -11 2q-38 0 -88 -79q-2 -4 -5 -8q-13 -22 -64.5 -119.5t-62.5 -116.5q-13 -24 -23 -16q-11 10 4 43q119 250 176 303q57 47 106 48q5 0 9 -1 q95 -10 95 -142q0 -49 -13 -116q55 105 128 194t116 101q13 3 24 3q21 0 39 -10q26 -16 18 -54q-6 -28 -29.5 -47t-51.5 -19q-41 0 -52 35q-63 -60 -126.5 -160.5t-94.5 -196.5q-7 -43 -7 -80q0 -39 8 -72q16 -63 54 -71q13 -3 26 -3q29 0 57 14q40 20 82.5 81t62.5 95.5 t63 118.5q13 24 19 36q13 29 27 21q7 -4 8 -13q0 -7 -5 -18q-8 -16 -26.5 -54.5t-30.5 -63t-33.5 -62.5t-39.5 -63t-44.5 -54t-52.5 -46t-59.5 -28.5t-69.5 -11.5q-71 0 -111 63q-38 59 -38 128v10q0 29 2 41q-55 -105 -118.5 -185.5t-117.5 -105.5q-41 -21 -82.5 -21 t-70.5 29q-6 6 -6 13q1 3 3 8z" />
<glyph unicode="y" horiz-adv-x="817" d="M-354 -534q-3 15 -3 30q0 18 5 37q7 35 26 70q53 103 193 168q61 30 142.5 54t194 51.5t161.5 41.5q13 22 25.5 47t25 54.5t22.5 53.5t22 59t19 54.5t19 56.5t16 49.5t15 48.5t12 38q-86 -151 -129 -210q-122 -167 -232 -167q-42 0 -80 20t-49 72q-3 16 -3.5 32.5t1.5 31 t6.5 31t9.5 29.5t13 29.5t14 28t15 29t14 27.5q-12 0 -19.5 7.5t0.5 25.5l37 71q59 113 115 226q21 43 80 43h125q-4 -3 -20.5 -15t-30.5 -26t-25 -33q-74 -126 -184 -363q-43 -93 -43 -151q0 -25 8 -43q11 -27 36 -27q17 0 40 12q37 19 79 68q145 168 322 535q21 43 80 43 h110q-23 -16 -42 -37.5t-32 -40.5t-30 -57t-26 -60.5t-29 -77.5q-26 -71 -81 -231t-83 -238q81 24 160.5 74.5t134.5 128.5q54 79 129 225q12 25 26 21q10 -2 10 -14q0 -6 -3 -15l-4 -10q-40 -82 -64.5 -127.5t-58 -97t-63.5 -80.5t-75 -61.5t-98.5 -57t-128.5 -51.5 q-46 -83 -87 -147t-104.5 -143t-126.5 -131t-146.5 -88t-170.5 -36q-59 0 -101 15t-63 40t-28 58zM-300 -557q21 -48 91 -49q63 0 137.5 40t142.5 104.5t119 122.5t93 116l45 76q-20 -5 -81.5 -21t-95 -25t-84.5 -23.5t-91.5 -28.5t-73.5 -29q-113 -48 -173 -144 q-36 -57 -36 -102q0 -20 7 -37z" />
<glyph unicode="z" horiz-adv-x="698" d="M-394 -452q6 49 38 98q23 34 59.5 65.5t87.5 59t98.5 49t117.5 45.5t116.5 39t124 38t114.5 35q15 46 24 90t13 95q1 9 1 17q0 39 -16 62q-15 22 -44 22q-7 0 -16 -1q-38 -20 -91 -39q-16 -6 -26 2t-8 20t18 17q138 42 229 180q26 39 26 75q0 26 -14 50q-27 48 -85 49h-3 q-77 0 -140 -88l-17 -26q-55 -91 -109 -205q-11 -25 -25 -21q-15 5 -1 38q1 2 2 5q109 213 121 234q65 119 175 155q39 13 72 13q45 0 81 -23q53 -33 53 -99v-7q-3 -71 -55.5 -149t-145.5 -134h6q131 0 135 -133q0 -23 -7.5 -74t-14.5 -75q48 10 93.5 43.5t85.5 88t71 109 t65 125.5q9 18 20 21.5t14 -6.5q1 -3 1 -7q0 -10 -6 -24q-30 -61 -47.5 -94.5t-47 -85t-54.5 -81t-58 -62.5t-70.5 -51.5t-79.5 -27.5q-80 -220 -236.5 -376.5t-373.5 -219.5q-50 -13 -93 -13q-12 0 -22 1q-52 4 -88 31q-38 27 -56 64q-14 28 -13 63q0 11 1 23zM-314 -547 q23 -44 83 -44q20 0 45 5q62 14 135.5 55t147.5 104t140.5 156t106.5 197q-43 -14 -135.5 -41t-145.5 -43.5t-119 -42.5t-108 -51q-91 -53 -137 -150q-25 -53 -24 -94q-1 -28 11 -51z" />
<glyph unicode="{" horiz-adv-x="755" d="M31 596q-32 0 9 51l3 4q173 18 236 72q65 51 96 207q4 19 17 90t23.5 114.5t29.5 104.5t47 105t63 71q97 72 299 72h8q31 0 19 -23q-9 -18 -25 -23l-4 -1q-149 0 -211 -56q-37 -32 -62 -93.5t-39.5 -133t-28.5 -144.5t-39.5 -144t-61.5 -115q-77 -95 -273 -131 q163 -29 211 -111q16 -28 18.5 -76t-6 -107.5t-18 -108t-24 -107.5t-17.5 -76q-31 -157 14 -207q44 -53 185 -53q17 1 14.5 -19.5t-16.5 -24.5l-4 -1h-11q-200 0 -268 71q-25 28 -32.5 80.5t1 117.5t20 120.5t27.5 117t19 78.5q31 154 -14 207q-28 36 -72 54q-46 18 -133 18 z" />
<glyph unicode="|" horiz-adv-x="993" d="M453 -473v2007h88v-2007h-88z" />
<glyph unicode="}" horiz-adv-x="993" d="M41 -247q10 21 29 24q150 0 217 55q41 33 72.5 97t53 138t44.5 149.5t59 148t84 116.5q87 78 266 113q-151 26 -196 111q-12 25 -13 65t4.5 79.5t18.5 92t23.5 87.5t25.5 82t19 60q47 151 10 205q-38 56 -185 56q-36 0 8 42l5 5h10q210 0 264 -72q27 -35 27.5 -96 t-18 -127.5t-42 -142.5t-44 -141t-23.5 -122.5t20 -87.5q40 -52 197 -67q32 -2 -15 -52l-4 -4q-152 0 -243 -71q-48 -36 -81.5 -107t-55.5 -151.5t-45.5 -162.5t-65.5 -157t-102 -117q-100 -69 -302 -69h-10q-17 1 -12 21z" />
<glyph unicode="~" horiz-adv-x="993" d="M324 864q91 163 200 154q45 -3 126.5 -37t121.5 -37q74 -8 113 72q4 10 31 4q13 -4 12 -8q-34 -71 -86 -120t-117 -44q-43 4 -124.5 40.5t-123.5 39.5q-35 3 -62.5 -16.5t-43.5 -51.5q-4 -11 -32 -6q-16 4 -15 10z" />
<glyph unicode="&#xa2;" horiz-adv-x="647" d="M71.5 856.5q5.5 62.5 27 125t50.5 118t62 94.5q53 62 128.5 107.5t143.5 44.5h13q84 210 141 346q21 48 41 34q16 -10 12 -37l-2 -8q-7 -19 -26.5 -66.5t-53.5 -130t-61 -149.5q49 -15 78.5 -57.5t27.5 -95.5t-32 -90t-78 -37q-41 0 -70 29t-27 69q2 41 29 67t68 25 q20 0 42 -12.5t27 -24.5q6 32 -9.5 56.5t-35.5 29.5q-52 11 -126 -40t-136 -132q-125 -169 -119 -336q3 -71 34 -103t79 -32q104 0 227 152q17 21 26 2q8 -16 -1 -29q-111 -155 -262 -160q-3 -9 -34 -80t-58 -142.5t-51 -151t-20 -134t42 -63.5q26 -5 19 -23q-6 -17 -29 -16 l-8 2q-55 18 -70.5 75t5 136.5t47 151.5t60.5 148t41 97q-66 6 -105.5 40.5t-50.5 86t-5.5 114z" />
<glyph unicode="&#xa3;" horiz-adv-x="1173" d="M49 92q0 57 49 89t109 32q55 0 112.5 -23.5t93 -47.5t93.5 -69q12 -9 18 -14q27 23 53.5 51t52 62t45.5 62.5t45.5 71t40 67.5t40.5 71.5t37 65.5q-46 4 -70 4q-65 0 -111 -10l-36 -12q-2 -1 -7 -4t-8 -3q-10 0 -10 27q0 12 6 16q57 29 166 29q46 0 92 -6 q372 651 668 651q60 0 103.5 -29.5t43.5 -85.5q0 -85 -79 -186t-166 -164q-10 -10 -25 -10q-10 0 -10 8q0 9 12 17q54 45 101.5 93t93 119t45.5 126q0 67 -78 67q-98 0 -200 -82.5t-173 -183.5q-57 -83 -109 -201q-51 -119 -71 -160q46 -6 96 -6q29 0 59 6q33 11 37 11 q11 0 11 -27q0 -14 -7 -16q-46 -17 -100 -17q-37 0 -119 8q-83 -159 -181.5 -271.5t-240.5 -194.5q63 -44 196.5 -101.5t211.5 -75.5q49 -12 100 -12q42 0 83.5 9t80 28t62.5 54t24 81q0 10 8 10q9 0 9 -14v-4q-5 -51 -32 -88.5t-68.5 -57t-85.5 -28t-93 -8.5q-87 0 -195 24 q-65 14 -212 66t-197 80q-87 -41 -170 -41q-33 0 -73 8.5t-79.5 25.5t-65.5 46.5t-26 66.5zM66 106q0 -38 30 -71t69.5 -50t76.5 -20q12 -2 37 -2q82 0 153 41q-13 8 -64 41.5t-86.5 55.5t-80.5 42.5t-72 20.5t-45 -15.5t-18 -42.5z" />
<glyph unicode="&#xa5;" horiz-adv-x="1478" d="M102 -76q0 4 1.5 6.5t3.5 4t6 2t6 0.5h6.5h5.5q40 0 84 19t80.5 44.5t81.5 72t73 79t69 89t56.5 79.5t47.5 71h-465q-6 0 -6 6q0 9 13.5 24t22.5 15h465l11 17q0 65 -15 176h-289q-6 0 -6 4q0 10 14 25.5t23 15.5h252q-9 48 -23 100.5t-40.5 118t-58.5 116t-78.5 85 t-98.5 34.5q-49 0 -90 -38t-61.5 -89.5t-20.5 -99.5q0 -22 5.5 -46.5t13 -43t15.5 -34t13.5 -24.5t5.5 -10q0 -14 -14 -14q-4 0 -10 6q-54 73 -54 166q0 91 55.5 172.5t141.5 81.5q63 0 121.5 -33t101.5 -87t74 -111t51 -117q39 -111 45 -240l41 64q-1 7 2 13t10.5 13t8.5 9 q18 23 50.5 79t35.5 60q28 43 44.5 67.5t55.5 79t67.5 89t71.5 80.5t78.5 73t76.5 46.5t77 19.5q55 0 95 -41t40 -97q0 -39 -16 -39q-6 0 -10.5 4.5t-4.5 10.5q0 4 2 12t2 12q0 43 -33 77t-75 34q-36 0 -78.5 -27.5t-86 -77t-83 -101.5t-81 -119t-67 -110t-54.5 -94 q-12 -21 -17 -30h213q4 0 4 -6q0 -9 -13.5 -24t-23.5 -15h-205l-108 -193h207q6 0 6 -6q0 -9 -14 -24t-23 -15h-205q-41 -61 -71 -103t-79.5 -105t-95.5 -105.5t-101.5 -84t-116 -62.5t-122.5 -21q-1 0 -8.5 -0.5t-11 0t-9 1.5t-8 4.5t-2.5 8.5z" />
<glyph unicode="&#xa8;" horiz-adv-x="569" d="M78 950q0 30 18 49t47 19q30 0 50 -19t20 -49q0 -29 -18.5 -48t-47.5 -19q-30 0 -49.5 18.5t-19.5 48.5zM342 950q0 29 18.5 48.5t47.5 19.5q30 0 49.5 -19t19.5 -49q0 -29 -18 -48t-47 -19q-30 0 -50 18.5t-20 48.5z" />
<glyph unicode="&#xa9;" horiz-adv-x="1468" d="M53 541q18 161 125.5 300.5t274.5 223t352 88.5q186 4 335 -71.5t224.5 -209.5t56.5 -294q-18 -161 -125 -300.5t-274 -223t-352 -87.5q-139 -4 -260 39.5t-204 120.5t-125 185t-28 229zM143 541q-13 -114 22 -216.5t105.5 -176t175.5 -115t226 -37.5q161 4 306 83 t239 210.5t112 283.5q13 115 -22 218t-105.5 176.5t-175 115.5t-225.5 39q-162 -5 -307.5 -84.5t-239.5 -211.5t-111 -285zM458.5 377q-8.5 54 5 119.5t44 129.5t70.5 117q50 67 111.5 104.5t123.5 37.5q66 0 97.5 -33.5t25.5 -89.5q-6 -47 -48.5 -84.5t-70.5 -9.5 q45 52 55 90q11 46 1.5 67t-35.5 21q-45 0 -96.5 -45.5t-94.5 -108.5q-32 -47 -64 -124.5t-32 -145.5q0 -60 25.5 -98.5t78.5 -38.5q120 0 217 147q12 17 23.5 19t13 -9t-5.5 -26q-48 -78 -111.5 -120t-154.5 -42q-80 0 -125 34.5t-53.5 88.5z" />
<glyph unicode="&#xab;" horiz-adv-x="923" d="M229 367q4 2 120.5 75.5t211.5 130.5t105 56l14 -6l2 -15q-17 -27 -82 -79t-154.5 -114t-95.5 -67l-2 -278l-10 -21l-14 -6q-11 0 -17 6q-17 43 -30.5 96.5t-26.5 120.5t-21 101zM526 367q4 2 121 75.5t212 130.5t104 56l12 -6l2 -15q-18 -30 -79.5 -79t-154.5 -114 t-96 -67l-2 -278l-10 -21l-14 -6l-17 6q-12 22 -27 83.5t-31 139.5t-20 95z" />
<glyph unicode="&#xad;" horiz-adv-x="831" d="M303.5 470.5q5.5 25.5 32.5 25.5q93 0 450 -9q32 -1 42 -25q8 -21 -17 -28q-7 -2 -16 -2q-54 0 -103.5 -2t-108 -7t-82.5 -7t-93 -10.5t-72 -8.5q-14 -2 -26 23t-6.5 50.5z" />
<glyph unicode="&#xae;" horiz-adv-x="1468" d="M53 541q18 161 125.5 300.5t274.5 223t352 88.5q186 4 335 -71.5t224.5 -209.5t56.5 -294q-18 -161 -125 -300.5t-274 -223t-352 -87.5q-139 -4 -260 39.5t-204 120.5t-125 185t-28 229zM143 541q-13 -114 22 -216.5t105.5 -176t175.5 -115t226 -37.5q161 4 306 83 t239 210.5t112 283.5q13 115 -22 218t-105.5 176.5t-175 115.5t-225.5 39q-162 -5 -307.5 -84.5t-239.5 -211.5t-111 -285zM255 322q-17 43 19 78q47 46 140 23q11 -3 22 -7q10 -4 7 -9t-13 -1q-70 26 -106 -14q-27 -30 -11 -66q17 -38 68 -41q36 -2 70 8t64.5 33t55.5 48.5 t52.5 65.5t47 72t46.5 80q16 28 50 88.5t53 93t47 75t53 69.5q-160 13 -318 -21q-103 -21 -167 -73t-77 -111q-11 -55 20 -88t80 -30.5t85 40.5q32 32 32 55q1 10 4.5 11t5.5 -6l1 -7q-6 -43 -33 -67q-42 -44 -101 -49t-101 33.5t-36 107.5q7 73 85.5 137.5t211.5 83.5 q182 25 326 4q38 40 35 12l-4 -16q7 -1 38 -6.5t46 -9.5q120 -35 137 -105q15 -63 -59 -119q-70 -52 -189 -71q-61 -11 -111 -11q3 -21 12 -56t32 -95t51 -103q23 -36 44 -52.5t47.5 -13.5t55.5 32q42 42 80 127q8 13 15 12q6 -1 1 -12q-58 -120 -88 -152 q-40 -42 -100 -40.5t-102 44.5q-16 17 -29.5 38t-22.5 45.5t-16 45t-12 47.5t-7.5 42t-5.5 39t-4 28q-28 -57 -42.5 -84t-44.5 -72t-64 -80q-102 -113 -273 -92q-82 10 -103 62zM827 639l99 10q91 12 152 77q56 59 38 111q-13 39 -67 56q-20 6 -74 14q-9 -16 -65 -113.5 t-83 -154.5z" />
<glyph unicode="&#xb4;" horiz-adv-x="546" d="M114 858q-2 8 3 14q3 7 58.5 47.5t118.5 85t75 54.5q65 50 118 24q15 -8 20.5 -24t-1.5 -31q-11 -24 -190.5 -105.5t-192.5 -76.5q-7 4 -9 12z" />
<glyph unicode="&#xb8;" horiz-adv-x="776" d="M147 -332q0 15 13 15q4 0 8.5 -2.5t7.5 -5.5t7.5 -8t6.5 -7q25 -26 77 -38.5t100 -12.5q58 0 114.5 17.5t81.5 56.5q29 45 29 84q0 56 -47.5 86t-106.5 30q-34 0 -66 -12.5t-53 -24.5t-28 -12q-14 0 -26.5 9t-12.5 22q0 10 8 18q12 12 82 65.5t76 53.5q11 0 16 -16 q-3 -2 -28 -19t-44 -32.5t-18 -20.5q40 6 80 6q38 0 77.5 -8.5t78.5 -25.5t63.5 -49t24.5 -73q0 -82 -107 -155q-52 -35 -155 -35q-24 0 -63 5t-85 15t-78.5 29.5t-32.5 44.5z" />
<glyph unicode="&#xbb;" horiz-adv-x="923" d="M55 55q0 9 18 28t47 43t63 50.5t70 52.5t64.5 46.5t48.5 34.5l21 14l2 278q2 3 5 10t5 9l17 8l18 -8q17 -43 30 -96t25 -120t19 -98l-420 -262l-14 -2q-9 0 -17 4zM354 47v19q19 30 83.5 80.5t147.5 108t99 69.5q1 13 -0.5 87.5t0.5 134t10 75.5l17 8l16 -8 q7 -7 19.5 -52.5t23 -94.5t22 -104t13.5 -63l-420 -262l-16 -2z" />
<glyph unicode="&#xd3;" horiz-adv-x="1605" d="M78 897q-25 246 151 423q149 149 388 203q246 56 470 -15q241 -76 355 -274q95 -163 86 -388q204 136 266 258q9 19 27 19q18 -1 13 -21q-2 -9 -9 -21q-122 -190 -305 -307q-8 -99 -47 -219q-48 -147 -153 -291t-245.5 -253t-303 -154t-325.5 6q-86 28 -150 103.5 t-95 178.5t-23.5 233.5t58.5 260.5q-144 96 -158 258zM190 879q12 -95 82 -156q30 63 76 135t109 151t134 141t150.5 106.5t158 48t157.5 -36.5q15 -8 15.5 -16.5t-9.5 -12.5t-23 0q-73 23 -158.5 -12t-161 -104t-146.5 -158t-120 -169t-77 -143q186 -87 478.5 -48.5 t547.5 175.5q33 371 -158 568q-142 146 -366 161q-207 14 -392 -85q-179 -96 -256 -258q-64 -133 -41 -287zM288 195.5q9 -89.5 51 -161t114 -106.5q182 -84 361.5 -2.5t323 255.5t216.5 382q29 86 37 146q-255 -136 -548 -172t-497 45q-37 -99 -52 -198t-6 -188.5z M1228 1505.5q-2 8.5 3 14.5q3 7 58.5 47t118.5 84.5t75 54.5q67 51 119 25q15 -7 20.5 -24t-2.5 -32q-11 -24 -190.5 -105.5t-192.5 -76.5q-7 4 -9 12.5z" />
<glyph unicode="&#xf3;" d="M60.5 197q4.5 84 43.5 176q61 144 174 245.5t216 98.5q75 -1 112 -56.5t32.5 -140t-44.5 -176.5q-25 -58 -70.5 -123.5t-101.5 -118.5q26 -51 96 -51q27 0 54 13t52.5 41t45.5 52.5t43.5 67t35.5 64.5t32.5 64.5t23.5 49.5q5 10 15.5 11t16 -6.5t-0.5 -22.5 q-1 -1 -13 -28.5t-17.5 -40.5t-21.5 -44.5t-27 -50.5t-30.5 -49t-35.5 -49t-38 -41.5t-43 -35t-46 -21.5t-50 -9q-84 0 -131 54q-96 -73 -178 -70q-75 2 -112 57.5t-32.5 139.5zM175.5 159.5q-8.5 -91.5 45.5 -112.5q60 -15 139 51q-32 46 -32 101q4 88 71 88q26 0 44 -18.5 t18 -43.5q0 -6 -4 -22q36 52 63 110q61 128 66.5 222.5t-49.5 113.5q-64 18 -148 -62t-143 -206q-62 -130 -70.5 -221.5zM513 868.5q-2 8.5 3 14.5q3 7 58.5 47t118.5 84.5t75 54.5q67 51 119 25q15 -7 20.5 -24t-2.5 -32q-11 -24 -190.5 -105.5t-192.5 -76.5q-7 4 -9 12.5z " />
<glyph unicode="&#x100;" horiz-adv-x="1458" d="M53 92.5q-34 123.5 2.5 297t137.5 355.5q84 151 180 261q-137 65 -205 141q-42 49 -47 128t29 103q18 23 34 13q19 -12 3 -49q0 -1 -1 -3q-15 -28 -11.5 -57t16.5 -52t38 -52q66 -74 181 -129q102 114 210.5 205.5t234.5 168t268 118.5t286 42q162 0 257 -72t95 -188 q0 -47 -20 -96t-67.5 -100t-118.5 -93t-182.5 -74.5t-248.5 -44.5q-366 -32 -618 48q-73 -102 -160.5 -248.5t-136.5 -268.5q-44 -109 -58.5 -197.5t-1 -145.5t47 -93t87.5 -42.5t119 9t142.5 59t156.5 109.5q155 131 304.5 311.5t232.5 334.5q58 109 113 119q37 7 51 -32 q17 -50 -22 -112q-11 -17 -25 -33q-90 -101 -166 -252.5t-103 -296.5q-23 -129 -2 -189t69 -63t111 39.5t124 118.5q117 152 178 291q12 27 30 29q14 1 12 -16l-7 -21q-32 -72 -85.5 -165.5t-105.5 -162.5q-56 -75 -137.5 -125.5t-163.5 -50.5q-80 0 -121 64.5t-41 152 t21.5 174.5t56.5 133q-35 -42 -72.5 -82.5t-88.5 -91.5t-103 -94t-110.5 -85.5t-118 -72t-118.5 -47.5t-118.5 -16.5t-112.5 24.5q-97 41 -131 164.5zM539 1004q120 -38 255 -47t330 8q254 22 403.5 126t149.5 257q0 88 -72.5 135t-189.5 47q-111 0 -216.5 -29.5 t-190.5 -75.5t-172.5 -118.5t-153.5 -141.5t-143 -161zM1307 1679l26 62h436l-24 -62h-438z" />
<glyph unicode="&#x101;" horiz-adv-x="716" d="M51 126q-19 133 70 298q40 75 100 147q62 73 150 117.5t178.5 41.5t146.5 -64q21 -23 13 -44t-35 -16q-17 56 -67 69.5t-107 -18.5q-67 -37 -141.5 -117.5t-131.5 -174.5q-72 -131 -84 -207q-13 -92 39 -102q49 -10 119 55q16 16 31 34q81 97 182 287q39 75 66.5 104.5 t72.5 26.5q3 0 36 -6t50 -2q-37 -37 -104 -166.5t-86 -216.5q-23 -123 20 -123q30 -1 70 38t80 101.5t66.5 111t48.5 93.5q12 26 27 22q14 -4 4 -31q-1 -4 -3 -7q-181 -371 -309 -381q-28 -2 -53 9t-46.5 40.5t-22 82t19.5 132.5q-77 -123 -148 -192q-98 -94 -175 -63 q-63 25 -77 121zM418 885l26 61h437l-25 -61h-438z" />
<glyph unicode="&#x102;" horiz-adv-x="1458" d="M53.5 97.5q-27.5 125.5 10.5 276t117.5 306t178.5 264.5q-131 62 -192 131q-40 43 -45 117t27 96q17 22 32 10q17 -13 2 -47q-32 -71 41 -147q67 -73 170 -119q195 211 437 337t509 126q153 0 242.5 -67t89.5 -173q0 -43 -18.5 -87.5t-63.5 -92t-111 -86t-171 -68 t-234 -40.5q-334 -27 -594 55q-49 -44 -134.5 -179.5t-137.5 -263.5q-44 -109 -58.5 -197.5t-1 -145.5t47 -93t87.5 -42.5t119 9t142.5 59t156.5 109.5q153 129 276.5 279t203.5 295q59 106 112 110q34 2 44 -35q13 -52 -32 -111q-6 -9 -14 -17q-146 -159 -205 -482 q-23 -129 -2 -189t69 -63t111 39.5t124 118.5q117 152 178 291q12 27 30 29q14 1 12 -16l-7 -21q-32 -72 -85.5 -165.5t-105.5 -162.5q-56 -75 -137.5 -125.5t-163.5 -50.5q-80 0 -121 64.5t-41 152t21.5 174.5t56.5 133q-35 -42 -72.5 -82.5t-88.5 -91.5t-103 -94 t-110.5 -85.5t-118 -72t-118.5 -47.5t-118.5 -16.5t-112.5 24.5q-103 44 -130.5 169.5zM512 926q235 -74 563 -47q238 20 378 116t140 236q0 81 -67.5 124.5t-177.5 43.5q-105 0 -205 -25.5t-183 -67.5t-165 -104.5t-148 -128t-135 -147.5zM1311 1649q-8 49 2 70.5t28 21.5 q8 0 14.5 -13t15.5 -33.5t22 -33.5q31 -30 62.5 -40.5t78.5 -10.5q42 0 72 7t53.5 24.5t36.5 32t37 44.5q16 20 36 14q11 -5 9 -16q-37 -82 -112 -129t-173 -47q-61 0 -117.5 28.5t-64.5 80.5z" />
<glyph unicode="&#x103;" horiz-adv-x="716" d="M51 126q-19 133 70 298q40 75 100 147q62 73 150 117.5t178.5 41.5t146.5 -64q21 -23 13 -44t-35 -16q-17 56 -67 69.5t-107 -18.5q-67 -37 -141.5 -117.5t-131.5 -174.5q-72 -131 -84 -207q-13 -92 39 -102q49 -10 119 55q16 16 31 34q81 97 182 287q39 75 66.5 104.5 t72.5 26.5q3 0 36 -6t50 -2q-37 -37 -104 -166.5t-86 -216.5q-23 -123 20 -123q30 -1 70 38t80 101.5t66.5 111t48.5 93.5q12 26 27 22q14 -4 4 -31q-1 -4 -3 -7q-181 -371 -309 -381q-28 -2 -53 9t-46.5 40.5t-22 82t19.5 132.5q-77 -123 -148 -192q-98 -94 -175 -63 q-63 25 -77 121zM477 1010q-8 49 2.5 70.5t28.5 21.5q7 0 12.5 -8.5t9 -20t11.5 -26.5t18 -25q31 -30 62.5 -40.5t78.5 -10.5q42 0 72 7t53.5 24.5t36.5 32t37 44.5q16 20 36 14q11 -5 9 -16q-37 -82 -112 -129t-173 -47q-61 0 -117.5 28.5t-64.5 80.5z" />
<glyph unicode="&#x104;" horiz-adv-x="1458" d="M53 92.5q-34 123.5 2.5 297t137.5 355.5q84 151 180 261q-137 65 -205 141q-42 49 -47 128t29 103q18 23 34 13q19 -12 3 -49q0 -1 -1 -3q-15 -28 -11.5 -57t16.5 -52t38 -52q66 -74 181 -129q102 114 210.5 205.5t234.5 168t268 118.5t286 42q162 0 257 -72t95 -188 q0 -47 -20 -96t-67.5 -100t-118.5 -93t-182.5 -74.5t-248.5 -44.5q-366 -32 -618 48q-73 -102 -160.5 -248.5t-136.5 -268.5q-44 -109 -58.5 -197.5t-1 -145.5t47 -93t87.5 -42.5t119 9t142.5 59t156.5 109.5q155 131 304.5 311.5t232.5 334.5q58 109 113 119q37 7 51 -32 q17 -50 -22 -112q-11 -17 -25 -33q-90 -101 -166 -252.5t-103 -296.5q-23 -129 -2 -189t69 -63t111 39.5t124 118.5q117 152 178 291q12 27 30 29q14 1 12 -16l-7 -21q-32 -72 -85.5 -165.5t-105.5 -162.5q-30 -40 -80 -84v-14q-90 -71 -165.5 -169.5t-78.5 -164.5 q0 -68 60 -68q42 0 104 62q3 2 6.5 3t7.5 1t6 -3t1 -9q-7 -36 -65 -75.5t-130 -39.5q-40 0 -66.5 24t-25.5 68q1 61 64.5 148t148.5 161q-46 -16 -88 -16q-80 0 -121 64.5t-41 152t21.5 174.5t56.5 133q-35 -42 -72.5 -82.5t-88.5 -91.5t-103 -94t-110.5 -85.5t-118 -72 t-118.5 -47.5t-118.5 -16.5t-112.5 24.5q-97 41 -131 164.5zM539 1004q120 -38 255 -47t330 8q254 22 403.5 126t149.5 257q0 88 -72.5 135t-189.5 47q-111 0 -216.5 -29.5t-190.5 -75.5t-172.5 -118.5t-153.5 -141.5t-143 -161z" />
<glyph unicode="&#x105;" horiz-adv-x="716" d="M51 126q-19 133 70 298q40 75 100 147q62 73 150 117.5t178.5 41.5t146.5 -64q21 -23 13 -44t-35 -16q-17 56 -67 69.5t-107 -18.5q-67 -37 -141.5 -117.5t-131.5 -174.5q-72 -131 -84 -207q-13 -92 39 -102q49 -10 119 55q16 16 31 34q81 97 182 287q39 75 66.5 104.5 t72.5 26.5q3 0 36 -6t50 -2q-37 -37 -104 -166.5t-86 -216.5q-23 -123 20 -123q30 -1 70 38t80 101.5t66.5 111t48.5 93.5q12 26 27 22q14 -4 4 -31q-1 -4 -3 -7q-133 -272 -235 -348q-85 -72 -153 -164t-71 -154q0 -67 60 -67q43 0 104 61q3 2 6.5 3t7.5 1t6 -3t1 -9 q-7 -36 -65 -75.5t-130 -39.5q-40 0 -66.5 24t-25.5 68q1 64 71 156.5t158 167.5q-36 3 -61 27.5t-36 82t18 152.5q-77 -123 -148 -192q-98 -94 -175 -63q-63 25 -77 121z" />
<glyph unicode="&#x106;" horiz-adv-x="1454" d="M131.5 486.5q4.5 98.5 24.5 197.5t54 187.5t79.5 164t97.5 127.5q-27 81 -31.5 175.5t23.5 191.5q4 13 15.5 20t20 0t3.5 -28q-27 -118 16 -303q159 164 376 238t456 52q281 -25 397 -162q89 -106 51 -239q-36 -129 -176 -224q-193 -129 -481 -124q-59 1 -119 8 q-356 39 -496 270q-14 -15 -37.5 -64t-51 -122.5t-49 -164t-35 -186.5t-5.5 -191.5t35.5 -176.5t91.5 -144t160 -93q163 -50 349 -27t337 113q64 38 114 81.5t90 100.5t66.5 104.5t65.5 126.5q11 24 24 19q14 -5 2 -34q-1 -2 -2 -5q-77 -158 -143.5 -250t-185.5 -176 q-110 -75 -233 -116.5t-272.5 -39t-291.5 63.5q-93 39 -162 106.5t-107.5 150t-56.5 178.5t-13.5 194.5zM481 1090q123 -252 488 -285q297 -26 488 94q132 82 166 202q35 119 -43 214q-91 111 -296 135q-219 26 -434.5 -74t-368.5 -286zM1321 1561q3 5 48 38t97 69.5 t62 45.5q59 39 98 19q12 -6 16 -19.5t-2 -25.5q-8 -20 -156 -87.5t-159 -62.5q-15 8 -4 23z" />
<glyph unicode="&#x107;" horiz-adv-x="532" d="M77.5 134.5q-9.5 62.5 6 139t50.5 150t81 135.5q57 77 129 119.5t145 42.5q75 0 112.5 -38.5t29.5 -102.5q-6 -54 -55.5 -97.5t-81.5 -11.5q51 60 63 104q25 101 -41 101q-51 0 -110 -52t-109 -124q-38 -55 -75.5 -145t-37.5 -169q0 -68 29.5 -112.5t91.5 -44.5 q37 0 72 12.5t62 29.5t56.5 50t48 57.5t45 69.5t39 69t36.5 72q9 18 19.5 22t13.5 -6t-5 -30q-27 -58 -42.5 -89t-42 -79t-47 -73.5t-52 -57t-62.5 -47t-72.5 -26.5t-88.5 -11q-93 0 -145.5 40t-62 102.5zM486.5 870.5q-2.5 8.5 2.5 14.5q3 7 58.5 47t118.5 84.5t75 54.5 q67 51 119 25q15 -8 20.5 -24.5t-1.5 -31.5q-11 -24 -190.5 -105.5t-192.5 -76.5q-7 4 -9.5 12.5z" />
<glyph unicode="&#x108;" horiz-adv-x="1454" d="M131.5 486.5q4.5 98.5 24.5 197.5t54 187.5t79.5 164t97.5 127.5q-27 81 -31.5 175.5t23.5 191.5q4 13 15.5 20t20 0t3.5 -28q-27 -118 16 -303q159 164 376 238t456 52q281 -25 397 -162q89 -106 51 -239q-36 -129 -176 -224q-193 -129 -481 -124q-59 1 -119 8 q-356 39 -496 270q-14 -15 -37.5 -64t-51 -122.5t-49 -164t-35 -186.5t-5.5 -191.5t35.5 -176.5t91.5 -144t160 -93q163 -50 349 -27t337 113q64 38 114 81.5t90 100.5t66.5 104.5t65.5 126.5q11 24 24 19q14 -5 2 -34q-1 -2 -2 -5q-77 -158 -143.5 -250t-185.5 -176 q-110 -75 -233 -116.5t-272.5 -39t-291.5 63.5q-93 39 -162 106.5t-107.5 150t-56.5 178.5t-13.5 194.5zM481 1090q123 -252 488 -285q297 -26 488 94q132 82 166 202q35 119 -43 214q-91 111 -296 135q-219 26 -434.5 -74t-368.5 -286zM1212 1563l261 174q67 8 69 0 l68 -197q4 -12 -12 -12q-20 0 -25 12l-86 131q-202 -96 -227 -108q-16 -16 -41 -11q-16 3 -7 11z" />
<glyph unicode="&#x109;" horiz-adv-x="532" d="M77.5 134.5q-9.5 62.5 6 139t50.5 150t81 135.5q57 77 129 119.5t145 42.5q75 0 112.5 -38.5t29.5 -102.5q-6 -54 -55.5 -97.5t-81.5 -11.5q51 60 63 104q25 101 -41 101q-51 0 -110 -52t-109 -124q-38 -55 -75.5 -145t-37.5 -169q0 -68 29.5 -112.5t91.5 -44.5 q37 0 72 12.5t62 29.5t56.5 50t48 57.5t45 69.5t39 69t36.5 72q9 18 19.5 22t13.5 -6t-5 -30q-27 -58 -42.5 -89t-42 -79t-47 -73.5t-52 -57t-62.5 -47t-72.5 -26.5t-88.5 -11q-93 0 -145.5 40t-62 102.5zM262 827l305 217q76 10 78 0l74 -217q5 -11 -11 -12q-22 -1 -30 12 l-94 146q-244 -132 -271 -146q-18 -16 -45 -11q-16 4 -6 11z" />
<glyph unicode="&#x10a;" horiz-adv-x="1454" d="M131.5 486.5q4.5 98.5 24.5 197.5t54 187.5t79.5 164t97.5 127.5q-27 81 -31.5 175.5t23.5 191.5q4 13 15.5 20t20 0t3.5 -28q-27 -118 16 -303q159 164 376 238t456 52q281 -25 397 -162q89 -106 51 -239q-36 -129 -176 -224q-193 -129 -481 -124q-59 1 -119 8 q-356 39 -496 270q-14 -15 -37.5 -64t-51 -122.5t-49 -164t-35 -186.5t-5.5 -191.5t35.5 -176.5t91.5 -144t160 -93q163 -50 349 -27t337 113q64 38 114 81.5t90 100.5t66.5 104.5t65.5 126.5q11 24 24 19q14 -5 2 -34q-1 -2 -2 -5q-77 -158 -143.5 -250t-185.5 -176 q-110 -75 -233 -116.5t-272.5 -39t-291.5 63.5q-93 39 -162 106.5t-107.5 150t-56.5 178.5t-13.5 194.5zM481 1090q123 -252 488 -285q297 -26 488 94q132 82 166 202q35 119 -43 214q-91 111 -296 135q-219 26 -434.5 -74t-368.5 -286zM1399 1626q0 34 32 74.5t64 40.5 q22 0 35.5 -16t13.5 -37q0 -40 -31 -71.5t-69 -31.5q-20 0 -32.5 10.5t-12.5 30.5z" />
<glyph unicode="&#x10b;" horiz-adv-x="532" d="M77.5 134.5q-9.5 62.5 6 139t50.5 150t81 135.5q57 77 129 119.5t145 42.5q75 0 112.5 -38.5t29.5 -102.5q-6 -54 -55.5 -97.5t-81.5 -11.5q51 60 63 104q25 101 -41 101q-51 0 -110 -52t-109 -124q-38 -55 -75.5 -145t-37.5 -169q0 -68 29.5 -112.5t91.5 -44.5 q37 0 72 12.5t62 29.5t56.5 50t48 57.5t45 69.5t39 69t36.5 72q9 18 19.5 22t13.5 -6t-5 -30q-27 -58 -42.5 -89t-42 -79t-47 -73.5t-52 -57t-62.5 -47t-72.5 -26.5t-88.5 -11q-93 0 -145.5 40t-62 102.5zM512 887q0 34 32 74t64 40q22 0 35.5 -16t13.5 -37q0 -40 -31 -71 t-69 -31q-20 0 -32.5 10.5t-12.5 30.5z" />
<glyph unicode="&#x10c;" horiz-adv-x="1454" d="M122.5 457q0.5 128 33 248t87 224.5t124.5 174.5q-28 82 -32.5 175t23.5 191q4 13 15.5 20t20 0t3.5 -28q-27 -116 17 -303q160 164 376 238.5t455 52.5q281 -25 397 -162q89 -106 52 -239q-37 -130 -178 -224q-192 -130 -481 -124q-57 1 -117 8q-356 39 -496 270 q-17 -17 -44 -74.5t-54.5 -144t-49 -187t-20 -206t25.5 -197.5t93 -166t178 -108q163 -50 349 -27t337 113q64 38 114 81.5t90 100.5t66.5 104.5t65.5 126.5q11 24 24 19q14 -5 2 -34q-1 -2 -2 -5q-77 -158 -143.5 -250t-185.5 -176q-110 -75 -233 -116.5t-272.5 -39 t-291.5 63.5q-124 52 -205 148t-112.5 210t-31 242zM461 1030q123 -252 487 -285q296 -26 488 94q132 81 167 202q34 119 -43 214q-90 112 -296 136q-219 26 -434.5 -74.5t-368.5 -286.5zM1239 1726q-5 11 11 12q22 0 30 -12l94 -145q244 131 271 145q18 16 45 11 q16 -4 6 -11l-305 -217q-76 -10 -78 0z" />
<glyph unicode="&#x10d;" horiz-adv-x="532" d="M77.5 134.5q-9.5 62.5 6 139t50.5 150t81 135.5q57 77 129 119.5t145 42.5q75 0 112.5 -38.5t29.5 -102.5q-6 -54 -55.5 -97.5t-81.5 -11.5q51 60 63 104q25 101 -41 101q-51 0 -110 -52t-109 -124q-38 -55 -75.5 -145t-37.5 -169q0 -68 29.5 -112.5t91.5 -44.5 q37 0 72 12.5t62 29.5t56.5 50t48 57.5t45 69.5t39 69t36.5 72q9 18 19.5 22t13.5 -6t-5 -30q-27 -58 -42.5 -89t-42 -79t-47 -73.5t-52 -57t-62.5 -47t-72.5 -26.5t-88.5 -11q-93 0 -145.5 40t-62 102.5zM473 1143q-5 11 11 12q22 1 30 -12l94 -146q244 132 271 146 q18 16 45 11q16 -4 6 -11l-305 -217q-76 -10 -78 0z" />
<glyph unicode="&#x10e;" horiz-adv-x="2103" d="M23 178q39 78 144 107q118 32 273 -17q111 -38 312 -139q84 74 164.5 185t149 230.5t137 240.5t154 246t173.5 216q-154 85 -332.5 113.5t-372.5 -6.5q-278 -55 -446 -216q-122 -118 -136 -242q-13 -116 75 -177q31 -21 71 -33q91 -23 159.5 -6.5t115 59t70.5 84.5t26 70 q1 13 20 12q20 0 22 -20l-1 -8q-8 -55 -38.5 -102.5t-74 -78.5t-98 -51t-110.5 -19.5t-111 15.5q-134 44 -192 154q-61 118 -5 249q68 157 279 260q171 82 415 115q186 26 372 -4t349 -108q78 85 151.5 132t116.5 40q12 -3 15 -9t-2.5 -11t-12.5 -5q-25 0 -66.5 -43 t-67.5 -80.5t-46 -70.5q219 -135 333.5 -345.5t86.5 -470.5q-13 -125 -71.5 -222t-147 -155.5t-200 -94t-232.5 -41.5t-242.5 6.5t-233 44.5t-200.5 79q-226 -170 -512 -137q-163 18 -223 108q-47 70 -10 146zM142 98q9 -66 76 -99q38 -20 89 -22q210 -9 391 113 q-16 7 -56 26t-61.5 28.5t-56 24.5t-67.5 27t-68 23q-135 43 -206 -16q-50 -41 -41 -105zM817 94q98 -54 218.5 -83t242.5 -32t240 25t212.5 82t158 145.5t77.5 208.5q25 226 -67.5 420.5t-272.5 325.5q-60 -86 -228 -343.5t-285 -418t-218 -260.5q-47 -47 -78 -70z M1649 1729q-5 9 9 10q23 2 32 -10l94 -136q243 124 270 136q18 14 45 10q16 -3 6 -10l-305 -201q-76 -10 -78 0z" />
<glyph unicode="&#x10f;" horiz-adv-x="1341" d="M61.5 242q19.5 84 63 172t100.5 157q59 68 133 109t154 47t154 -37q139 263 237 486q29 67 58.5 89t80.5 17q3 0 36.5 -5t51.5 -3q-47 -44 -249.5 -419t-290.5 -583q-11 -26 -20 -55.5t-17 -70.5t4 -67t45 -26q23 0 48 15.5t50.5 47.5t45.5 59.5t45.5 74t36 66.5t29.5 59 q6 13 9 18q8 18 19.5 22.5t15 -5t-3.5 -29.5q-162 -381 -332 -381q-54 0 -92 55q-45 68 -18 181q-72 -118 -119 -165q-88 -87 -180 -63q-69 19 -91.5 84.5t-3 149.5zM159 113q12 -56 60 -50q69 9 156 132q108 150 274 462q-53 47 -134 4t-163 -135t-139 -196 q-72 -136 -54 -217zM1129.5 940q-2.5 12 17.5 18q61 20 105 67t51 112q-28 -21 -58 -21q-35 0 -55 24.5t-14 59.5q4 35 33 59.5t65 24.5q41 0 62.5 -33t21.5 -77q0 -48 -19.5 -89.5t-52 -70t-66 -47.5t-69.5 -31q-19 -8 -21.5 4z" />
<glyph unicode="&#x110;" horiz-adv-x="2103" d="M22 200q36 82 136 115q121 40 282 -16q85 -32 312 -152q139 134 299 426l-168 -18q-14 -2 -26 22.5t-6.5 50t32.5 25.5q117 0 211 -2q7 13 62.5 118.5t70.5 133t63.5 113.5t77.5 128.5t74 104t88 109.5q-153 92 -332.5 122.5t-372.5 -7.5q-273 -58 -440 -228 q-125 -126 -142 -262q-15 -125 71 -193q32 -25 75 -38q91 -25 159.5 -7.5t115 63.5t70.5 91t26 76q1 13 18 13q21 0 23 -21v-11q-11 -74 -54.5 -134.5t-104.5 -92.5t-133.5 -42.5t-139.5 15.5q-131 46 -190 162q-63 127 -9 269q64 168 270 280q174 94 426 131 q187 27 373.5 -5t347.5 -118q78 93 152 144.5t116 42.5q12 -3 15 -9.5t-2.5 -12t-12.5 -5.5q-25 0 -66 -46.5t-68 -88t-46 -76.5q218 -144 333 -371.5t87 -509.5q-11 -118 -58 -214t-118 -158.5t-162.5 -106t-193.5 -61t-210 -18t-212 17.5t-199.5 49.5t-173.5 75.5 q-228 -184 -512 -148q-161 19 -222 116q-48 76 -12 158zM142 116q9 -71 75 -108q38 -22 90 -24q211 -9 391 122q-24 12 -70.5 35t-76 37.5t-74.5 33.5t-88 34q-134 46 -206 -17q-50 -44 -41 -113zM817 111q98 -58 218.5 -90t242.5 -35.5t240 27t212.5 89t158 157.5t77.5 226 q25 244 -67.5 455t-272.5 352q-73 -114 -210.5 -341.5t-184.5 -303.5q15 0 49 -1t53 -1q32 -1 41 -25q8 -20 -15 -27l-18 -3q-57 0 -151 -4q-169 -265 -295 -402q-29 -32 -78 -73z" />
<glyph unicode="&#x111;" horiz-adv-x="751" d="M61.5 242q19.5 84 63 172t100.5 157q59 68 133 109t154 47t154 -37q47 90 133 262l-127 -14q-14 -2 -26 22.5t-6.5 50t32.5 25.5q96 0 166 -2l65 142q29 67 58.5 89t80.5 17q3 0 36.5 -5t51.5 -3q-31 -27 -153 -242q86 -4 145 -4q32 -1 41 -25q8 -20 -15 -27l-18 -3 q-102 0 -190 -6q-99 -179 -199 -377t-151 -318q-11 -26 -20 -55.5t-17 -70.5t4 -67t45 -26q23 0 48 15.5t50.5 47.5t45.5 59.5t45.5 74t36 66.5t29.5 59q6 13 9 18q8 18 19.5 22.5t15 -5t-3.5 -29.5q-162 -381 -332 -381q-54 0 -92 55q-45 68 -18 181q-72 -118 -119 -165 q-88 -87 -180 -63q-69 19 -91.5 84.5t-3 149.5zM159 113q12 -56 60 -50q69 9 156 132q108 150 274 462q-53 47 -134 4t-163 -135t-139 -196q-72 -136 -54 -217z" />
<glyph unicode="&#x112;" horiz-adv-x="1794" d="M48 179q-3 78 28.5 159t93.5 153.5t160.5 133.5t220.5 98q112 32 207 35q-46 16 -89 40.5t-80.5 57t-59 74t-17.5 84.5q9 101 78 189t172.5 147t226.5 99t243.5 53.5t219.5 2.5q115 -13 190.5 -50.5t103 -86t18.5 -105t-53 -108t-123 -95t-179 -65.5q-71 -16 -81 0 q-6 12 24 25q21 9 51 12q46 5 94 35.5t84 74.5t53 95t8.5 96t-59 79.5t-139.5 43.5q-161 16 -330.5 -27.5t-296.5 -141t-149 -222.5q-10 -58 4 -102.5t44.5 -70.5t71.5 -46t86 -30t87 -21.5t75 -21.5t50 -28.5t12 -44.5q-7 -23 -39.5 -30.5t-87 -6t-116.5 4t-143.5 -4 t-152.5 -26.5q-78 -22 -146 -69t-115.5 -107.5t-75 -131t-30.5 -140.5t25 -135t83 -114.5t151.5 -79.5t224.5 -30q220 0 434.5 82t362.5 197q120 94 156 181q35 83 -37 105q-3 1 -7 2q-49 12 -46 27t40 13q25 -1 49 -13q110 -59 88 -161t-160 -210q-153 -121 -394.5 -194.5 t-493.5 -73.5q-150 0 -269 32t-192.5 86t-114.5 126t-44 150zM1292 1679l27 62h436l-24 -62h-439z" />
<glyph unicode="&#x113;" horiz-adv-x="503" d="M63 188q-1 90 43.5 195.5t114.5 187.5q53 63 117 104.5t125.5 52t107.5 -22.5q57 -45 22.5 -134t-134.5 -165q-45 -34 -127 -62.5t-125 -28.5q-13 -31 -21 -75.5t-7 -92t25.5 -80t71.5 -32.5q187 0 338 350q11 25 30 29q13 2 12 -13q0 -7 -5 -18q-68 -146 -94 -191 q-102 -171 -243 -195q-26 -5 -54 -5q-81 0 -138.5 52t-58.5 144zM221 350q35 0 101 24.5t116 65.5q77 65 105 151q21 69 -8 88q-39 25 -136 -75q-27 -27 -55 -61q-74 -92 -123 -193zM293 918l26 61h437l-25 -61h-438z" />
<glyph unicode="&#x116;" horiz-adv-x="1794" d="M48 181q-3 78 28.5 159t93.5 153.5t160.5 133.5t220.5 98q112 32 207 35q-46 16 -89 40.5t-80.5 57t-59 74t-17.5 84.5q9 101 78 189t172.5 147t226.5 99t243.5 53.5t219.5 2.5q115 -13 190.5 -50.5t103 -86t18.5 -105t-53 -108t-123 -95t-179 -65.5q-71 -16 -81 0 q-6 12 24 25q21 9 51 12q46 5 94 35.5t84 74.5t53 95t8.5 96t-59 79.5t-139.5 43.5q-161 16 -330.5 -27.5t-296.5 -141t-149 -222.5q-10 -58 4 -102.5t44.5 -70.5t71.5 -46t86 -30t87 -21.5t75 -21.5t50 -28.5t12 -44.5q-7 -23 -39.5 -30.5t-87 -6t-116.5 4t-143.5 -4 t-152.5 -26.5q-78 -22 -146 -69t-115.5 -107.5t-75 -131t-30.5 -140.5t25 -135t83 -114.5t151.5 -79.5t224.5 -30q220 0 434.5 82t362.5 197q120 94 156 181q35 83 -37 105q-3 1 -7 2q-49 12 -46 27t40 13q25 -1 49 -13q110 -59 88 -161t-160 -210q-153 -121 -394.5 -194.5 t-493.5 -73.5q-150 0 -269 32t-192.5 86t-114.5 126t-44 150zM1468 1626q0 34 32.5 74.5t64.5 40.5q22 0 35.5 -16t13.5 -37q0 -40 -31.5 -71.5t-69.5 -31.5q-20 0 -32.5 10.5t-12.5 30.5z" />
<glyph unicode="&#x117;" horiz-adv-x="503" d="M63 188q-1 90 43.5 195.5t114.5 187.5q53 63 117 104.5t125.5 52t107.5 -22.5q57 -45 22.5 -134t-134.5 -165q-45 -34 -127 -62.5t-125 -28.5q-13 -31 -21 -75.5t-7 -92t25.5 -80t71.5 -32.5q187 0 338 350q11 25 30 29q13 2 12 -13q0 -7 -5 -18q-68 -146 -94 -191 q-102 -171 -243 -195q-26 -5 -54 -5q-81 0 -138.5 52t-58.5 144zM221 350q35 0 101 24.5t116 65.5q77 65 105 151q21 69 -8 88q-39 25 -136 -75q-27 -27 -55 -61q-74 -92 -123 -193zM506 934q0 34 32 74.5t64 40.5q22 0 35.5 -16t13.5 -38q0 -40 -31 -71t-69 -31 q-20 0 -32.5 10.5t-12.5 30.5z" />
<glyph unicode="&#x118;" horiz-adv-x="1794" d="M44 281q-3 78 28.5 159t93.5 153.5t160.5 133.5t220.5 98q112 32 207 35q-46 16 -89 40.5t-80.5 57t-59 74t-17.5 84.5q9 101 79.5 192.5t177 156t231 109.5t247.5 62t221 6q115 -13 190.5 -50.5t103 -85.5t18.5 -104.5t-53 -108t-123 -95t-179 -65.5q-73 -17 -81 1 q-5 10 23 22q21 10 52 13q46 5 94 35.5t84 74.5t53 95t8.5 96t-59 79.5t-139.5 43.5q-118 11 -251.5 -17.5t-246.5 -85t-195 -142.5t-99 -181q-10 -58 4 -102t44.5 -70t71.5 -46t86 -30.5t87 -21.5t75 -21t50 -28.5t12 -44.5q-8 -28 -60 -34.5t-120 -0.5t-170.5 0.5 t-188.5 -29.5q-78 -22 -146 -69t-115.5 -107.5t-75 -131t-30.5 -140.5t25 -135t83 -114.5t151.5 -79.5t224.5 -30q220 0 434 82t362 197q121 95 157 182q35 83 -37 105q-3 1 -7 2q-49 12 -46 27q3 14 40 12q25 -1 49 -13q110 -59 88 -160.5t-160 -209.5 q-140 -111 -357.5 -183t-449.5 -84q-90 -71 -164 -168t-77 -163q0 -68 59 -68q44 0 105 61q3 2 6.5 3t7 1t5.5 -3t1 -9q-7 -36 -64.5 -75t-129.5 -39q-41 0 -67.5 24t-25.5 68q1 52 51 126.5t114.5 137.5t123.5 102h-26q-150 0 -269 32t-192.5 86t-114.5 126t-44 150z" />
<glyph unicode="&#x119;" horiz-adv-x="503" d="M63 188q-1 90 43.5 195.5t114.5 187.5q53 63 117 104.5t125.5 52t107.5 -22.5q57 -45 22.5 -134t-134.5 -165q-45 -34 -127 -62.5t-125 -28.5q-13 -31 -21 -75.5t-7 -92t25.5 -80t71.5 -32.5q187 0 338 350q11 25 30 29q13 2 12 -13q0 -7 -5 -18q-3 -7 -21 -46.5t-24 -52 t-24 -47.5t-28.5 -51t-29.5 -44.5t-35.5 -45t-38 -35.5t-44.5 -32q-84 -70 -149.5 -160t-68.5 -152q0 -67 60 -67q43 0 104 61q3 2 6.5 3t7.5 1t6 -3t1 -9q-7 -36 -65 -75.5t-130 -39.5q-40 0 -66.5 24.5t-25.5 68.5q1 62 67.5 151t153.5 164q-28 -4 -47 -4q-81 0 -138.5 52 t-58.5 144zM221 350q35 0 101 24.5t116 65.5q77 65 105 151q21 69 -8 88q-39 25 -136 -75q-27 -27 -55 -61q-74 -92 -123 -193z" />
<glyph unicode="&#x11a;" horiz-adv-x="1794" d="M42 148q-3 78 28.5 159t93.5 153.5t160.5 133.5t220.5 98q112 32 207 35q-46 16 -89 40.5t-80.5 57t-59 74t-17.5 84.5q7 85 57.5 162t128 134t175 102.5t199.5 71.5t201 35.5t181 0.5q115 -13 190.5 -50.5t103 -86t18.5 -105t-53 -108t-123 -95t-179 -65.5 q-71 -16 -81 0q-6 12 24 25q22 9 51 12q46 5 94 35.5t84 74.5t53 95t8.5 96t-59 79.5t-139.5 43.5q-119 12 -249.5 -14t-241.5 -78.5t-190.5 -135.5t-96.5 -178q-10 -58 4 -102t44.5 -70t71.5 -46t86 -30.5t87 -21.5t75 -21t50 -28.5t12 -44.5q-8 -28 -60 -34.5t-120 -0.5 t-170.5 0.5t-188.5 -29.5q-78 -22 -146 -69t-115.5 -107.5t-75 -131t-30.5 -140.5t25 -135t83 -114.5t151.5 -79.5t224.5 -30q220 0 434 82t362 197q121 95 157 182q35 83 -37 105q-3 1 -7 2q-49 12 -46 27q3 14 40 12q25 -1 49 -13q110 -59 88 -160.5t-160 -209.5 q-154 -121 -395.5 -195t-492.5 -74q-150 0 -269 32t-192.5 86t-114.5 126t-44 150zM1354 1720q-3 7 8 9q20 1 29 -9l86 -112q220 100 245 112q17 13 43 7q6 -1 7 -3q0 -2 -3 -4l-278 -168q-68 -8 -70 0z" />
<glyph unicode="&#x11b;" horiz-adv-x="503" d="M63 188q-1 90 43.5 195.5t114.5 187.5q53 63 117 104.5t125.5 52t107.5 -22.5q57 -45 22.5 -134t-134.5 -165q-45 -34 -127 -62.5t-125 -28.5q-13 -31 -21 -75.5t-7 -92t25.5 -80t71.5 -32.5q187 0 338 350q11 25 30 29q13 2 12 -13q0 -7 -5 -18q-68 -146 -94 -191 q-102 -171 -243 -195q-26 -5 -54 -5q-81 0 -138.5 52t-58.5 144zM221 350q35 0 101 24.5t116 65.5q77 65 105 151q21 69 -8 88q-39 25 -136 -75q-27 -27 -55 -61q-74 -92 -123 -193zM434 1100q-5 11 11 12q22 1 30 -12l94 -146q244 132 271 146q18 16 45 11q16 -4 6 -11 l-305 -217q-76 -10 -78 0z" />
<glyph unicode="&#x11c;" horiz-adv-x="1486" d="M-79 -635q16 95 168 193q184 118 447 168q36 7 72 12q194 29 434 33q78 133 127 249.5t80 253.5l8 35q-29 -28 -67.5 -59t-95 -69t-116 -71t-132 -60.5t-142.5 -42.5t-147 -12.5t-147 25.5q-76 26 -132 86.5t-86 148t-34.5 193.5t23 231.5t85.5 252.5 q-71 79 -101.5 171.5t-8 194t103.5 187.5q19 22 32 18q15 -3 -9 -33q-86 -122 -80 -247.5t94 -233.5q6 15 39 74q71 121 179.5 215.5t229 149t246 76t236.5 3.5q206 -34 292 -163q74 -112 29 -248q-48 -142 -203 -240q-194 -122 -485 -127q-131 -3 -261 33.5t-218 99.5 q-81 -183 -100.5 -344.5t31 -276.5t167.5 -153q142 -40 289 -1t264.5 117.5t147.5 149.5q69 161 150 186q50 15 79 -27q19 -29 14 -67q-20 -160 -87.5 -317t-190.5 -358q244 -3 448 -54q40 -9 43 -27q2 -9 -12 -12q-16 -4 -47 3q-68 18 -200 28t-261 8 q-55 -79 -128.5 -152.5t-153.5 -130.5t-168.5 -106t-171.5 -79.5t-164 -50t-146 -17.5t-116 18q-165 60 -147 166zM37 -626q-49 -85 64 -117q9 -3 20 -5q70 -16 183 7.5t238.5 78.5t254 155t213.5 222q-215 -7 -377 -32q-195 -30 -389 -138q-161 -89 -207 -171zM403 911 q88 -69 219 -102.5t269 -20.5q276 30 447 172q126 105 145 227q18 119 -75 194q-65 52 -173 69q-124 19 -270.5 -28.5t-283.5 -155t-220 -250.5q-50 -88 -58 -105zM1169 1563l244 174q62 8 62 0l59 -174q4 -8 -8 -10q-19 -2 -25 10l-76 116q-195 -106 -215 -116 q-15 -13 -38 -8q-11 2 -3 8z" />
<glyph unicode="&#x11d;" horiz-adv-x="802" d="M-217 -489q0 131 178 235q90 53 185 92t203.5 74.5t156.5 54.5q34 99 47 228q13 126 2 167q-25 -47 -51 -91t-68.5 -101.5t-83.5 -95.5t-92 -59t-98 -7q-73 31 -97 99t-2.5 149t65 162.5t103.5 152.5q62 74 142 116.5t170 39.5t164 -61q41 -34 29 -66q-8 -21 -27 -19 q-16 4 -25 25q-25 69 -81 74.5t-119.5 -36t-129.5 -114.5q-76 -85 -131 -184t-66 -175t40 -103q43 -18 101 21.5t109 107t92 140t56 122.5q13 42 36.5 56t51.5 16t39 10q40 -245 -27 -498q96 69 144 133q30 40 53.5 82.5t43.5 86.5t22 48q9 18 20.5 21.5t14.5 -7t-5 -30.5 q-38 -78 -59 -119t-52 -93t-58 -81t-64 -58.5t-82 -50.5q-28 -79 -74 -163.5t-111 -167t-138.5 -147t-161 -104.5t-173.5 -40q-192 0 -192 158zM-154 -449q-40 -86 0 -129q25 -28 80 -28q59 0 134.5 35t123.5 71q87 71 185 201q74 106 116 207l-71 -25q-101 -34 -160 -56 t-145 -61t-146 -79q-78 -52 -117 -136zM315 797l306 217q75 10 77 0l74 -217q5 -11 -11 -12q-22 -1 -30 12l-94 145q-243 -131 -270 -145q-17 -15 -45 -11q-17 3 -7 11z" />
<glyph unicode="&#x11e;" horiz-adv-x="1486" d="M-79 -635q16 95 168 193q184 118 447 168q36 7 72 12q194 29 434 33q78 133 127 249.5t80 253.5l8 35q-29 -28 -67.5 -59t-95 -69t-116 -71t-132 -60.5t-142.5 -42.5t-147 -12.5t-147 25.5q-76 26 -132 86.5t-86 148t-34.5 193.5t23 231.5t85.5 252.5 q-71 79 -101.5 171.5t-8 194t103.5 187.5q19 22 32 18q15 -3 -9 -33q-86 -122 -80 -247.5t94 -233.5q6 15 39 74q95 162 241.5 278.5t308 166t308.5 26.5q206 -34 296 -166q79 -115 41 -256q-39 -147 -189 -249q-189 -129 -482 -134q-131 -3 -261 33.5t-218 99.5 q-81 -183 -100.5 -344.5t31 -276.5t167.5 -153q142 -40 289 -1t264.5 117.5t147.5 149.5q69 161 150 186q50 15 79 -27q19 -29 14 -67q-20 -160 -87.5 -317t-190.5 -358q244 -3 448 -54q40 -9 43 -27q2 -9 -12 -12q-16 -4 -47 3q-68 18 -200 28t-261 8 q-55 -79 -128.5 -152.5t-153.5 -130.5t-168.5 -106t-171.5 -79.5t-164 -50t-146 -17.5t-116 18q-165 60 -147 166zM37 -626q-49 -85 64 -117q9 -3 20 -5q70 -16 183 7.5t238.5 78.5t254 155t213.5 222q-215 -7 -377 -32q-195 -30 -389 -138q-161 -89 -207 -171zM403 911 q88 -69 219 -102.5t269 -20.5q272 29 436 175q121 109 135 237q14 124 -81 202q-68 57 -179 75q-185 28 -398 -105.5t-343 -355.5q-50 -88 -58 -105zM1214 1667q-7 39 1.5 56.5t23.5 17.5q7 0 11.5 -10t12 -27t17.5 -27q43 -41 113 -41q44 0 74.5 12.5t45.5 27t39 46.5 q13 16 30 11q9 -3 7 -13q-31 -66 -91 -103.5t-138 -37.5q-48 0 -93.5 23t-52.5 65z" />
<glyph unicode="&#x11f;" horiz-adv-x="802" d="M-217 -489q0 131 178 235q90 53 185 92t203.5 74.5t156.5 54.5q34 99 47 228q13 126 2 167q-25 -47 -51 -91t-68.5 -101.5t-83.5 -95.5t-92 -59t-98 -7q-73 31 -97 99t-2.5 149t65 162.5t103.5 152.5q62 74 142 116.5t170 39.5t164 -61q41 -34 29 -66q-8 -21 -27 -19 q-16 4 -25 25q-25 69 -81 74.5t-119.5 -36t-129.5 -114.5q-76 -85 -131 -184t-66 -175t40 -103q43 -18 101 21.5t109 107t92 140t56 122.5q13 42 36.5 56t51.5 16t39 10q40 -245 -27 -498q96 69 144 133q30 40 53.5 82.5t43.5 86.5t22 48q9 18 20.5 21.5t14.5 -7t-5 -30.5 q-38 -78 -59 -119t-52 -93t-58 -81t-64 -58.5t-82 -50.5q-28 -79 -74 -163.5t-111 -167t-138.5 -147t-161 -104.5t-173.5 -40q-192 0 -192 158zM-154 -449q-40 -86 0 -129q25 -28 80 -28q59 0 134.5 35t123.5 71q87 71 185 201q74 106 116 207l-71 -25q-101 -34 -160 -56 t-145 -61t-146 -79q-78 -52 -117 -136zM422 1030q-8 49 2.5 70.5t28.5 21.5q7 0 12.5 -8.5t9 -20t11.5 -26.5t18 -25q31 -30 62.5 -40.5t78.5 -10.5q42 0 72 7t53.5 25t36.5 32t37 45q16 20 36 14q11 -5 9 -16q-37 -82 -112 -129t-173 -47q-61 0 -117.5 28t-64.5 80z" />
<glyph unicode="&#x120;" horiz-adv-x="1486" d="M-79 -635q16 95 168 193q184 118 447 168q36 7 72 12q194 29 434 33q78 133 127 249.5t80 253.5l8 35q-29 -28 -67.5 -59t-95 -69t-116 -71t-132 -60.5t-142.5 -42.5t-147 -12.5t-147 25.5q-76 26 -132 86.5t-86 148t-34.5 193.5t23 231.5t85.5 252.5 q-71 79 -101.5 171.5t-8 194t103.5 187.5q19 22 32 18q15 -3 -9 -33q-86 -122 -80 -247.5t94 -233.5q6 15 39 74q95 162 241.5 278.5t308 166t308.5 26.5q206 -34 296 -166q79 -115 41 -256q-39 -147 -189 -249q-189 -129 -482 -134q-131 -3 -261 33.5t-218 99.5 q-81 -183 -100.5 -344.5t31 -276.5t167.5 -153q142 -40 289 -1t264.5 117.5t147.5 149.5q69 161 150 186q50 15 79 -27q19 -29 14 -67q-20 -160 -87.5 -317t-190.5 -358q244 -3 448 -54q40 -9 43 -27q2 -9 -12 -12q-16 -4 -47 3q-68 18 -200 28t-261 8 q-55 -79 -128.5 -152.5t-153.5 -130.5t-168.5 -106t-171.5 -79.5t-164 -50t-146 -17.5t-116 18q-165 60 -147 166zM37 -626q-49 -85 64 -117q9 -3 20 -5q70 -16 183 7.5t238.5 78.5t254 155t213.5 222q-215 -7 -377 -32q-195 -30 -389 -138q-161 -89 -207 -171zM403 911 q88 -69 219 -102.5t269 -20.5q272 29 436 175q121 109 135 237q14 124 -81 202q-68 57 -179 75q-185 28 -398 -105.5t-343 -355.5q-50 -88 -58 -105zM1247 1649q0 28 25.5 60t52.5 32q18 0 28.5 -13.5t10.5 -29.5q0 -32 -24.5 -57t-55.5 -25q-15 0 -26 9t-11 24z" />
<glyph unicode="&#x121;" horiz-adv-x="802" d="M-217 -489q0 131 178 235q90 53 185 92t203.5 74.5t156.5 54.5q34 99 47 228q13 126 2 167q-25 -47 -51 -91t-68.5 -101.5t-83.5 -95.5t-92 -59t-98 -7q-73 31 -97 99t-2.5 149t65 162.5t103.5 152.5q62 74 142 116.5t170 39.5t164 -61q41 -34 29 -66q-8 -21 -27 -19 q-16 4 -25 25q-25 69 -81 74.5t-119.5 -36t-129.5 -114.5q-76 -85 -131 -184t-66 -175t40 -103q43 -18 101 21.5t109 107t92 140t56 122.5q13 42 36.5 56t51.5 16t39 10q40 -245 -27 -498q96 69 144 133q30 40 53.5 82.5t43.5 86.5t22 48q9 18 20.5 21.5t14.5 -7t-5 -30.5 q-38 -78 -59 -119t-52 -93t-58 -81t-64 -58.5t-82 -50.5q-28 -79 -74 -163.5t-111 -167t-138.5 -147t-161 -104.5t-173.5 -40q-192 0 -192 158zM-154 -449q-40 -86 0 -129q25 -28 80 -28q59 0 134.5 35t123.5 71q87 71 185 201q74 106 116 207l-71 -25q-101 -34 -160 -56 t-145 -61t-146 -79q-78 -52 -117 -136zM582 958q0 34 32 74.5t64 40.5q22 0 35.5 -16t13.5 -37q0 -40 -31 -71t-69 -31q-20 0 -32.5 10.5t-12.5 29.5z" />
<glyph unicode="&#x122;" horiz-adv-x="1144" d="M-79 -481q16 95 168 192q184 118 448 168q35 7 71 12q194 29 434 33q78 133 127 249.5t80 254.5l8 35q-29 -28 -67.5 -59t-95 -69t-116 -71t-132 -60.5t-142.5 -42.5t-147 -12.5t-147 25.5q-76 26 -132 86.5t-86 148t-34.5 193t23 231t85.5 252.5q-71 79 -101.5 171.5 t-8 194t103.5 187.5q19 22 32 19q12 -5 -9 -33q-86 -122 -80 -247.5t94 -233.5q6 15 39 74q95 162 241.5 278.5t308 166t308.5 26.5q206 -34 296 -166q79 -115 41 -256q-39 -147 -189 -249q-189 -129 -482 -134q-131 -3 -261 33.5t-218 99.5q-81 -183 -100.5 -344.5 t31 -276.5t167.5 -153q142 -40 289 -1t264.5 117.5t147.5 149.5q69 161 150 186q50 15 79 -27q19 -29 14 -67q-20 -160 -87.5 -317.5t-190.5 -358.5q249 -3 448 -53q38 -9 43 -26q3 -11 -13.5 -14.5t-45.5 3.5q-68 18 -201 28.5t-260 8.5q-55 -79 -128.5 -152.5 t-153.5 -130.5t-168.5 -106t-171.5 -79.5t-164 -50t-146 -17.5t-116 18q-165 60 -147 166zM36 -473q-48 -84 65 -116q9 -3 20 -5q70 -16 183 7.5t238.5 78.5t254 155t213.5 222q-207 -6 -377 -33q-195 -30 -389 -137q-162 -90 -208 -172zM403 1065q88 -69 219 -102.5 t269 -20.5q271 29 435 174q121 108 136 236q14 124 -81 203q-67 57 -179 75q-185 28 -398 -105.5t-343 -355.5q-52 -91 -58 -104zM623.5 -804q-1.5 9 11.5 13q44 13 75.5 46.5t37.5 80.5q-21 -14 -41 -14q-26 0 -41.5 17.5t-10.5 42.5q3 26 24 43.5t46 17.5q32 0 49 -20 t17 -50q0 -66 -48.5 -113.5t-105.5 -66.5q-12 -6 -13.5 3z" />
<glyph unicode="&#x123;" horiz-adv-x="802" d="M-217 -489q0 131 178 235q90 53 185 92t203.5 74.5t156.5 54.5q34 99 47 228q13 126 2 167q-25 -47 -51 -91t-68.5 -101.5t-83.5 -95.5t-92 -59t-98 -7q-73 31 -97 99t-2.5 149t65 162.5t103.5 152.5q62 74 142 116.5t170 39.5t164 -61q41 -34 29 -66q-8 -21 -27 -19 q-16 4 -25 25q-25 69 -81 74.5t-119.5 -36t-129.5 -114.5q-76 -85 -131 -184t-66 -175t40 -103q43 -18 101 21.5t109 107t92 140t56 122.5q13 42 36.5 56t51.5 16t39 10q40 -245 -27 -498q96 69 144 133q30 40 53.5 82.5t43.5 86.5t22 48q9 18 20.5 21.5t14.5 -7t-5 -30.5 q-38 -78 -59 -119t-52 -93t-58 -81t-64 -58.5t-82 -50.5q-28 -79 -74 -163.5t-111 -167t-138.5 -147t-161 -104.5t-173.5 -40q-192 0 -192 158zM-154 -449q-40 -86 0 -129q25 -28 80 -28q59 0 134.5 35t123.5 71q87 71 185 201q74 106 116 207l-71 -25q-101 -34 -160 -56 t-145 -61t-146 -79q-78 -52 -117 -136zM539 971q0 82 60 141t132 84q16 6 18 -5q2 -10 -14 -14q-1 -1 -2 -1q-55 -19 -94 -60.5t-45 -99.5q25 18 51 18q32 0 50.5 -22.5t13.5 -53.5q-4 -32 -30.5 -53.5t-57.5 -21.5q-39 0 -60.5 25t-21.5 63z" />
<glyph unicode="&#x124;" horiz-adv-x="2828" d="M-5.5 101.5q-24.5 123.5 13.5 277.5q25 93 110 175.5t140 84.5q20 0 24.5 -5.5t-2.5 -12.5t-18 -11q-61 -26 -127 -116.5t-82 -206.5q-14 -107 14 -195t85.5 -145t135 -96.5t164 -55.5t171 -16t157.5 16q695 157 977 899q-54 0 -123 -32q-55 -24 -63 -5q-3 8 8 27 q15 25 52 49.5t75 28.5h80q66 167 156.5 363t142.5 300q-48 -5 -121.5 -11.5t-126.5 -11t-123.5 -13t-123 -19t-116 -28.5t-111 -41t-98 -57.5t-88 -77.5t-70 -101t-54.5 -127q-21 -66 -19 -128t23.5 -108t59.5 -77.5t90 -36t114 15.5q43 16 79.5 55.5t57 85.5t35.5 94.5 t14.5 82t-6.5 47.5q-16 23 -1 31q14 7 25 -12q2 -2 3 -5q37 -88 14.5 -172.5t-83.5 -151.5t-136 -94q-60 -22 -120.5 -20t-110 25.5t-92 63t-66 93t-32 115t10.5 129.5q19 76 55 139t81 108.5t105.5 82t121.5 60.5t137 42t142.5 27t148 16.5t144.5 11t139.5 8t126.5 9.5 q21 38 68 94t89 69q47 13 82 -1.5t35 -55.5q0 -45 -44.5 -81t-98.5 -53t-99 -17q-35 -67 -91 -209t-111 -292t-62 -167q153 0 396 -17.5t298 -17.5q15 43 43 113t81 191t105 221.5t112 183.5t106 98q81 29 117 27q24 -2 -21 -25q-16 -8 -60.5 -69.5t-103.5 -160.5 t-131 -254.5t-129 -322.5q125 0 164 14q30 11 36 3t-20 -27q-66 -46 -198 -55q-1 -4 -32.5 -100t-48 -157t-37 -151t-17.5 -151t28 -89q21 -22 51 -23t64 23q115 86 256 371q11 21 23.5 27t15 -5.5t-7.5 -35.5q-76 -162 -126.5 -238t-123.5 -147q-54 -53 -116 -68t-116 12 q-30 15 -48.5 45t-23.5 71t-4 84.5t12 98.5t22 100.5t29.5 102t30.5 91.5t28.5 80.5t21.5 58.5q-90 0 -694 26q-49 -146 -120.5 -283.5t-171 -265.5t-215 -227.5t-259 -167.5t-297.5 -88q-140 -18 -274.5 3t-244.5 78t-186.5 148t-101 214.5zM2183 1481q122 19 131 65 q4 22 -15 31q-3 2 -7 2q-23 12 -109 -98zM2521 1569l236 168q59 8 61 0l55 -168q4 -9 -9 -9q-16 0 -21 9l-74 112q-187 -100 -207 -112q-14 -13 -37 -7q-11 2 -4 7z" />
<glyph unicode="&#x125;" horiz-adv-x="679" d="M-82 -14q15 30 71.5 147.5t80 166t75.5 155.5t85 173.5t79.5 158t88.5 171.5t83 156q40 72 70 102t76 27q4 0 36.5 -5t49.5 -3q-62 -63 -220.5 -351.5t-304.5 -584.5q91 116 166 180q84 75 207.5 142.5t171.5 50.5q-25 -43 -62 -111t-104.5 -211t-79.5 -207 q-20 -104 31 -108q33 -2 75 38.5t84.5 109t67.5 115t50 97.5q13 26 27 21q15 -6 3 -36q-1 -2 -2 -5q-83 -171 -133 -243q-99 -139 -198 -140q-30 0 -56 10.5t-48.5 37.5t-23.5 73.5t19 117.5q19 64 113 215q33 54 14 74q-24 26 -114 -46q-21 -17 -46 -40 q-146 -131 -287 -405q-10 -20 -25 -25.5t-50 -5.5q-5 0 -20 -1t-20 -1.5t-14 -3t-16 -6.5zM444 1370l306 217q75 10 77 0l74 -217q5 -11 -11 -12q-22 -1 -30 12l-94 146q-243 -132 -270 -146q-17 -15 -45 -11q-17 3 -7 11z" />
<glyph unicode="&#x126;" horiz-adv-x="2828" d="M-5.5 101.5q-24.5 123.5 13.5 277.5q25 93 110 175.5t140 84.5q20 0 24.5 -5.5t-2.5 -12.5t-18 -11q-61 -26 -127 -116.5t-82 -206.5q-14 -107 14 -195t85.5 -145t135 -96.5t164 -55.5t171 -16t157.5 16q695 157 977 899q-54 0 -123 -32q-55 -24 -63 -5q-3 8 8 27 q15 25 52 49.5t75 28.5h80q74 183 135 319h-405l20 82h424q86 188 125 262q-48 -5 -121.5 -11.5t-126.5 -11t-123.5 -13t-123 -19t-116 -28.5t-111 -41t-98 -57.5t-88 -77.5t-70 -101t-54.5 -127q-21 -66 -19 -128t23.5 -108t59.5 -77.5t90 -36t114 15.5q43 16 79.5 55.5 t57 85.5t35.5 94.5t14.5 82t-6.5 47.5q-16 23 -1 31q14 7 25 -12q2 -2 3 -5q37 -88 14.5 -172.5t-83.5 -151.5t-136 -94q-60 -22 -120.5 -20t-110 25.5t-92 63t-66 93t-32 115t10.5 129.5q19 76 55 139t81 108.5t105.5 82t121.5 60.5t137 42t142.5 27t148 16.5t144.5 11 t139.5 8t126.5 9.5q21 38 68 94t89 69q47 13 82 -1.5t35 -55.5q0 -45 -44.5 -81t-98.5 -53t-99 -17q-41 -77 -114 -267h729q160 336 262 371q81 29 117 27q24 -2 -21 -25q-24 -12 -93.5 -116t-148.5 -257h328l-18 -82h-348q-85 -181 -144 -352q125 0 164 14q30 11 36 3 t-20 -27q-66 -46 -198 -55q-1 -4 -32.5 -100t-48 -157t-37 -151t-17.5 -151t28 -89q21 -22 51 -23t64 23q115 86 256 371q11 21 23.5 27t15 -5.5t-7.5 -35.5q-76 -162 -126.5 -238t-123.5 -147q-54 -53 -116 -68t-116 12q-30 15 -48.5 45t-23.5 71t-4 84.5t12 98.5t22 100.5 t29.5 102t30.5 91.5t28.5 80.5t21.5 58.5q-90 0 -694 26q-49 -146 -120.5 -283.5t-171 -265.5t-215 -227.5t-259 -167.5t-297.5 -88q-140 -18 -274.5 3t-244.5 78t-186.5 148t-101 214.5zM1882 762q153 0 396 -17.5t298 -17.5q35 108 146 354h-721zM2183 1481q122 19 131 65 q4 22 -15 31q-3 2 -7 2q-23 12 -109 -98z" />
<glyph unicode="&#x127;" horiz-adv-x="679" d="M-82 -14q321 670 494 999h-158l27 41h151l49 88q40 72 70 102t76 27q4 0 36.5 -5t49.5 -3q-41 -41 -140 -209h138l-25 -41h-137q-178 -311 -361 -686q91 116 166 180q84 75 207.5 142.5t171.5 50.5q-25 -43 -62 -111t-104.5 -211t-79.5 -207q-20 -104 31 -108 q33 -2 75 38.5t84.5 109t67.5 115t50 97.5q13 26 27 21q15 -6 3 -36q-1 -2 -2 -5q-83 -171 -133 -243q-99 -139 -198 -140q-30 0 -56 10.5t-48.5 37.5t-23.5 73.5t19 117.5q19 64 113 215q33 54 14 74q-24 26 -114 -46q-21 -17 -46 -40q-146 -131 -287 -405 q-10 -20 -25 -25.5t-50 -5.5q-5 0 -20 -1t-20 -1.5t-14 -3t-16 -6.5z" />
<glyph unicode="&#x128;" horiz-adv-x="1902" d="M-35.5 -104q-11.5 122 43.5 276q36 95 131 180t150 88q15 1 21 -2t3.5 -7.5t-8.5 -9.5t-14 -9q-64 -28 -141.5 -121t-106.5 -209q-27 -111 -5 -198.5t79 -151.5t139 -106t175.5 -62t188 -19.5t177.5 21.5q123 31 239 90t208 131t176.5 161t147 175.5t117 179t89.5 167.5 t61 144q79 209 166.5 389.5t140.5 272.5q-75 -16 -129 -29t-133.5 -34.5t-139 -42.5t-133 -52.5t-128.5 -65.5t-113 -79.5t-99 -96t-73.5 -115t-48.5 -136.5q-34 -150 37.5 -232.5t201.5 -32.5q75 30 121.5 87.5t58 113.5t9 100.5t-16.5 57.5q-4 5 4 17t19 15t20 -14 q58 -112 -12.5 -243.5t-200.5 -180.5q-64 -25 -128 -23t-114 27t-88 69.5t-49.5 105t1.5 133.5q17 78 55.5 149t89.5 127t119.5 106.5t138 88t154 71.5t159 57.5t161 44.5t151.5 34t139 26q18 37 66.5 95t91.5 73q46 15 80.5 2.5t35.5 -51.5q1 -56 -40 -86.5t-117 -56.5 q-13 0 -45.5 -9.5t-40.5 -9.5q-67 -123 -121.5 -266.5t-91.5 -266t-80 -248t-110 -256t-158 -247.5q-165 -212 -372.5 -338t-436.5 -164q-173 -29 -327 -16.5t-270 64t-189.5 139t-85 209.5zM2118 1597q78 134 170 127q39 -2 108 -30t101 -31q63 -5 96 59q2 8 26 3 q9 -2 9 -5q-71 -144 -170 -137q-37 3 -105.5 33.5t-103.5 32.5q-60 6 -90 -56q-4 -10 -29 -4q-12 4 -12 8zM2241 1337q127 26 134 72q3 20 -16 29q-4 2 -8 2q-21 9 -110 -103z" />
<glyph unicode="&#x129;" horiz-adv-x="356" d="M25 182.5q6 45.5 26 83.5l178 340q40 77 51.5 88t59.5 11h104q-4 -4 -20 -15t-30.5 -25.5t-24.5 -33.5q-158 -257 -213 -398q-21 -45 -25 -59q-36 -124 43 -129q22 -3 47.5 9.5t42.5 29.5q84 82 193 309q12 25 26 21q14 -5 2 -34q-1 -2 -2 -5q-78 -168 -132 -244 q-94 -131 -189 -131q-54 0 -88.5 27.5t-44.5 68.5t-4 86.5zM190 838q78 134 170 127q39 -2 108 -30.5t101 -31.5q63 -5 97 60q2 8 25 3q9 -2 9 -5q-71 -145 -170 -138q-37 3 -105 33.5t-103 32.5q-31 3 -54.5 -12.5t-36.5 -42.5q-4 -10 -29 -4q-13 3 -12 8z" />
<glyph unicode="&#x12a;" horiz-adv-x="1902" d="M-35.5 -104q-11.5 122 43.5 276q36 95 131 180t150 88q15 1 21 -2t3.5 -7.5t-8.5 -9.5t-14 -9q-64 -28 -141.5 -121t-106.5 -209q-27 -111 -5 -198.5t79 -151.5t139 -106t175.5 -62t188 -19.5t177.5 21.5q123 31 239 90t208 131t176.5 161t147 175.5t117 179t89.5 167.5 t61 144q79 209 166.5 389.5t140.5 272.5q-75 -16 -129 -29t-133.5 -34.5t-139 -42.5t-133 -52.5t-128.5 -65.5t-113 -79.5t-99 -96t-73.5 -115t-48.5 -136.5q-34 -150 37.5 -232.5t201.5 -32.5q75 30 121.5 87.5t58 113.5t9 100.5t-16.5 57.5q-4 5 4 17t19 15t20 -14 q58 -112 -12.5 -243.5t-200.5 -180.5q-64 -25 -128 -23t-114 27t-88 69.5t-49.5 105t1.5 133.5q17 78 55.5 149t89.5 127t119.5 106.5t138 88t154 71.5t159 57.5t161 44.5t151.5 34t139 26q18 37 66.5 95t91.5 73q46 15 80.5 2.5t35.5 -51.5q1 -56 -40 -86.5t-117 -56.5 q-13 0 -45.5 -9.5t-40.5 -9.5q-67 -123 -121.5 -266.5t-91.5 -266t-80 -248t-110 -256t-158 -247.5q-165 -212 -372.5 -338t-436.5 -164q-173 -29 -327 -16.5t-270 64t-189.5 139t-85 209.5zM2128 1630l26 62h437l-25 -62h-438zM2241 1337q127 26 134 72q3 20 -16 29 q-4 2 -8 2q-21 9 -110 -103z" />
<glyph unicode="&#x12b;" horiz-adv-x="356" d="M25 182.5q6 45.5 26 83.5l178 340q40 77 51.5 88t59.5 11h104q-4 -4 -20 -15t-30.5 -25.5t-24.5 -33.5q-158 -257 -213 -398q-21 -45 -25 -59q-36 -124 43 -129q22 -3 47.5 9.5t42.5 29.5q84 82 193 309q12 25 26 21q14 -5 2 -34q-1 -2 -2 -5q-78 -168 -132 -244 q-94 -131 -189 -131q-54 0 -88.5 27.5t-44.5 68.5t-4 86.5zM221 860l25 55h403l-22 -55h-406z" />
<glyph unicode="&#x12e;" horiz-adv-x="1902" d="M35 -73.5q-57 152.5 22 370.5q36 95 131 180t150 88q15 1 21 -2t3.5 -7.5t-8.5 -9.5t-14 -9q-64 -28 -141.5 -121t-106.5 -209q-27 -111 -5 -198.5t79 -151.5t139 -106t175.5 -62t188 -19.5t177.5 21.5q123 31 239 90t208 131t176.5 161t147 175.5t117 179t89.5 167.5 t61 144q29 77 59 147.5t51.5 117.5t48.5 97.5t39.5 72.5t34.5 59.5t25 42.5q-75 -16 -129 -29t-133.5 -34.5t-139 -42.5t-133 -52.5t-128.5 -65.5t-113 -79.5t-99 -96t-73.5 -115t-48.5 -136.5q-34 -150 37.5 -232.5t201.5 -32.5q75 30 121.5 87.5t58 113.5t9 100.5 t-16.5 57.5q-4 5 4 17t19 15t20 -14q58 -112 -12.5 -243.5t-200.5 -180.5q-64 -25 -128 -23t-114 27t-88 69.5t-49.5 105t1.5 133.5q17 78 55.5 149t89.5 127t119.5 106.5t138 88t154 71.5t159 57.5t161 44.5t151.5 34t139 26q18 37 66.5 95t91.5 73q46 15 80.5 2.5 t35.5 -51.5q1 -56 -40 -86.5t-117 -56.5q-13 0 -45.5 -9.5t-40.5 -9.5q-99 -184 -199 -516q-51 -164 -122.5 -313.5t-173 -290t-222.5 -249t-276 -186t-328 -106.5q-102 -15 -197 -18q-80 -73 -140 -157.5t-61 -141.5q0 -68 60 -68q42 0 104 62q4 2 9 3.5t9.5 -1.5t2.5 -11 q-7 -35 -65 -73.5t-130 -38.5q-41 0 -67 23t-25 67q1 68 77.5 165.5t168.5 170.5q-226 3 -382.5 85t-213.5 234.5zM2241 1337q127 26 134 72q3 20 -16 29q-4 2 -8 2q-21 9 -110 -103z" />
<glyph unicode="&#x12f;" horiz-adv-x="356" d="M-115 -352q3 73 90.5 180t180.5 172q-47 5 -75.5 32.5t-35 67.5t-1 83t21.5 83l131 334q16 39 -21 86l113 2q47 0 55 -17.5t-12 -54.5l-164 -383q-21 -45 -25 -59q-33 -124 43 -129q42 -5 93 39q77 77 192 309q10 24 24 21t7 -29l-4 -10q-78 -166 -131 -240 q-77 -107 -152 -129q-86 -73 -155 -165.5t-72 -155.5q0 -68 59 -68q44 0 105 61q3 2 6.5 3t7 1t5.5 -3t1 -9q-7 -36 -65 -75t-130 -39q-40 0 -66.5 24t-25.5 68zM262 856q6 35 35 59.5t63 24.5q35 0 56.5 -24.5t15.5 -59.5t-34.5 -59.5t-63.5 -24.5t-56 24.5t-16 59.5z" />
<glyph unicode="&#x130;" horiz-adv-x="1902" d="M-35.5 -102q-11.5 122 43.5 276q36 95 131 180t150 88q15 1 21 -2t3.5 -7.5t-8.5 -9.5t-14 -9q-64 -28 -141.5 -121t-106.5 -209q-27 -111 -5 -198.5t79 -151.5t139 -106t175.5 -62t188 -19.5t177.5 21.5q123 31 239 90t208 131t176.5 161t147 175.5t117 179t89.5 167.5 t61 144q79 209 166.5 389.5t140.5 272.5q-75 -16 -129 -29t-133.5 -34.5t-139 -42.5t-133 -52.5t-128.5 -65.5t-113 -79.5t-99 -96t-73.5 -115t-48.5 -136.5q-34 -150 37.5 -232.5t201.5 -32.5q75 30 121.5 87.5t58 113.5t9 100.5t-16.5 57.5q-4 5 4 17t19 15t20 -14 q58 -112 -12.5 -243.5t-200.5 -180.5q-64 -25 -128 -23t-114 27t-88 69.5t-49.5 105t1.5 133.5q17 78 55.5 149t89.5 127t119.5 106.5t138 88t154 71.5t159 57.5t161 44.5t151.5 34t139 26q18 37 66.5 95t91.5 73q46 15 80.5 2.5t35.5 -51.5q1 -56 -40 -86.5t-117 -56.5 q-13 0 -45.5 -9.5t-40.5 -9.5q-67 -123 -121.5 -266.5t-91.5 -266t-80 -248t-110 -256t-158 -247.5q-165 -212 -372.5 -338t-436.5 -164q-173 -29 -327 -16.5t-270 64t-189.5 139t-85 209.5zM2175 1626q0 34 32 74.5t64 40.5q22 0 35.5 -16t13.5 -37q0 -40 -31 -71.5 t-69 -31.5q-20 0 -32.5 10.5t-12.5 30.5zM2241 1339q127 26 134 72q3 20 -16 29q-4 2 -8 2q-21 9 -110 -103z" />
<glyph unicode="&#x131;" horiz-adv-x="356" d="M25 182.5q6 45.5 26 83.5l178 340q40 77 51.5 88t59.5 11h104q-4 -4 -20 -15t-30.5 -25.5t-24.5 -33.5q-158 -257 -213 -398q-21 -45 -25 -59q-36 -124 43 -129q22 -3 47.5 9.5t42.5 29.5q84 82 193 309q12 25 26 21q14 -5 2 -34q-1 -2 -2 -5q-78 -168 -132 -244 q-94 -131 -189 -131q-54 0 -88.5 27.5t-44.5 68.5t-4 86.5z" />
<glyph unicode="&#x134;" horiz-adv-x="2043" d="M-111 -379.5q-6 123.5 56 277.5q39 93 137.5 175.5t153.5 84.5q26 1 24 -8q-3 -10 -27 -21q-65 -26 -145.5 -116.5t-112.5 -205.5q-27 -96 -17 -175.5t50 -142t101 -108.5t137 -76.5t157 -45t162 -14t152 15.5q510 114 883 708q132 210 293 571q52 116 57 126 q160 355 327 622q-74 -12 -154.5 -33t-170 -54t-173.5 -74.5t-163.5 -96.5t-142 -116.5t-105.5 -138.5t-57 -159q-22 -145 43.5 -222.5t191.5 -31.5q62 22 106.5 63.5t64 86t28 88.5t4.5 75t-14 42q-21 13 -8 27q14 15 36 2q8 -4 15 -13q31 -83 8 -166t-89.5 -153.5 t-152.5 -100.5q-66 -20 -126 -19.5t-110 28t-84 70t-47.5 104.5t-2.5 133q16 98 68 185.5t125 154.5t169 124t194.5 97t205.5 71.5t198.5 50t177.5 29.5q23 40 72.5 95.5t93.5 68.5q46 14 80.5 0t34.5 -53q-1 -30 -14.5 -53t-40.5 -39.5t-50 -25.5t-61 -21q-13 0 -46.5 -8.5 t-41.5 -8.5q-72 -124 -136 -278.5t-115 -303.5t-107.5 -305.5t-139 -331.5t-184.5 -333q-69 -107 -162 -196t-187 -148t-199 -103t-193 -67t-175 -35q-174 -24 -327 -7t-266.5 72.5t-183 146t-75.5 214zM2257 1518l305 217q76 10 78 0l74 -217q5 -11 -11 -12q-22 -1 -30 12 l-95 145q-243 -131 -270 -145q-18 -16 -45 -11q-16 4 -6 11zM2376 1348q129 22 138 68q4 19 -13 28q-3 2 -7 2q-7 3 -17 -1.5t-25.5 -19t-24.5 -23t-28.5 -30t-22.5 -24.5z" />
<glyph unicode="&#x135;" horiz-adv-x="362" d="M-805.5 -534.5q-6.5 32.5 1 67.5t26.5 70q53 104 192 168q61 30 142.5 54t194 51.5t161.5 41.5q46 79 65 119q21 43 144 295q-12 0 -19.5 7.5t0.5 25.5l109 235q18 37 -21 86l113 2q47 0 55 -17.5t-12 -54.5l-164 -383q-52 -120 -127 -270q50 19 71 27.5t60 28t61.5 38 t52 49.5t56.5 70q23 33 45 70.5t33.5 59t27 53.5t17.5 36q12 25 26 21q15 -3 7 -29l-4 -10q-40 -82 -64 -128t-58 -98.5t-64 -81.5t-75 -62t-98.5 -57.5t-128.5 -51.5q-46 -83 -86.5 -147t-104.5 -143t-126.5 -131t-146 -88t-170.5 -36q-59 0 -101 15t-63 40t-27.5 57.5z M-754 -558q20 -48 90 -48q63 0 138 40.5t142.5 104t119.5 122.5t92 116q22 32 45 76q-14 -4 -99.5 -26t-123 -32.5t-99 -30.5t-102.5 -38q-114 -49 -175 -145q-51 -82 -28 -139zM66 797l305 217q76 10 78 0l73 -217q5 -11 -11 -12q-22 -1 -30 12l-94 145 q-243 -131 -270 -145q-18 -16 -45 -11q-16 4 -6 11z" />
<glyph unicode="&#x136;" horiz-adv-x="2443" d="M0 101q-29 124 8 278q18 68 66.5 126.5t94 87.5t75.5 32q15 2 21.5 -3.5t3.5 -13.5t-11 -12q-17 -7 -44.5 -30t-61.5 -60.5t-62 -96t-37 -122.5q-12 -92 6.5 -171.5t60.5 -136.5t101.5 -101t129 -69.5t143.5 -38.5t145 -12t133 15q121 28 231 78.5t195.5 111t164 141 t135 155t112 167.5t90.5 164t74 158q220 495 311 677q-43 -5 -139.5 -13.5t-158 -15t-146 -20.5t-150.5 -33q-245 -68 -369 -249q-94 -136 -86 -281q6 -124 84 -182q80 -61 201 -17q65 24 109.5 92t59 146t1.5 145q-2 12 8 12q18 -2 29 -26q25 -76 7.5 -156.5t-73.5 -151.5 t-127 -97q-156 -57 -278 23q-101 66 -133 193q-37 149 43 294q105 189 372 281q61 21 127 36q100 22 210.5 35t257 22.5t180.5 12.5q21 38 68 94t89 69q67 20 103 -18q32 -34 7 -81q-37 -72 -174 -100l-61 -9q-52 -94 -106.5 -229.5t-96 -263t-98.5 -275t-114.5 -275 t-143.5 -252.5t-185.5 -219t-240.5 -162.5t-309 -93.5q-139 -21 -279 -1.5t-257.5 76.5t-202 149.5t-113.5 216.5zM1473 -658q-3 11 14 16q1 1 2 1q55 19 94 60.5t45 99.5q-27 -19 -51 -19q-32 0 -50.5 22.5t-13.5 53.5q4 32 31 54t58 22q39 0 60 -25t21 -63 q0 -82 -60 -141.5t-132 -84.5q-14 -6 -18 4zM1820 533q4 35 15 40q46 -4 164.5 48.5t284 156.5t339.5 238t350 315.5t296 366.5q22 34 42 38t22 -16.5t-13 -48.5q-118 -196 -301 -394t-373 -348.5t-374.5 -257.5t-317.5 -141q-8 -10 -2 -73t42 -191t83 -235 q138 -320 366 -320q130 0 250 55.5t174 159.5q10 25 25 29q12 2 12 -11q1 -13 -10 -34q-56 -114 -194 -200.5t-267 -86.5q-161 0 -290.5 106t-207.5 277q-33 73 -58 154.5t-37.5 150.5t-18 128t-1.5 94zM2183 1481q59 9 90 24q51 24 55 57q3 22 -18 24q-20 3 -47 -19 q-27 -20 -80 -86z" />
<glyph unicode="&#x137;" horiz-adv-x="706" d="M-52 82q-5 12 3 24q58 77 167 285t227.5 437t191.5 337q71 104 137 101h10q4 0 36.5 -6.5t49.5 -2.5q-75 -58 -209 -264t-242 -420q-45 -88 -73 -174q188 232 334 287q77 27 125 23t63.5 -34t9 -69.5t-37 -84.5t-76.5 -77q-50 -35 -97 -54t-110 -25q-39 -94 -14 -192.5 t91.5 -121t163.5 67.5q66 71 166 280q11 23 24 16q14 -8 3 -34q-47 -108 -93.5 -185t-85.5 -118.5t-81.5 -63.5t-74.5 -26t-73 0q-57 6 -99.5 51.5t-57.5 122.5q-17 91 19.5 161t76.5 74q34 -3 80.5 15t81.5 47q61 49 59 99q-2 40 -44 48q-75 13 -201 -91l-11 -9 q-96 -86 -168 -187q-32 -60 -56.5 -179.5t-0.5 -139.5h-129q-20 0 -22.5 12.5t5.5 32.5q17 63 43 126.5t66 146t59 126.5q-167 -317 -217 -364q-13 -11 -19 2zM58 -447q-3 11 14 16q1 1 2 1q55 19 94 60.5t45 99.5q-27 -19 -51 -19q-32 0 -50.5 22.5t-13.5 53.5 q4 32 30.5 54t57.5 22q39 0 60.5 -25t21.5 -63q0 -82 -60 -141.5t-132 -84.5q-14 -6 -18 4z" />
<glyph unicode="&#x138;" horiz-adv-x="706" d="M-76 -14q251 541 303 647q34 71 66.5 101.5t79.5 27.5l49 -8l-19 -37q-44 -83 -167 -330q78 99 169 183t175 116q150 55 190 -12q19 -49 -12.5 -86t-77.5 -25q-1 17 -15 29t-40 15t-58.5 -3.5t-75 -27t-85.5 -54.5q-69 -198 -23 -342q31 -100 103 -125q84 -29 171 62l2 2 q66 71 166 280q11 23 24 16q14 -8 3 -34q-47 -108 -93.5 -185t-85.5 -118.5t-81.5 -63.5t-74.5 -26t-73 0q-66 7 -120.5 53t-71.5 141q-17 109 -2 180q-57 -73 -98 -151q-18 -36 -47 -102.5t-35 -79.5q-6 -15 -17 -22t-22 -8t-37 -1q-5 0 -20 -1t-20 -1.5t-14 -3t-16 -6.5z " />
<glyph unicode="&#x139;" horiz-adv-x="1527" d="M21 -207q-43 90 19 180q73 108 267 166q107 32 255 38t259 -15q38 50 127 233q-107 -3 -200.5 22t-159 69.5t-107.5 105t-54.5 126.5t8 134.5t72 129.5t146 112t221.5 80q57 13 68 -3q6 -11 -22 -22q-17 -7 -41 -10q-87 -11 -162 -58.5t-118 -115t-65.5 -145t-3.5 -150.5 t66 -129.5t146.5 -83.5t234.5 -11l172 424q167 414 380 544q129 78 238 35q72 -29 98 -95q7 -19 9 -39q13 -146 -55 -300.5t-187 -278.5t-278 -215t-320 -118q-15 -30 -29 -61q-18 -38 -89 -169q-4 -6 -6 -9.5t-5 -9.5t-6 -11q168 -41 353.5 -121.5t318.5 -183.5 q69 -54 117.5 -126t68 -138.5t20 -124t-19.5 -90.5q-21 -40 -51 -55q-22 -12 -35 -14.5t-16 2.5t-1 14.5t7 21.5t11 23q2 3 3 5t2 4.5t2 4.5q19 41 21 107.5t-27.5 151t-93.5 140.5q-71 63 -158 110.5t-194.5 81t-186 52.5t-202.5 43q-172 -244 -363 -334q-171 -83 -314 -37 q-101 32 -140 113zM66 -96q-40 -67 7 -122q50 -59 160 -59q99 -1 209 52q170 81 316 288q-101 22 -214 20t-212 -28q-207 -53 -266 -151zM1063 459q137 30 269.5 110t233.5 188t163 244.5t61 270.5q-1 56 -48 69q-70 18 -180 -79q-158 -139 -323 -459q-92 -170 -176 -344z M1700 1526q3 7 57.5 46t116.5 82.5t74 53.5q68 48 116 23q15 -6 21 -22.5t-2 -31.5q-11 -23 -188 -102t-189 -74q-17 10 -6 25z" />
<glyph unicode="&#x13a;" horiz-adv-x="434" d="M81 258q6 30 38 141q47 169 133.5 370t177.5 353q30 51 65.5 88t67 53.5t60.5 20t47 -15t25 -50t-4.5 -86t-41.5 -122.5q-175 -393 -420 -615q-3 -10 -19.5 -58t-23.5 -77q-16 -73 -12 -122.5t28.5 -73t56 -25t69 23t69.5 68.5q70 98 152 260q13 26 28 24q15 -4 3 -34 q-4 -8 -17 -37t-21 -45.5t-24.5 -48.5t-29 -52t-32.5 -49.5t-38 -48.5t-42.5 -40.5t-48.5 -34t-53 -21t-59 -8.5q-189 0 -134 262zM246 461q105 106 207 267.5t165 311.5q34 78 33 133q-1 51 -42 10q-17 -17 -40 -50q-67 -95 -165 -305.5t-158 -366.5zM618 1458 q3 7 58.5 47.5t118.5 85t75 54.5q66 50 119 24q15 -8 20.5 -24t-1.5 -31q-11 -24 -190.5 -105.5t-192.5 -76.5q-18 11 -7 26z" />
<glyph unicode="&#x13b;" horiz-adv-x="1527" d="M5 -108q-43 90 19 180q73 108 267 166q106 32 255 37.5t259 -15.5q93 144 215 395q-107 -3 -200.5 22t-159 69.5t-107.5 105t-54.5 126.5t8 134.5t72 129.5t146 112t221.5 80q57 13 67 -3q7 -11 -21 -22q-18 -7 -42 -10q-87 -11 -162 -58.5t-118 -114.5t-65.5 -145 t-3 -150.5t66.5 -129t146.5 -83.5t234.5 -11l174 421q170 425 387 559q130 81 240 38q73 -29 100 -96q8 -21 10 -42q13 -150 -57 -307.5t-192 -282t-282.5 -215.5t-322.5 -118q-122 -251 -180 -353l-43 -69q168 -41 353 -121.5t318 -183.5q69 -54 118 -126.5t68.5 -139 t20 -124t-19.5 -90.5q-21 -40 -51 -55q-22 -12 -35 -14.5t-16 2.5t-1 14.5t7 21.5t11 23q2 3 3 5t2 4.5t2 4.5q19 41 21 108t-27.5 151.5t-93.5 140.5q-71 63 -158.5 110.5t-195 81t-186 52.5t-202.5 43q-173 -244 -362 -334q-171 -83 -314 -37q-101 32 -140 113zM50 4 q-41 -68 6 -123q51 -60 161 -60q99 -1 209 52q168 80 315 289q-101 22 -214 20t-212 -28q-206 -53 -265 -150zM623 -506q-3 11 14 16q1 1 2 1q55 19 94 60t45 99q-25 -18 -51 -18q-32 0 -50 22.5t-13 53.5q4 32 30.5 53.5t57.5 21.5q39 0 60.5 -25t21.5 -63q0 -43 -18.5 -82 t-49 -66.5t-62 -46.5t-63.5 -30q-14 -6 -18 4zM1135 719q138 31 272 111t238 188.5t168 247t63 276.5q-1 58 -48 71q-70 19 -180 -77q-162 -142 -333 -477q-96 -166 -180 -340z" />
<glyph unicode="&#x13c;" horiz-adv-x="434" d="M35 -416q-3 11 14 16q1 1 2 1q55 19 94 60t45 99q-25 -18 -51 -18q-32 0 -50 22.5t-13 53.5q4 32 30.5 54t57.5 22q39 0 60.5 -25.5t21.5 -63.5q0 -43 -18.5 -82t-49 -66.5t-62 -46.5t-63.5 -30q-14 -6 -18 4zM81 258q6 30 38 141q47 169 133.5 370t177.5 353 q30 51 65.5 88t67 53.5t60.5 20t47 -15t25 -50t-4.5 -86t-41.5 -122.5q-175 -393 -420 -615q-3 -10 -19.5 -58t-23.5 -77q-16 -73 -12 -122.5t28.5 -73t56 -25t69 23t69.5 68.5q70 98 152 260q13 26 28 24q15 -4 3 -34q-4 -8 -17 -37t-21 -45.5t-24.5 -48.5t-29 -52 t-32.5 -49.5t-38 -48.5t-42.5 -40.5t-48.5 -34t-53 -21t-59 -8.5q-189 0 -134 262zM246 461q105 106 207 267.5t165 311.5q34 78 33 133q-1 51 -42 10q-17 -17 -40 -50q-67 -95 -165 -305.5t-158 -366.5z" />
<glyph unicode="&#x13d;" horiz-adv-x="1527" d="M5 -108q-43 90 19 180q73 108 267 166q106 32 255 37.5t259 -15.5q27 42 36 55.5t21.5 35.5t15.5 29t20 43t34 71q-107 -3 -200.5 22t-159 69.5t-107.5 104.5t-54.5 126t8 135t72 129.5t146 111.5t221.5 80q57 13 67 -3q7 -11 -21 -22q-18 -7 -42 -10q-87 -11 -162 -58.5 t-118 -114.5t-65.5 -145t-3 -150.5t66.5 -129t146.5 -83.5t234.5 -11l151 352q155 390 352 507q117 70 214 26q66 -30 84 -95q4 -13 5 -26q16 -183 -81 -356.5t-275 -293.5t-393 -157q-19 -39 -32.5 -71.5t-31 -64t-71.5 -124.5q168 -41 353 -121.5t318 -183.5 q69 -54 118 -126.5t68.5 -139t20 -124t-19.5 -90.5q-21 -40 -51 -55q-22 -12 -35 -14.5t-16 2.5t-1 14.5t7 21.5t11 23q2 3 3 5t2 4.5t2 4.5q19 41 21 108t-27.5 151.5t-93.5 140.5q-71 63 -158.5 110.5t-195 81t-186 52.5t-202.5 43q-173 -244 -362 -334q-171 -83 -314 -37 q-101 32 -140 113zM50 4q-41 -68 6 -123q51 -60 161 -60q99 -1 209 52q168 80 315 289q-101 22 -214 20t-212 -28q-206 -53 -265 -150zM1047 557q280 62 463 260.5t182 450.5q-1 54 -45 65q-66 17 -170 -81q-138 -132 -283 -418q-63 -103 -147 -277zM1715 1494q-2 9 11 13 q44 13 75.5 46.5t37.5 80.5q-21 -14 -41 -14q-26 0 -40.5 17.5t-10.5 43.5q3 25 24.5 42.5t47.5 17.5q30 0 44.5 -23.5t14.5 -56.5q0 -65 -45.5 -108.5t-103.5 -61.5q-12 -6 -14 3z" />
<glyph unicode="&#x13e;" horiz-adv-x="757" d="M81 258q6 30 38 141q47 169 133.5 370t177.5 353q30 51 65.5 88t67 53.5t60.5 20t47 -15t25 -50t-4.5 -86t-41.5 -122.5q-175 -393 -420 -615q-3 -10 -19.5 -58t-23.5 -77q-16 -73 -12 -122.5t28.5 -73t56 -25t69 23t69.5 68.5q70 98 152 260q13 26 28 24q15 -4 3 -34 q-4 -8 -17 -37t-21 -45.5t-24.5 -48.5t-29 -52t-32.5 -49.5t-38 -48.5t-42.5 -40.5t-48.5 -34t-53 -21t-59 -8.5q-189 0 -134 262zM246 461q105 106 207 267.5t165 311.5q34 78 33 133q-1 51 -42 10q-17 -17 -40 -50q-67 -95 -165 -305.5t-158 -366.5zM767 909q-4 12 15 18 q1 1 2 1q61 20 105 66.5t51 111.5q-28 -21 -57 -21q-35 0 -55.5 24.5t-14.5 59.5q4 35 33 59.5t65 24.5q41 0 62.5 -33t21.5 -77q0 -48 -19.5 -89.5t-52 -70t-66 -47.5t-69.5 -31q-18 -7 -21 4z" />
<glyph unicode="&#x13f;" horiz-adv-x="1818" d="M5 -108q-43 90 19 180q73 108 267 166q106 32 255 37.5t259 -15.5q93 144 215 395q-107 -3 -200.5 22t-159 69.5t-107.5 105t-54.5 126.5t8 134.5t72 129.5t146 112t221.5 80q57 13 67 -3q7 -11 -21 -22q-18 -7 -42 -10q-87 -11 -162 -58.5t-118 -114.5t-65.5 -145 t-3 -150.5t66.5 -129t146.5 -83.5t234.5 -11l174 438q159 409 378 542q131 80 247 41q75 -26 102 -87q8 -18 10 -37q13 -150 -57.5 -310t-192 -288t-282.5 -221.5t-322 -120.5q-122 -251 -180 -353l-43 -69q168 -41 353 -121.5t318 -183.5q69 -54 118 -126.5t68.5 -139 t20 -124t-19.5 -90.5q-21 -40 -51 -55q-22 -12 -35 -14.5t-16 2.5t-1 14.5t7 21.5t11 23q2 3 3 5t2 4.5t2 4.5q19 41 21 108t-27.5 151.5t-93.5 140.5q-71 63 -158.5 110.5t-195 81t-186 52.5t-202.5 43q-173 -244 -362 -334q-171 -83 -314 -37q-101 32 -140 113zM50 4 q-41 -68 6 -123q51 -60 161 -60q99 -1 209 52q168 80 315 289q-101 22 -214 20t-212 -28q-206 -53 -265 -150zM1135 719q137 30 271.5 113t238.5 195t168 253t63 279q-1 58 -48 71q-70 19 -181 -78q-162 -144 -332 -477q-96 -182 -180 -356zM1286 502q4 35 33 59.5t65 24.5 q34 0 55 -24.5t15 -59.5t-34.5 -59.5t-63.5 -24.5t-55.5 24.5t-14.5 59.5z" />
<glyph unicode="&#x141;" horiz-adv-x="1527" d="M5 -106q-43 90 19 180q73 108 267 166q106 32 255 37.5t259 -15.5q41 63 102 176q-191 -9 -284 -20q-14 -2 -26 22.5t-6.5 50t32.5 25.5q10 0 124.5 -1t200.5 -1q16 29 72 143q-107 -3 -200.5 22t-159 69.5t-107.5 105t-54.5 126.5t8 134.5t72 129.5t146 112t221.5 80 q57 13 67 -3q7 -11 -21 -22q-18 -7 -42 -10q-87 -11 -162 -58.5t-118 -114.5t-65.5 -145t-3 -150.5t66.5 -129t146.5 -83.5t234.5 -11l174 438q170 420 390 546q131 76 242 31q72 -29 97 -90l8 -28q21 -149 -48.5 -309.5t-193.5 -288t-287 -221.5t-325 -121l-74 -154 q123 0 295 -4q32 -1 41 -25q8 -20 -15 -27l-18 -3q-107 0 -340 -11l-69 -129l-43 -69q168 -41 353 -121.5t318 -183.5q69 -54 118 -126.5t68.5 -139t20 -124t-19.5 -90.5q-21 -40 -51 -55q-22 -12 -35 -14.5t-16 2.5t-1 14.5t7 21.5t11 23q2 3 3 5t2 4.5t2 4.5q19 41 21 108 t-27.5 151.5t-93.5 140.5q-71 63 -158.5 110.5t-195 81t-186 52.5t-202.5 43q-173 -244 -362 -334q-171 -83 -314 -37q-101 32 -140 113zM50 6q-41 -68 6 -123q51 -60 161 -60q99 -1 209 52q168 80 315 289q-101 22 -214 20t-212 -28q-206 -53 -265 -150zM1135 721 q137 30 271.5 113t238.5 195t168 253t63 279q-1 58 -48 71q-70 19 -181 -78q-162 -144 -332 -477q-96 -182 -180 -356z" />
<glyph unicode="&#x142;" horiz-adv-x="434" d="M3 342q-5 31 16 50q5 5 12 7l98 39q51 167 133.5 355t167.5 329q30 51 65.5 88t67 53.5t60.5 20t47 -15t25 -50t-4.5 -86t-41.5 -122.5q-132 -297 -299 -490l135 49q20 7 23 -8q3 -18 -21 -29l-4 -2l-196 -79q-18 -20 -58 -56q-3 -10 -19.5 -58t-23.5 -77 q-16 -73 -12 -122.5t28.5 -73t56 -25t69 23t69.5 68.5q70 98 152 260q13 26 28 24q15 -4 3 -34q-4 -8 -17 -37t-21 -45.5t-24.5 -48.5t-29 -52t-32.5 -49.5t-38 -48.5t-42.5 -40.5t-48.5 -34t-53 -21t-59 -8.5q-35 0 -61.5 9t-43 22.5t-26.5 37t-14 44t-2 53t5 54t11 56.5 t13 52.5t14 48.5l-95 -43q-10 -7 -13 12zM254 485q8 2 22 9q97 106 189.5 256t152.5 290q34 78 33 133q-1 51 -42 10q-17 -17 -40 -50q-64 -90 -154.5 -282.5t-160.5 -365.5z" />
<glyph unicode="&#x143;" horiz-adv-x="2127" d="M50 514.5q-28 140.5 50 335.5q66 157 207.5 296.5t315.5 233.5q68 37 142.5 64t151 40t147 11t130.5 -26.5t102 -68t60.5 -117.5t7.5 -171q-3 -24 -7.5 -48t-12.5 -51t-14 -47t-18.5 -51.5t-19 -48t-22.5 -52t-21 -47t-23 -50.5t-22 -47q-53 -116 -49 -116q1 0 25 39 q24 41 34 56q127 192 252 342q246 300 451 395q68 32 137 44t126.5 1t93 -55.5t34.5 -118.5q-1 -79 -45 -192t-101 -216.5t-143.5 -266.5t-144.5 -289q-116 -254 -96 -409q15 -111 96 -124q48 -6 111 23q64 29 79 4q12 -19 -16 -45q-38 -35 -104 -33q-194 9 -253 135.5 t19 358.5q26 74 134.5 298.5t204 437t108.5 298.5q12 63 -19.5 90.5t-87.5 20t-125 -40.5q-226 -110 -422 -346q-64 -78 -129 -175t-113.5 -179.5t-106.5 -194t-89.5 -178t-82 -174t-67.5 -142.5q-19 -42 -79 -52q-52 -8 -73 16q-9 11 -5 26q92 135 256.5 498.5t224.5 633.5 q34 150 12 238t-80 127t-145.5 34t-184.5 -41.5t-198 -99.5q-247 -153 -381 -394q-113 -201 -105 -383q6 -161 105 -228q55 -37 131 -37q171 0 310 130q104 98 139 217q33 113 -23 165q-42 40 -127 29q-18 -2 -22 5t2.5 15t15.5 10q161 39 215 -50q45 -75 -3 -201 q-51 -135 -174 -234q-152 -123 -339 -123q-124 0 -216.5 77.5t-120.5 218zM1956 1536q3 6 54 43t109.5 78.5t69.5 50.5q65 48 111 23q14 -6 18.5 -21.5t-2.5 -30.5q-10 -21 -176.5 -97t-177.5 -71q-17 10 -6 25z" />
<glyph unicode="&#x144;" d="M-80 -14q29 58 127 262.5t156 310.5q43 79 70.5 105.5t74.5 23.5q3 0 36 -6t50 -2q-74 -40 -248 -385q96 119 170 184q84 75 207.5 142.5t171.5 50.5q-25 -43 -62 -111t-104.5 -211t-79.5 -207q-19 -102 33 -102q104 0 281 354q11 26 26 21t5 -32q-1 -4 -3 -7 q-78 -161 -125 -229q-107 -155 -212 -156q-30 0 -56 10.5t-48.5 37.5t-23.5 73.5t19 117.5q19 64 113 215q33 54 14 74q-24 26 -114 -46q-21 -17 -46 -40q-145 -130 -284 -405q-11 -20 -26.5 -25.5t-51.5 -5.5q-5 0 -20 -1t-20 -1.5t-14 -3t-16 -6.5zM532 872q3 7 58.5 47.5 t118.5 85t75 54.5q66 50 119 24q15 -8 20.5 -24t-1.5 -31q-11 -24 -190.5 -105.5t-192.5 -76.5q-18 11 -7 26z" />
<glyph unicode="&#x145;" horiz-adv-x="2127" d="M1 568q-30 151 54 362q70 169 222 319t339 252q86 47 181 77t190 42t178.5 -6t144.5 -62t90.5 -131.5t14.5 -208.5q-4 -33 -10.5 -66t-19.5 -73t-21 -64.5t-29 -73t-27.5 -64t-32.5 -72t-30 -64.5q-57 -125 -53 -125q1 0 27 44q25 43 36 59q118 184 271 368 q273 329 485 426q74 35 148 47.5t136.5 1t100.5 -59.5t37 -128q-1 -85 -48.5 -207t-108 -233.5t-154.5 -287t-156 -310.5q-123 -270 -104 -437q14 -122 100 -137q52 -10 123 23q68 32 85 6q13 -19 -15 -47q-42 -39 -115 -37q-208 9 -271 145t21 385q27 81 143.5 322.5 t220 471t117.5 321.5q12 68 -22 97.5t-94 21.5t-134 -44q-238 -113 -454 -372q-69 -84 -139.5 -189t-122 -192t-115 -210.5t-96 -190.5t-89 -188.5t-71.5 -152.5q-21 -44 -84 -56q-56 -11 -79 14q-11 12 -7 30q99 145 275.5 538t242.5 683q36 162 12.5 257t-86 137t-157 36 t-199 -45t-213.5 -107q-261 -162 -405 -416q-121 -213 -118 -409q2 -173 103 -251q62 -48 152 -48q181 0 330 136q111 103 151 229q38 121 -17 181q-44 50 -143 37q-19 -2 -23.5 5.5t2.5 16.5t17 11q171 41 230 -52q49 -78 2 -211q-50 -141 -177 -249q-167 -143 -378 -143 q-134 0 -234 83.5t-130 234.5zM1354 -506q-3 11 14 16q1 1 2 1q55 19 94 60t45 99q-25 -18 -51 -18q-32 0 -50 22.5t-13 53.5q4 32 30.5 53.5t57.5 21.5q39 0 60.5 -25t21.5 -63q0 -43 -18.5 -82t-49 -66.5t-62 -46.5t-63.5 -30q-14 -6 -18 4z" />
<glyph unicode="&#x146;" d="M-80 -14q29 58 127 262.5t156 310.5q43 79 70.5 105.5t74.5 23.5q3 0 36 -6t50 -2q-74 -40 -248 -385q96 119 170 184q84 75 207.5 142.5t171.5 50.5q-25 -43 -62 -111t-104.5 -211t-79.5 -207q-19 -102 33 -102q104 0 281 354q11 26 26 21t5 -32q-1 -4 -3 -7 q-78 -161 -125 -229q-107 -155 -212 -156q-30 0 -56 10.5t-48.5 37.5t-23.5 73.5t19 117.5q19 64 113 215q33 54 14 74q-24 26 -114 -46q-21 -17 -46 -40q-145 -130 -284 -405q-11 -20 -26.5 -25.5t-51.5 -5.5q-5 0 -20 -1t-20 -1.5t-14 -3t-16 -6.5zM103 -421q-2 10 14 14 q1 1 2 1q55 19 94 60.5t45 99.5q-25 -18 -51 -18q-32 0 -50.5 22.5t-13.5 53.5q4 32 30.5 53.5t57.5 21.5q39 0 60.5 -25t21.5 -63q0 -82 -60 -141t-132 -84q-16 -6 -18 5z" />
<glyph unicode="&#x147;" horiz-adv-x="2127" d="M50 514.5q-28 140.5 50 335.5q66 157 207.5 296.5t315.5 233.5q68 37 142.5 64t151 40t147 11t130.5 -26.5t102 -68t60.5 -117.5t7.5 -171q-3 -24 -7.5 -48t-12.5 -51t-14 -47t-18.5 -51.5t-19 -48t-22.5 -52t-21 -47t-23 -50.5t-22 -47q-53 -116 -49 -116q1 0 25 39 q24 41 34 56q127 192 252 342q246 300 451 395q68 32 137 44t126.5 1t93 -55.5t34.5 -118.5q-1 -79 -45 -192t-101 -216.5t-143.5 -266.5t-144.5 -289q-116 -254 -96 -409q15 -111 96 -124q48 -6 111 23q64 29 79 4q12 -19 -16 -45q-38 -35 -104 -33q-194 9 -253 135.5 t19 358.5q26 74 134.5 298.5t204 437t108.5 298.5q12 63 -19.5 90.5t-87.5 20t-125 -40.5q-226 -110 -422 -346q-64 -78 -129 -175t-113.5 -179.5t-106.5 -194t-89.5 -178t-82 -174t-67.5 -142.5q-19 -42 -79 -52q-52 -8 -73 16q-9 11 -5 26q92 135 256.5 498.5t224.5 633.5 q34 150 12 238t-80 127t-145.5 34t-184.5 -41.5t-198 -99.5q-247 -153 -381 -394q-113 -201 -105 -383q6 -161 105 -228q55 -37 131 -37q171 0 310 130q104 98 139 217q33 113 -23 165q-42 40 -127 29q-18 -2 -22 5t2.5 15t15.5 10q161 39 215 -50q45 -75 -3 -201 q-51 -135 -174 -234q-152 -123 -339 -123q-124 0 -216.5 77.5t-120.5 218zM1968 1718q-5 11 11 12q22 0 30 -12l94 -145q244 131 271 145q18 16 45 11q16 -4 6 -11l-305 -217q-76 -10 -78 0z" />
<glyph unicode="&#x148;" d="M-80 -14q29 58 127 262.5t156 310.5q43 79 70.5 105.5t74.5 23.5q3 0 36 -6t50 -2q-74 -40 -248 -385q96 119 170 184q84 75 207.5 142.5t171.5 50.5q-25 -43 -62 -111t-104.5 -211t-79.5 -207q-19 -102 33 -102q104 0 281 354q11 26 26 21t5 -32q-1 -4 -3 -7 q-78 -161 -125 -229q-107 -155 -212 -156q-30 0 -56 10.5t-48.5 37.5t-23.5 73.5t19 117.5q19 64 113 215q33 54 14 74q-24 26 -114 -46q-21 -17 -46 -40q-145 -130 -284 -405q-11 -20 -26.5 -25.5t-51.5 -5.5q-5 0 -20 -1t-20 -1.5t-14 -3t-16 -6.5zM504 1100q-5 11 11 12 q22 1 30 -12l94 -146q243 132 270 146q17 15 45 11q17 -3 7 -11l-306 -217q-75 -10 -77 0z" />
<glyph unicode="&#x14a;" horiz-adv-x="2127" d="M17 568q-48 151 12 362q50 170 183.5 319.5t307.5 251.5q80 47 171.5 77t185 42t179 -6t152 -62t106.5 -131.5t40 -208.5q0 -33 -3 -66.5t-11 -72t-14 -65t-20 -72.5t-20 -65t-23.5 -71.5l-21.5 -64.5q-42 -124 -38 -125q1 0 23 46q19 41 27 57q101 191 228 368 q231 327 432 426q70 35 142.5 47.5t136 1t108 -59.5t53.5 -128q10 -95 -42.5 -311t-145.5 -492q-132 -391 -216 -583q-216 -491 -492 -676q-131 -88 -279 -113q-151 -25 -282.5 2t-221 100.5t-125 191t5.5 275.5q19 77 81.5 145t100.5 70q11 1 15.5 -1.5t2.5 -6.5t-6 -8 t-10 -8q-43 -21 -93 -96t-62 -168q-11 -76 2.5 -143t46.5 -115.5t80.5 -87.5t103 -62.5t114.5 -35.5t116 -11.5t106 12.5q95 26 178.5 76t148.5 109.5t129.5 157.5t111 184t103.5 226.5t96 248.5t99 284q69 200 122 434t52 380q-1 69 -38.5 98t-94.5 21t-127 -44 q-225 -115 -407 -372q-51 -72 -99.5 -155t-91.5 -174.5t-77 -168.5t-72 -178.5t-59 -160t-54.5 -157.5t-44.5 -129q-16 -43 -76 -56q-56 -11 -82 14q-13 12 -10 30q81 145 210 538t159 683q11 112 -3.5 196t-49.5 133t-87.5 75t-115.5 26.5t-134 -17.5t-143 -52.5 t-143 -82.5q-242 -162 -356 -416q-96 -213 -69 -409q23 -173 134 -251q68 -48 158 -48q179 0 311 134q99 101 125 228q25 120 -35 182q-50 52 -149 39q-19 -2 -24.5 5.5t0.5 16.5t16 11q167 41 237 -53q58 -79 26 -211q-34 -141 -147 -249q-151 -142 -360 -142 q-134 0 -244.5 83.5t-158.5 234.5z" />
<glyph unicode="&#x14b;" d="M-473.5 -534.5q-6.5 32.5 1 67.5t26.5 70q53 104 192 168q61 30 142.5 54t194 51.5t161.5 41.5q46 79 65 119l58 117q9 50 18 77q19 64 113 215q33 54 14 74q-24 26 -114 -46q-21 -17 -46 -40q-145 -130 -284 -405q-11 -20 -26.5 -25.5t-51.5 -5.5q-5 0 -20 -1t-20 -1.5 t-14 -3t-16 -6.5q29 58 127 262.5t156 310.5q43 79 70.5 105.5t74.5 23.5q3 0 36 -6t50 -2q-74 -40 -248 -385q96 119 170 184q84 75 207.5 142.5t171.5 50.5q-25 -43 -62 -111t-104.5 -211t-79.5 -207q-19 -102 33 -102q104 0 281 354q11 26 26 21t5 -32q-1 -4 -3 -7 q-78 -161 -125 -229q-107 -155 -212 -156q-48 0 -84 26q-27 -51 -86.5 -158t-75.5 -136q-251 -371 -531 -371q-59 0 -101 15t-62.5 40t-27 57.5zM-422 -558q20 -48 90 -48q63 0 138 40.5t142.5 104t119.5 122.5t92 116q22 32 45 76q-14 -4 -99.5 -26t-123 -32.5t-99 -30.5 t-102.5 -38q-114 -49 -175 -145q-51 -82 -28 -139z" />
<glyph unicode="&#x14c;" horiz-adv-x="1579" d="M104 936q-25 246 151 423q149 149 388 203q246 56 470 -15q241 -76 355 -274q95 -163 86 -388q205 137 267 258q9 20 27.5 18.5t11.5 -23.5q-3 -8 -9 -18q-122 -190 -305 -307q-8 -99 -47 -219q-48 -147 -152.5 -291t-245 -253t-303 -154t-325.5 6q-87 28 -150.5 103.5 t-94.5 178.5t-24 233.5t58 260.5q-144 96 -158 258zM217 918q12 -95 82 -156q30 63 76 135t109 151t133.5 141t150 106.5t158 48t157.5 -36.5q15 -8 16 -16.5t-9 -12.5t-23 0q-73 23 -159 -12t-161 -104t-146.5 -158t-120.5 -169t-77 -143q186 -87 479 -48.5t548 175.5 q33 371 -158 568q-142 146 -366 161q-207 14 -392 -85q-179 -96 -256 -258q-64 -133 -41 -287zM311.5 359.5q-10.5 -128.5 31 -237t136.5 -155.5q182 -84 361.5 -2.5t323 255.5t216.5 382q29 86 37 146q-255 -136 -547.5 -172t-496.5 45q-51 -133 -61.5 -261.5zM907 1679 l27 62h436l-24 -62h-439z" />
<glyph unicode="&#x14d;" d="M60.5 197q4.5 84 43.5 176q61 144 174 245.5t216 98.5q75 -1 112 -56.5t32.5 -140t-44.5 -176.5q-25 -58 -70.5 -123.5t-101.5 -118.5q26 -51 96 -51q27 0 54 13t52.5 41t45.5 52.5t43.5 67t35.5 64.5t32.5 64.5t23.5 49.5q5 10 15.5 11t16 -6.5t-0.5 -22.5 q-1 -1 -13 -28.5t-17.5 -40.5t-21.5 -44.5t-27 -50.5t-30.5 -49t-35.5 -49t-38 -41.5t-43 -35t-46 -21.5t-50 -9q-84 0 -131 54q-96 -73 -178 -70q-75 2 -112 57.5t-32.5 139.5zM175.5 159.5q-8.5 -91.5 45.5 -112.5q60 -15 139 51q-32 46 -32 101q4 88 71 88q26 0 44 -18.5 t18 -43.5q0 -6 -4 -22q36 52 63 110q61 128 66.5 222.5t-49.5 113.5q-64 18 -148 -62t-143 -206q-62 -130 -70.5 -221.5zM324 842l26 61h436l-24 -61h-438z" />
<glyph unicode="&#x150;" horiz-adv-x="1579" d="M74 831q-25 246 151 423q149 149 388 203q246 56 470 -15q241 -76 355 -274q95 -163 86 -388q204 136 266 258q9 19 27 19t14 -20q-3 -9 -10 -21q-122 -190 -305 -307q-8 -96 -48 -220q-48 -147 -152.5 -291t-245 -253t-303 -154t-325.5 6q-87 28 -150.5 103.5 t-94.5 178.5t-24 233.5t58 260.5q-143 96 -157 258zM186 813q12 -95 82 -156q30 63 76 135t109 151t134 141t150.5 106.5t158 48t157.5 -36.5q24 -13 12 -24q-10 -10 -29 -4q-73 23 -158.5 -12t-161 -104t-146.5 -158t-120 -169t-77 -143q186 -87 478.5 -48.5t547.5 175.5 q33 371 -158 568q-142 145 -366 160q-207 14 -392 -85q-179 -96 -256 -258q-64 -133 -41 -287zM284 130q9 -89 51 -160t114 -107q182 -84 361.5 -2.5t323 255.5t216.5 382q28 82 36 145q-255 -136 -547.5 -172t-496.5 45q-37 -99 -52 -198t-6 -188zM1180 1485q-3 4 5 46 t17.5 88.5t9.5 57.5q13 52 50 62q28 7 38 -17q7 -15 -43.5 -128t-60.5 -119q-12 -3 -16 10zM1374 1438q-3 4 5.5 46t18 88.5t9.5 57.5q13 53 49 62q29 7 39 -17q7 -15 -43.5 -128.5t-60.5 -119.5q-12 -3 -17 11z" />
<glyph unicode="&#x151;" d="M60.5 197q4.5 84 43.5 176q61 144 174 245.5t216 98.5q75 -1 112 -56.5t32.5 -140t-44.5 -176.5q-25 -58 -70.5 -123.5t-101.5 -118.5q26 -51 96 -51q27 0 54 13t52.5 41t45.5 52.5t43.5 67t35.5 64.5t32.5 64.5t23.5 49.5q5 10 15.5 11t16 -6.5t-0.5 -22.5 q-1 -1 -13 -28.5t-17.5 -40.5t-21.5 -44.5t-27 -50.5t-30.5 -49t-35.5 -49t-38 -41.5t-43 -35t-46 -21.5t-50 -9q-84 0 -131 54q-96 -73 -178 -70q-75 2 -112 57.5t-32.5 139.5zM175.5 159.5q-8.5 -91.5 45.5 -112.5q60 -15 139 51q-32 46 -32 101q4 88 71 88q26 0 44 -18.5 t18 -43.5q0 -6 -4 -22q36 52 63 110q61 128 66.5 222.5t-49.5 113.5q-64 18 -148 -62t-143 -206q-62 -130 -70.5 -221.5zM408 866q-3 5 7 56t21.5 107.5t12.5 68.5q12 64 59 76q14 3 27.5 -3t19.5 -18q7 -18 -54.5 -155.5t-72.5 -143.5q-16 -3 -20 12zM647 866q-3 5 7 55.5 t22.5 108t13.5 68.5q8 63 58 76q33 7 47 -21q7 -18 -54.5 -155.5t-72.5 -143.5q-17 -3 -21 12z" />
<glyph unicode="&#x152;" horiz-adv-x="3057" d="M104 936q-25 246 151 423q149 149 388 203q246 56 470 -15q241 -76 355 -274q95 -163 86 -388q89 61 134 98q-31 48 -31 98q0 90 48.5 174t127 147.5t180.5 114.5t210 81.5t214.5 42t194.5 1.5q93 -10 164.5 -35.5t113 -59.5t61.5 -76t15.5 -85.5t-30 -87.5t-70 -82 t-110 -69t-144.5 -49q-75 -18 -87 0q-8 13 22 26q22 10 54 13q49 5 97.5 38t83.5 79.5t48 101.5t0 103t-70 84.5t-154 45.5q-170 17 -351.5 -37.5t-311 -166t-144.5 -244.5l2 2q9 20 27.5 18.5t11.5 -23.5q-3 -8 -9 -18l-32 -47q9 -63 50.5 -107t97.5 -65t118.5 -38t114 -28 t84 -33.5t28.5 -56.5q-6 -24 -40 -32t-93 -6.5t-125 4t-152.5 -4.5t-160.5 -28q-82 -23 -150 -73.5t-113.5 -115t-68 -140t-20 -150t38 -144t98.5 -122.5t169 -85t242 -32q237 0 469.5 88.5t378.5 208.5q118 99 150 191q30 87 -41 114q-7 2 -15 4q-59 14 -59 31q1 14 34 11 q23 -3 48 -15q123 -62 109 -171t-152 -225q-154 -129 -405.5 -207.5t-520.5 -78.5q-157 0 -284.5 32.5t-211.5 89t-134 129t-64 156.5q-80 -84 -168.5 -147t-189.5 -104.5t-202 -46.5t-206 26q-87 28 -150.5 103.5t-94.5 178.5t-24 233.5t58 260.5q-144 96 -158 258z M217 918q12 -95 82 -156q30 63 76 135t109 151t133.5 141t150 106.5t158 48t157.5 -36.5q15 -8 16 -16.5t-9 -12.5t-23 0q-73 23 -159 -12t-161 -104t-146.5 -158t-120.5 -169t-77 -143q186 -87 479 -48.5t548 175.5q33 371 -158 568q-142 146 -366 161q-207 14 -392 -85 q-179 -96 -256 -258q-64 -133 -41 -287zM311.5 359.5q-10.5 -128.5 31 -237t136.5 -155.5q105 -48 209 -41t206 63.5t189.5 142t159.5 196.5q28 119 115 219q15 33 22 55q29 86 37 146q-255 -136 -547.5 -172t-496.5 45q-51 -133 -61.5 -261.5zM1524 682q88 52 200 86 q105 33 218 39q-152 52 -228 141q-69 -72 -168 -135q-3 -59 -22 -131z" />
<glyph unicode="&#x153;" horiz-adv-x="925" d="M60.5 197q4.5 84 43.5 176q61 144 174 245.5t216 98.5q65 -1 101 -43t42 -111l6 8q80 98 179.5 139.5t170.5 -5.5q57 -45 22 -134t-136 -165q-44 -34 -125.5 -62.5t-124.5 -28.5q-13 -31 -21 -75.5t-7 -92t25.5 -80t71.5 -32.5q187 0 338 350q12 27 30 29q16 1 10 -21 q-1 -5 -3 -10q-67 -145 -94 -190q-101 -170 -242 -196q-28 -5 -57 -5q-77 0 -134 49t-61 135q-66 -78 -140 -127.5t-140 -48.5q-75 2 -112 57.5t-32.5 139.5zM175.5 159.5q-8.5 -91.5 45.5 -112.5q41 -12 95.5 23t98 85.5t77.5 106.5q21 110 86 217q14 67 3.5 113.5 t-44.5 56.5q-64 18 -148 -62t-143 -206q-62 -130 -70.5 -221.5zM641 350q36 0 102.5 24.5t116.5 65.5q77 65 105 151q21 69 -8 88q-39 25 -136 -75q-26 -26 -55 -61q-59 -71 -125 -193z" />
<glyph unicode="&#x154;" horiz-adv-x="2097" d="M74 140q37 79 138 107q112 31 259 -20q26 -10 19.5 -21t-31.5 -3q-134 52 -216 -10q-57 -44 -57 -115q0 -74 63 -115q41 -26 99 -29q62 -3 120 9t111 41.5t99.5 64t95 90t86 103.5t83.5 121t77.5 126t77.5 134q33 58 109.5 195.5t118 208.5t104.5 165t118 154 q-353 33 -706 -43q-230 -48 -372 -165.5t-169 -248.5q-13 -62 0.5 -114t45.5 -84.5t78 -49.5t95 -14.5t100 25.5t91 65q67 73 71 123q2 26 11 26q10 -1 13 -20q1 -5 1 -10q-12 -89 -74 -154q-47 -49 -108 -76.5t-121.5 -31t-118.5 15.5t-100.5 57t-65.5 101t-16 141 q7 77 53 153.5t126 145t205.5 120.5t278.5 74q395 55 725 9q78 86 78 34q0 -16 -8 -43q161 -28 188 -36q224 -65 272 -192q42 -109 -59 -225q-115 -131 -354 -205q-85 -26 -180 -42q-87 -12 -174 -16q7 -47 25.5 -123.5t70 -211.5t115.5 -233q38 -58 72 -92t74 -50.5 t84.5 -0.5t94.5 65q94 94 183 285q14 25 29 27q8 1 8 -7t-5 -20q-115 -254 -194 -340q-88 -95 -199 -95t-203 97q-61 64 -112.5 162.5t-84 201t-51 177.5t-28.5 135q-60 -120 -95 -185t-100.5 -163.5t-138.5 -177.5q-126 -136 -280 -197t-318 -39q-158 18 -217 111 q-46 72 -10 148zM1274 715q24 -2 60 1.5t93 11.5t86 11q187 23 332 137q122 95 147 200q28 117 -82 185q-35 22 -85 37q-51 13 -187 37q-21 -37 -160.5 -263.5t-203.5 -356.5zM1694.5 1522q-1.5 8 1.5 14t54.5 43t110.5 78.5t70 50.5q61 49 109 23q14 -6 19.5 -22.5 t-1.5 -29.5q-11 -23 -177.5 -98t-178.5 -70q-6 3 -7.5 11z" />
<glyph unicode="&#x155;" horiz-adv-x="532" d="M-56 82q-5 12 3 24q115 151 198.5 358.5t116.5 393.5q10 55 48 62q37 7 62 -31q28 -42 15 -105q-14 -66 -113 -137q133 -7 283 8q17 -35 -43 -157q-3 -6 -16 -31t-25.5 -50t-30 -61t-31 -68t-26.5 -67.5t-19 -64t-7 -52t8.5 -37t29.5 -14.5q86 -2 254 342q13 25 26 19 q14 -7 -1 -39q-25 -52 -41.5 -84.5t-49.5 -88.5t-61.5 -91.5t-67.5 -67.5t-77 -41q-29 -7 -59 3.5t-54.5 40t-26 82.5t26.5 132q18 49 69.5 138.5t57.5 103.5q21 49 -22 71.5t-135 24.5l-25 -66q-49 -129 -115 -258.5t-133 -193.5q-13 -11 -19 2zM400.5 1036.5 q-2.5 8.5 2.5 14.5q3 7 58.5 47t118.5 84.5t75 54.5q67 51 119 25q15 -8 20.5 -24.5t-1.5 -31.5q-11 -24 -190.5 -105.5t-192.5 -76.5q-7 4 -9.5 12.5z" />
<glyph unicode="&#x156;" horiz-adv-x="2097" d="M53 201q36 82 137 115q124 41 293 -17q26 -10 21 -22q-6 -11 -33 -3q-143 54 -231 -9q-62 -45 -64 -121q-3 -78 60 -124q45 -33 114 -36q59 -3 116 8.5t106.5 32.5t100 58.5t91.5 75t87 94t81 104.5t79 118t74.5 122t73.5 128q29 51 117.5 209.5t129.5 229t110.5 173 t128.5 168.5q-370 37 -762 -47q-247 -51 -400.5 -177.5t-183.5 -268.5q-14 -67 1 -122.5t49 -90.5t83.5 -53.5t102.5 -16t108 27t98 70.5q74 80 78 134q2 27 12 26q11 -1 14 -22q1 -5 1 -9q-15 -96 -80 -165q-50 -53 -116 -82.5t-131 -34t-127.5 16t-108.5 61.5t-70.5 109 t-17.5 151q8 83 57 165.5t135.5 156.5t222 130t299.5 80q419 60 781 10q81 88 84 40q1 -17 -9 -50q142 -23 203 -39q237 -69 292 -202q48 -115 -54 -238q-113 -136 -356 -218q-107 -36 -228 -56q-101 -15 -188 -19q7 -38 19.5 -90.5t39 -144.5t71 -193t97.5 -182 q41 -63 78 -100t80.5 -54.5t91.5 0t102 70.5q20 20 40 44.5t38.5 52t32.5 49.5t30 51.5t23.5 43.5t20.5 39l12 25q14 26 31 30q10 2 10 -9q0 -8 -6 -21q-125 -274 -209 -365q-95 -103 -214.5 -102.5t-219.5 104.5q-65 68 -120.5 173.5t-90.5 217t-55 191.5t-31 146 q-49 -97 -76.5 -149.5t-75 -134t-98.5 -150t-111 -134.5q-135 -146 -301 -211.5t-344 -42.5q-167 20 -232 117q-50 76 -14 158zM947 -441q-2 10 14 14q1 1 2 1q55 19 94 60.5t45 99.5q-27 -19 -51 -19q-32 0 -50.5 22.5t-13.5 53.5q4 32 30.5 54t57.5 22q39 0 60.5 -25 t21.5 -63q0 -82 -60 -141t-132 -84q-16 -6 -18 5zM1348 825q45 8 132.5 15t125.5 12q198 25 354 144q128 99 160 211q34 123 -72 198q-44 30 -106 49q-59 16 -201 39q-34 -60 -179 -295t-214 -373z" />
<glyph unicode="&#x157;" horiz-adv-x="532" d="M-56 82q-5 12 3 24q115 151 198.5 358.5t116.5 393.5q10 55 48 62q37 7 62 -31q28 -42 15 -105q-14 -66 -113 -137q133 -7 283 8q17 -35 -43 -157q-3 -6 -16 -31t-25.5 -50t-30 -61t-31 -68t-26.5 -67.5t-19 -64t-7 -52t8.5 -37t29.5 -14.5q86 -2 254 342q13 25 26 19 q14 -7 -1 -39q-25 -52 -41.5 -84.5t-49.5 -88.5t-61.5 -91.5t-67.5 -67.5t-77 -41q-29 -7 -59 3.5t-54.5 40t-26 82.5t26.5 132q18 49 69.5 138.5t57.5 103.5q21 49 -22 71.5t-135 24.5l-25 -66q-49 -129 -115 -258.5t-133 -193.5q-13 -11 -19 2zM2 -404q-3 11 14 16 q1 1 2 1q55 19 94.5 60.5t45.5 99.5q-27 -19 -52 -19q-32 0 -50 22.5t-13 53.5q4 32 30.5 54t57.5 22q39 0 60.5 -25t21.5 -63q0 -82 -60.5 -141.5t-132.5 -84.5q-14 -6 -18 4z" />
<glyph unicode="&#x158;" horiz-adv-x="2097" d="M74 140q37 79 138 107q112 31 259 -20q26 -10 19.5 -21t-31.5 -3q-134 52 -216 -10q-57 -44 -57 -115q0 -74 63 -115q41 -26 99 -29q62 -3 120 9t111 41.5t99.5 64t95 90t86 103.5t83.5 121t77.5 126t77.5 134q33 58 109.5 195.5t118 208.5t104.5 165t118 154 q-353 33 -706 -43q-230 -48 -372 -165.5t-169 -248.5q-13 -62 0.5 -114t45.5 -84.5t78 -49.5t95 -14.5t100 25.5t91 65q67 73 71 123q2 26 11 26q10 -1 13 -20q1 -5 1 -10q-12 -89 -74 -154q-47 -49 -108 -76.5t-121.5 -31t-118.5 15.5t-100.5 57t-65.5 101t-16 141 q7 77 53 153.5t126 145t205.5 120.5t278.5 74q395 55 725 9q78 86 78 34q0 -16 -8 -43q161 -28 188 -36q224 -65 272 -192q42 -109 -59 -225q-115 -131 -354 -205q-85 -26 -180 -42q-87 -12 -174 -16q7 -47 25.5 -123.5t70 -211.5t115.5 -233q38 -58 72 -92t74 -50.5 t84.5 -0.5t94.5 65q94 94 183 285q14 25 29 27q8 1 8 -7t-5 -20q-115 -254 -194 -340q-88 -95 -199 -95t-203 97q-61 64 -112.5 162.5t-84 201t-51 177.5t-28.5 135q-60 -120 -95 -185t-100.5 -163.5t-138.5 -177.5q-126 -136 -280 -197t-318 -39q-158 18 -217 111 q-46 72 -10 148zM1274 715q24 -2 60 1.5t93 11.5t86 11q187 23 332 137q122 95 147 200q28 117 -82 185q-35 22 -85 37q-51 13 -187 37q-21 -37 -160.5 -263.5t-203.5 -356.5zM1745 1726q-5 11 11 12q22 0 30 -12l94 -145q243 131 270 145q17 15 45 11q17 -3 7 -11 l-306 -217q-75 -10 -77 0z" />
<glyph unicode="&#x159;" horiz-adv-x="532" d="M-56 82q-5 12 3 24q115 151 198.5 358.5t116.5 393.5q10 55 48 62q37 7 62 -31q28 -42 15 -105q-14 -66 -113 -137q133 -7 283 8q17 -35 -43 -157q-3 -6 -16 -31t-25.5 -50t-30 -61t-31 -68t-26.5 -67.5t-19 -64t-7 -52t8.5 -37t29.5 -14.5q86 -2 254 342q13 25 26 19 q14 -7 -1 -39q-25 -52 -41.5 -84.5t-49.5 -88.5t-61.5 -91.5t-67.5 -67.5t-77 -41q-29 -7 -59 3.5t-54.5 40t-26 82.5t26.5 132q18 49 69.5 138.5t57.5 103.5q21 49 -22 71.5t-135 24.5l-25 -66q-49 -129 -115 -258.5t-133 -193.5q-13 -11 -19 2zM412 1288q-5 11 11 12 q22 1 30 -12l94 -145q243 131 270 145q18 16 45 11q16 -4 6 -11l-305 -217q-76 -10 -78 0z" />
<glyph unicode="&#x15a;" horiz-adv-x="1845" d="M-14 215q-5 97 40.5 211t129 212t180.5 144q31 13 46.5 8.5t-26.5 -38.5q-87 -68 -141 -154q-112 -174 -115 -383q-1 -93 31 -169.5t88 -129.5t132.5 -90.5t164 -55t183.5 -20.5t190.5 10t185 40t166.5 67q127 66 213.5 160t119 190.5t7 193t-112.5 167.5 q-64 52 -264 137.5t-268 130.5q-71 47 -108.5 104t-41 112.5t18.5 112t65.5 105t105 89t132.5 65.5q152 52 337 56.5t296 -46.5q69 -35 105.5 -94t26.5 -124.5t-69 -113.5q-51 -41 -131 -61q-34 -9 -39 7q-5 15 22 26q12 4 27 6q82 10 111 78q28 68 -16 141q-57 95 -195 121 q-166 33 -399 -50q-89 -32 -152 -86t-89 -118t6.5 -135t127.5 -130q54 -32 220.5 -107.5t244.5 -123.5q97 -60 149 -132.5t57.5 -145.5t-20 -148.5t-81.5 -146.5t-129.5 -134t-161.5 -116q-115 -68 -260 -108.5t-293.5 -50t-292 18t-256.5 87t-186.5 166t-81.5 245.5z M1499 1561q3 6 46.5 38t98.5 70.5t60 42.5q55 41 96 21q12 -6 17.5 -19.5t-0.5 -25.5q-9 -20 -156 -87t-158 -63q-15 12 -4 23z" />
<glyph unicode="&#x15b;" horiz-adv-x="524" d="M-10 218q21 56 61 62q3 1 6 1q109 206 176 354q32 69 76 119t94 57q45 6 76 -10q27 -13 24 -30q-3 -16 -27 -7q-2 1 -5 2q-38 15 -65 2q-44 -21 -59.5 -71t-9 -98.5t24.5 -90.5q5 -12 24.5 -55.5t27.5 -63.5t15.5 -55.5t6.5 -67.5q-3 -60 -44 -123.5t-101 -103.5l14 -2 q94 -13 184 94q44 54 154 268q5 9 14.5 10t15.5 -6t1 -16q-16 -35 -24.5 -54t-26.5 -56.5t-32 -59.5t-34.5 -55t-39.5 -53t-43.5 -44t-49.5 -35.5t-53.5 -21t-60.5 -8t-66 11.5q-48 -20 -84 -20q-127 0 -168 91q-29 66 -2 135zM67.5 117.5q-4.5 -38.5 17 -64.5t60.5 -26 q25 0 41 8q-77 48 -82 153q-32 -32 -36.5 -70.5zM92 276h5t10.5 -3.5t13.5 -9.5t10.5 -19.5t3.5 -32.5q-3 -55 22.5 -97t63.5 -61q82 64 90 213q3 61 -15.5 201t-10.5 188q-135 -273 -193 -379zM335 946.5q-2 8.5 3 14.5q3 7 58.5 47t118.5 84.5t75 54.5q66 50 119 24 q15 -7 20.5 -23.5t-2.5 -31.5q-11 -24 -190.5 -105.5t-192.5 -76.5q-7 4 -9 12.5z" />
<glyph unicode="&#x15c;" horiz-adv-x="1845" d="M96 252q-4 91 37 199.5t117 201t164 135.5q28 13 42 9t-24 -37q-82 -69 -127 -146q-101 -161 -104 -362q-1 -116 49.5 -205t134 -140t192 -76.5t222.5 -21t227 33.5t205 79q115 63 196 150.5t114.5 179t11.5 183.5t-103 161q-61 51 -249.5 135.5t-252.5 128.5 q-80 56 -115 124.5t-24.5 134.5t50 128.5t106 112.5t147.5 80q141 53 316.5 57.5t277.5 -47.5q65 -34 99.5 -92t26 -122.5t-64.5 -111.5q-52 -42 -125 -61q-32 -9 -36 7q-3 16 24 26q10 4 23 6q77 10 103 76q28 68 -15 142q-55 94 -187 120q-155 30 -372 -51 q-84 -32 -143.5 -85.5t-84 -116t6 -133t120.5 -128.5q51 -33 208.5 -107.5t230.5 -122.5q109 -70 155 -156t33.5 -169t-65.5 -168t-131.5 -157.5t-176.5 -133.5q-103 -65 -234.5 -103.5t-265.5 -47.5t-264 17.5t-232 82.5t-168.5 157.5t-74.5 233.5zM1417 1563l244 174 q61 8 61 0l60 -174q4 -8 -8 -10q-19 -2 -25 10l-76 116q-195 -106 -215 -116q-15 -13 -38 -8q-11 2 -3 8z" />
<glyph unicode="&#x15d;" horiz-adv-x="524" d="M-10 218q21 56 61 62q3 1 6 1q109 206 176 354q32 69 76 119t94 57q41 6 68 -6l-88 137q-243 -131 -270 -145q-17 -15 -45 -11q-17 3 -7 11l306 217q75 10 77 0l74 -217q3 -7 -3.5 -11t-16.5 -2q5 -8 3.5 -15t-9 -8.5t-21.5 5.5q-38 15 -65 2q-44 -21 -59.5 -71t-9 -98.5 t24.5 -90.5q5 -12 24.5 -55.5t27.5 -63.5t15.5 -55.5t6.5 -67.5q-3 -60 -44 -123.5t-101 -103.5l14 -2q94 -13 184 94q44 54 154 268q5 9 14.5 10t15.5 -6t1 -16q-16 -35 -24.5 -54t-26.5 -56.5t-32 -59.5t-34.5 -55t-39.5 -53t-43.5 -44t-49.5 -35.5t-53.5 -21t-60.5 -8 t-66 11.5q-48 -20 -84 -20q-127 0 -168 91q-29 66 -2 135zM67.5 117.5q-4.5 -38.5 17 -64.5t60.5 -26q25 0 41 8q-77 48 -82 153q-32 -32 -36.5 -70.5zM92 276h5t10.5 -3.5t13.5 -9.5t10.5 -19.5t3.5 -32.5q-3 -55 22.5 -97t63.5 -61q82 64 90 213q3 61 -15.5 201t-10.5 188 q-135 -273 -193 -379z" />
<glyph unicode="&#x15e;" horiz-adv-x="1845" d="M-4 332q-5 97 40.5 211t129 212t180.5 144q9 4 20 6.5t19.5 2.5t12 -3.5t-4 -13t-26.5 -23.5q-90 -71 -142 -153q-111 -172 -114 -383q-1 -105 40 -190t112.5 -138.5t165 -88.5t200.5 -44t216 0t214 38.5t192 74.5q127 67 217 162.5t127 196t12.5 201t-114.5 173.5 q-67 54 -275.5 142.5t-279.5 135.5q-88 59 -127 131.5t-28 142t54.5 136t117.5 119t163 84.5q158 55 351 59.5t307 -49.5q72 -36 110 -97t28 -129t-71 -118q-53 -43 -137 -66q-33 -9 -40 7q-7 14 19 26q14 6 31 8q84 10 114 79q31 70 -13 147q-56 96 -192 127 q-176 40 -429 -50q-74 -27 -132 -68t-91.5 -92.5t-38 -106.5t33 -113t117.5 -107q58 -35 231 -113.5t253 -128.5q121 -74 172 -167t37.5 -184t-72 -184t-146 -172t-194.5 -143q-138 -82 -317.5 -123.5t-360.5 -35.5l4 -7q-3 -2 -27.5 -19t-44 -32t-18.5 -20q40 6 80 6 q38 0 77.5 -8.5t78.5 -25.5t63.5 -49t24.5 -73q0 -82 -107 -155q-52 -35 -155 -35q-24 0 -62.5 5t-84.5 15t-78.5 29.5t-32.5 44.5q0 14 12 14q9 0 31 -22q25 -26 76.5 -38.5t99.5 -12.5q58 0 114.5 17t81.5 56q29 45 29 84q0 56 -47.5 86.5t-106.5 30.5q-34 0 -66 -12.5 t-53 -24.5t-28 -12q-14 0 -26.5 9t-12.5 22q0 10 8 18q17 21 141 111q-104 6 -197.5 28.5t-176.5 65t-145 101t-100 141t-44 180.5z" />
<glyph unicode="&#x15f;" horiz-adv-x="524" d="M-176 -326q0 15 12 15q4 0 9 -3t8 -5.5t8 -8t6 -6.5q25 -26 76.5 -38.5t99.5 -12.5q58 0 115 17.5t82 56.5q28 44 28 84q0 56 -47 86t-106 30q-34 0 -66.5 -12.5t-53.5 -24.5t-28 -12q-14 0 -26.5 9t-12.5 22q0 9 9 18q12 12 68 56t79 57q-45 15 -72 48.5t-31.5 71.5 t3 74t28 60t45.5 25q109 206 176 354q32 69 76 119t94 57q45 6 76 -10q27 -13 24 -30q-3 -16 -27 -7q-2 1 -5 2q-38 15 -65 2q-44 -21 -59.5 -71t-9 -98.5t24.5 -90.5q5 -12 24.5 -55.5t27.5 -63.5t15.5 -55.5t6.5 -67.5q-3 -60 -44 -123.5t-101 -103.5l14 -2q94 -13 184 94 q44 54 154 268q5 9 14.5 10t15.5 -6t1 -16q-16 -35 -24.5 -54t-26.5 -56.5t-32 -59.5t-34.5 -55t-39.5 -53t-43.5 -44t-49.5 -35.5t-53.5 -21t-60.5 -8t-66 11.5q-48 -20 -84 -20q-19 0 -51 4q2 0 2 -4q-3 -2 -28 -19t-44.5 -32.5t-18.5 -20.5q40 6 80 6q38 0 77.5 -8 t78.5 -25t63.5 -49t24.5 -73q0 -83 -106 -156q-52 -35 -156 -35q-24 0 -62.5 5t-84.5 15t-78.5 29.5t-32.5 44.5zM67.5 117.5q-4.5 -38.5 17 -64.5t60.5 -26q25 0 41 8q-77 48 -82 153q-32 -32 -36.5 -70.5zM92 276h5t10.5 -3.5t13.5 -9.5t10.5 -19.5t3.5 -32.5 q-3 -55 22.5 -97t63.5 -61q82 64 90 213q3 61 -15.5 201t-10.5 188q-135 -273 -193 -379z" />
<glyph unicode="&#x160;" horiz-adv-x="1845" d="M-10 291q-5 89 36.5 195t119 197t167.5 134q16 6 31 7.5t17.5 -6t-27.5 -30.5q-87 -70 -131 -143q-104 -157 -107 -354q-1 -114 50.5 -201t137.5 -137t197.5 -75t229 -20.5t233.5 32.5t211 77q117 62 200 151t117 182t11.5 186t-105.5 161q-62 51 -256 133t-258 125 q-82 54 -118.5 121.5t-26 132.5t51 126.5t108.5 111t151 78.5q147 51 325 55t285 -47q67 -33 102.5 -89.5t27 -119.5t-65.5 -109q-51 -41 -127 -61q-32 -9 -38 7q-4 14 21 24l25 6q80 10 107 76q28 68 -17 139q-57 93 -195 118q-158 28 -378 -51q-85 -31 -146.5 -83.5 t-86 -113.5t6.5 -129.5t123 -125.5q51 -31 212.5 -104.5t236.5 -121.5q94 -58 143.5 -128t52.5 -140.5t-23.5 -143t-82 -140t-125 -127.5t-151.5 -109q-106 -63 -241 -100.5t-273 -46.5t-271.5 17t-238.5 81.5t-173 154.5t-75 228zM1618 1729q-4 10 10 11q20 0 27 -11 l86 -132q219 120 244 132q16 14 41 9q15 -3 6 -9l-277 -197q-67 -8 -69 0z" />
<glyph unicode="&#x161;" horiz-adv-x="524" d="M-10 218q21 56 61 62q3 1 6 1q109 206 176 354q32 69 76 119t94 57q45 6 76 -10q27 -13 24 -30q-3 -16 -27 -7q-2 1 -5 2q-38 15 -65 2q-44 -21 -59.5 -71t-9 -98.5t24.5 -90.5q5 -12 24.5 -55.5t27.5 -63.5t15.5 -55.5t6.5 -67.5q-3 -60 -44 -123.5t-101 -103.5l14 -2 q94 -13 184 94q44 54 154 268q5 9 14.5 10t15.5 -6t1 -16q-16 -35 -24.5 -54t-26.5 -56.5t-32 -59.5t-34.5 -55t-39.5 -53t-43.5 -44t-49.5 -35.5t-53.5 -21t-60.5 -8t-66 11.5q-48 -20 -84 -20q-127 0 -168 91q-29 66 -2 135zM67.5 117.5q-4.5 -38.5 17 -64.5t60.5 -26 q25 0 41 8q-77 48 -82 153q-32 -32 -36.5 -70.5zM92 276h5t10.5 -3.5t13.5 -9.5t10.5 -19.5t3.5 -32.5q-3 -55 22.5 -97t63.5 -61q82 64 90 213q3 61 -15.5 201t-10.5 188q-135 -273 -193 -379zM338 1206q-5 11 11 12q22 1 30 -12l94 -145q243 131 270 145q17 15 45 11 q17 -3 7 -11l-306 -217q-75 -10 -77 0z" />
<glyph unicode="&#x162;" horiz-adv-x="2228" d="M65.5 320.5q-19.5 127.5 34.5 293.5q36 113 130 182q64 48 103 40q23 -6 19 -33q-8 -10 -41.5 -34t-64.5 -49.5t-62.5 -79t-42.5 -120.5q-21 -121 6 -227.5t89.5 -181t149.5 -128.5t183.5 -79t192.5 -23q424 11 696 307q85 92 186.5 270t175.5 340.5t144 311.5t96 184 q-313 99 -620 113q-263 13 -450 -130q-133 -102 -178 -241q-42 -131 16 -221q38 -59 112 -82q94 -27 168.5 -5.5t124.5 70t75.5 96t22.5 71.5v4q15 14 28 8.5t13 -25.5q-10 -80 -55 -144t-109 -98t-140 -44.5t-148 16.5q-141 49 -198 181q-57 133 -5 284q55 163 210 263 q200 128 498 101q110 -9 239.5 -43t266 -81t162.5 -54q27 34 73.5 78t76.5 47q36 11 52 -17q14 -23 -1 -38q-12 -11 -37 -4q-5 4 -14.5 0.5t-24 -16.5t-23.5 -20.5t-26.5 -26t-18.5 -19.5q84 -27 182.5 -52.5t217.5 -48t196.5 -13t77.5 58.5q0 30 23 30q9 0 14.5 -16 t5.5 -27q0 -58 -66.5 -88t-164.5 -18q-293 38 -516 131q-66 -106 -122.5 -238t-97 -251t-85.5 -239.5t-110 -240t-149 -215.5q-79 -90 -198.5 -155t-251 -94.5t-274.5 -32.5t-270 31t-237 95t-175 160t-84.5 226.5zM484 -625q-3 11 14 16q1 1 2 1q55 19 94 60t45 99 q-25 -18 -51 -18q-32 0 -50.5 22.5t-13.5 53.5q4 32 30.5 54t57.5 22q39 0 60.5 -25t21.5 -63q0 -82 -60 -141.5t-132 -84.5q-14 -6 -18 4z" />
<glyph unicode="&#x163;" horiz-adv-x="409" d="M17 -404q-3 11 14 16q1 1 2 1q55 19 94 60.5t45 99.5q-27 -19 -51 -19q-32 0 -50.5 22.5t-13.5 53.5q4 32 30.5 54t57.5 22q39 0 60.5 -25t21.5 -63q0 -82 -60 -141.5t-132 -84.5q-14 -6 -18 4zM70 211q13 98 58.5 243.5t100.5 278.5h-106q-11 0 -14.5 11.5t2 22.5 t16.5 11h123q76 165 149 291q29 51 64 89t66 54t60 19t46.5 -16t24 -51t-6 -87t-43.5 -123q-54 -113 -88 -176h99q9 0 12 -11t-2.5 -22.5t-14.5 -11.5h-118q-112 -190 -273 -338q-8 -24 -20 -76t-19 -93l-8 -40q-11 -51 -2 -81t30.5 -41.5t49 -7t53.5 23.5q63 47 113.5 124 t103.5 185q8 18 19 22.5t13.5 -5t-5.5 -29.5q-68 -141 -106 -202t-95 -118q-41 -39 -95 -51.5t-99.5 3.5t-72 69t-15.5 133zM244 461q113 116 207 272h-97q-7 -16 -110 -272zM375 778h102q59 106 103 209q31 68 33 129q1 40 -19 36q-23 -4 -74 -75q-14 -20 -27.5 -43.5 t-31.5 -61.5t-26 -55t-31.5 -72.5t-28.5 -66.5z" />
<glyph unicode="&#x164;" horiz-adv-x="2228" d="M53.5 208.5q-19.5 127.5 34.5 293.5q36 113 130 182q64 47 103 39q23 -6 19 -33q-8 -9 -31 -25.5t-48.5 -36t-52 -48t-48.5 -73t-31 -99.5q-21 -121 6 -227.5t89.5 -181t149.5 -128.5t183.5 -79t192.5 -23q424 11 696 307q85 92 186.5 270t175.5 340.5t144 311.5t96 184 q-309 98 -621 112q-262 13 -449 -129q-132 -101 -178 -239q-43 -131 15 -222q39 -59 113 -83q94 -27 168.5 -5.5t124.5 69.5t75.5 95.5t22.5 71.5v4q15 14 28 9t13 -25q-10 -80 -55 -144t-109 -98t-140.5 -45t-148.5 16q-142 49 -198 182t-5 284q56 164 212 264 q201 127 497 100q110 -9 239.5 -43t266 -81t162.5 -54q14 18 36.5 42.5t57 52.5t55.5 30q37 11 53 -18q13 -23 -2 -38q-11 -11 -36 -4q-5 4 -14.5 0.5t-24 -16.5t-23.5 -20.5t-26.5 -26t-18.5 -19.5q84 -27 182.5 -52.5t217.5 -48t196.5 -13t77.5 58.5q0 31 22 31 q9 0 15 -16t6 -27q0 -58 -67 -88.5t-165 -18.5q-293 38 -516 131q-66 -106 -122.5 -238t-97 -251t-85 -239.5t-109.5 -240t-149 -215.5q-79 -90 -198.5 -155t-251 -94.5t-274.5 -32t-270 31t-237 95t-175 160.5t-84.5 226.5zM2159 1726q-5 11 11 12q22 1 30 -12l94 -145 q243 131 270 145q18 16 45 11q16 -4 6 -11l-305 -217q-76 -10 -78 0z" />
<glyph unicode="&#x165;" horiz-adv-x="903" d="M70 211q13 98 58.5 243.5t100.5 278.5h-106q-11 0 -14.5 11.5t2 22.5t16.5 11h123q76 165 149 291q29 51 64 89t66 54t60 19t46.5 -16t24 -51t-6 -87t-43.5 -123q-54 -113 -88 -176h99q9 0 12 -11t-2.5 -22.5t-14.5 -11.5h-118q-112 -190 -273 -338q-8 -24 -20 -76 t-19 -93l-8 -40q-11 -51 -2 -81t30.5 -41.5t49 -7t53.5 23.5q63 47 113.5 124t103.5 185q8 18 19 22.5t13.5 -5t-5.5 -29.5q-68 -141 -106 -202t-95 -118q-41 -39 -95 -51.5t-99.5 3.5t-72 69t-15.5 133zM244 461q113 116 207 272h-97q-7 -16 -110 -272zM375 778h102 q59 106 103 209q31 68 33 129q1 40 -19 36q-23 -4 -74 -75q-14 -20 -27.5 -43.5t-31.5 -61.5t-26 -55t-31.5 -72.5t-28.5 -66.5zM705.5 895q-2.5 12 17.5 18q61 20 105 67t51 112q-28 -21 -58 -21q-35 0 -55 24.5t-14 59.5q4 35 33 59.5t65 24.5q41 0 62.5 -33t21.5 -78 q0 -48 -19.5 -89.5t-52 -69.5t-66 -47t-69.5 -31q-19 -8 -21.5 4z" />
<glyph unicode="&#x166;" horiz-adv-x="2228" d="M65.5 320.5q-19.5 127.5 34.5 293.5q36 113 130 182q64 48 103 40q23 -6 19 -33q-8 -10 -41.5 -34t-64.5 -49.5t-62.5 -79t-42.5 -120.5q-21 -121 6 -227.5t89.5 -181t149.5 -128.5t183.5 -79t192.5 -23q424 11 696 307q153 165 367 623h-256l33 41h243q21 46 54 118 t52.5 114t42 89.5t38.5 76.5t28 44q-313 99 -620 113q-263 13 -450 -130q-133 -102 -178 -241q-42 -131 16 -221q38 -59 112 -82q94 -27 168.5 -5.5t124.5 70t75.5 96t22.5 71.5v4q15 14 28 8.5t13 -25.5q-10 -80 -55 -144t-109 -98t-140 -44.5t-148 16.5q-141 49 -198 181 q-57 133 -5 284q55 163 210 263q200 128 498 101q110 -9 239.5 -43t266 -81t162.5 -54q27 35 75 80t77 45h-2q36 11 52 -17q14 -23 -1 -38q-12 -11 -37 -4q-5 4 -14.5 0.5t-24 -16.5t-23.5 -20.5t-26.5 -26t-18.5 -19.5q84 -27 182.5 -52.5t217.5 -48t196.5 -13t77.5 58.5 q0 30 23 30q9 0 14.5 -16t5.5 -27q0 -58 -66.5 -88t-164.5 -18q-293 38 -516 131q-103 -164 -195 -422h213l-31 -41h-198q-6 -17 -29 -83.5t-31 -88t-29.5 -80.5t-34 -85.5t-35 -77.5t-41 -83t-43.5 -74t-52.5 -78t-57.5 -71q-79 -90 -198.5 -155t-251 -94.5t-274.5 -32.5 t-270 31t-237 95t-175 160t-84.5 226.5z" />
<glyph unicode="&#x167;" horiz-adv-x="409" d="M8 479l25 27h112q44 131 84 227h-106q-11 0 -14.5 11.5t2 22.5t16.5 11h123q76 165 149 291q29 51 64 89t66 54t60 19t46.5 -16t24 -51t-6 -87t-43.5 -123q-54 -113 -88 -176h99q9 0 12 -11t-2.5 -22.5t-14.5 -11.5h-118q-74 -126 -164 -227h106l-24 -27h-107 q-37 -43 -84 -84q-8 -24 -20 -76t-19 -93l-8 -40q-11 -51 -2 -81t30.5 -41.5t49 -7t53.5 23.5q63 47 113.5 124t103.5 185q8 18 19 22.5t13.5 -5t-5.5 -29.5q-68 -141 -106 -202t-95 -118q-41 -39 -95 -51.5t-99.5 3.5t-72 69t-15.5 133q10 95 65 268h-127zM244 461l16 18 h-10zM262 506h23q91 104 166 227h-97q-53 -125 -92 -227zM375 778h102q59 106 103 209q31 68 33 129q1 40 -19 36q-23 -4 -74 -75q-14 -20 -27.5 -43.5t-31.5 -61.5t-26 -55t-31.5 -72.5t-28.5 -66.5z" />
<glyph unicode="&#x168;" horiz-adv-x="1929" d="M22 545q-66 190 6 414q91 281 370 501q104 82 229 150q178 98 352.5 123t314.5 -33q266 -114 174 -518q-20 -86 -69 -206.5t-100.5 -233t-100.5 -228.5t-76 -227t-18 -195q13 -116 91 -132q89 -18 217 102q75 70 149 178q82 119 212.5 378.5t131.5 260.5q31 55 61.5 81.5 t52.5 26.5q29 -14 37 -38.5t-4 -59.5t-27.5 -66.5t-40.5 -77.5t-38 -75q-78 -165 -123 -332q-23 -87 -36 -167.5t-14.5 -149.5t18 -109.5t60.5 -38.5q55 4 56 -16q0 -16 -26 -26q-21 -9 -44 -5q-55 10 -89.5 53.5t-47 100.5t-12 131.5t8 134t19.5 121.5q-66 -109 -125 -185 q-79 -102 -162.5 -169t-155.5 -90t-132.5 -13.5t-100.5 57.5t-53 125t12 189t74 233.5t101.5 238t103 238t70.5 199.5q26 104 33 190t-11 156t-65 98q-81 49 -199 51t-241 -36t-242 -107q-309 -181 -452 -448q-116 -218 -91 -425q21 -174 133 -266q127 -103 315 -51 q22 6 45 15q116 43 212 180q91 130 104 255q14 129 -71 166q-53 23 -140 3q-39 -9 -48.5 -6t-2 12t20.5 17.5t20 11.5q161 68 237 -16q63 -69 40 -208q-25 -154 -138 -288q-99 -117 -236 -175q-202 -86 -362 -1q-131 69 -187 227zM1610 1403q78 134 170 127q39 -2 108 -30.5 t101 -31.5q63 -5 96 60q2 8 26 3q9 -2 9 -5q-71 -144 -170 -137q-37 3 -105.5 33t-103.5 32q-31 3 -54 -12.5t-36 -42.5q-4 -10 -29 -4q-12 4 -12 8z" />
<glyph unicode="&#x169;" horiz-adv-x="731" d="M47.5 126.5q-0.5 16.5 1.5 31t6.5 31t9.5 29.5t13 29.5t14 28t15 29t14 27.5q-12 0 -19.5 7.5t0.5 25.5l37 71q59 113 115 226q21 43 80 43h125q-41 -30 -67 -62.5t-64 -110.5q-92 -186 -129 -264q-62 -134 -35 -194q19 -45 76 -15q37 19 79 68q53 61 117.5 171.5 t95.5 172.5t93 191q21 43 80 43h110q-45 -36 -70.5 -72.5t-70.5 -130.5q-124 -250 -137 -326q-12 -61 0.5 -91t37.5 -32q35 0 73.5 31t75.5 87t64.5 106.5t59.5 117.5q11 25 25.5 21.5t7.5 -28.5q-1 -5 -4 -11q-17 -35 -24 -50.5t-26 -52.5t-31 -57t-32.5 -53t-37 -52 t-39 -43t-43 -36.5t-45 -21.5t-48.5 -9q-73 0 -101.5 69t7.5 193q-62 -109 -135.5 -185.5t-141.5 -76.5q-42 0 -80 20t-49 72q-3 16 -3.5 32.5zM377 864q78 134 170 127q39 -2 108 -30t101 -31q63 -5 96 59q2 8 26 3q9 -2 9 -5q-71 -144 -170 -137q-37 3 -105.5 33 t-103.5 32q-31 3 -54 -12.5t-36 -42.5q-4 -10 -29 -4q-13 3 -12 8z" />
<glyph unicode="&#x16a;" horiz-adv-x="1929" d="M22 545q-66 190 6 414q91 281 370 501q104 82 229 150q178 98 352.5 123t314.5 -33q266 -114 174 -518q-20 -86 -69 -206.5t-100.5 -233t-100.5 -228.5t-76 -227t-18 -195q13 -116 91 -132q89 -18 217 102q75 70 149 178q82 119 212.5 378.5t131.5 260.5q31 55 61.5 81.5 t52.5 26.5q29 -14 37 -38.5t-4 -59.5t-27.5 -66.5t-40.5 -77.5t-38 -75q-78 -165 -123 -332q-23 -87 -36 -167.5t-14.5 -149.5t18 -109.5t60.5 -38.5q55 4 56 -16q0 -16 -26 -26q-21 -9 -44 -5q-55 10 -89.5 53.5t-47 100.5t-12 131.5t8 134t19.5 121.5q-66 -109 -125 -185 q-79 -102 -162.5 -169t-155.5 -90t-132.5 -13.5t-100.5 57.5t-53 125t12 189t74 233.5t101.5 238t103 238t70.5 199.5q26 104 33 190t-11 156t-65 98q-81 49 -199 51t-241 -36t-242 -107q-309 -181 -452 -448q-116 -218 -91 -425q21 -174 133 -266q127 -103 315 -51 q22 6 45 15q116 43 212 180q91 130 104 255q14 129 -71 166q-53 23 -140 3q-39 -9 -48.5 -6t-2 12t20.5 17.5t20 11.5q161 68 237 -16q63 -69 40 -208q-25 -154 -138 -288q-99 -117 -236 -175q-202 -86 -362 -1q-131 69 -187 227zM1616 1292l26 62h437l-25 -62h-438z" />
<glyph unicode="&#x16b;" horiz-adv-x="731" d="M47.5 126.5q-0.5 16.5 1.5 31t6.5 31t9.5 29.5t13 29.5t14 28t15 29t14 27.5q-12 0 -19.5 7.5t0.5 25.5l37 71q59 113 115 226q21 43 80 43h125q-41 -30 -67 -62.5t-64 -110.5q-92 -186 -129 -264q-62 -134 -35 -194q19 -45 76 -15q37 19 79 68q53 61 117.5 171.5 t95.5 172.5t93 191q21 43 80 43h110q-45 -36 -70.5 -72.5t-70.5 -130.5q-124 -250 -137 -326q-12 -61 0.5 -91t37.5 -32q35 0 73.5 31t75.5 87t64.5 106.5t59.5 117.5q11 25 25.5 21.5t7.5 -28.5q-1 -5 -4 -11q-17 -35 -24 -50.5t-26 -52.5t-31 -57t-32.5 -53t-37 -52 t-39 -43t-43 -36.5t-45 -21.5t-48.5 -9q-73 0 -101.5 69t7.5 193q-62 -109 -135.5 -185.5t-141.5 -76.5q-42 0 -80 20t-49 72q-3 16 -3.5 32.5zM397 842l27 61h436l-24 -61h-439z" />
<glyph unicode="&#x16c;" horiz-adv-x="1929" d="M22 545q-66 190 6 414q91 281 370 501q104 82 229 150q178 98 352.5 123t314.5 -33q266 -114 174 -518q-20 -86 -69 -206.5t-100.5 -233t-100.5 -228.5t-76 -227t-18 -195q13 -116 91 -132q89 -18 217 102q75 70 149 178q82 119 212.5 378.5t131.5 260.5q31 55 61.5 81.5 t52.5 26.5q29 -14 37 -38.5t-4 -59.5t-27.5 -66.5t-40.5 -77.5t-38 -75q-78 -165 -123 -332q-23 -87 -36 -167.5t-14.5 -149.5t18 -109.5t60.5 -38.5q55 4 56 -16q0 -16 -26 -26q-21 -9 -44 -5q-55 10 -89.5 53.5t-47 100.5t-12 131.5t8 134t19.5 121.5q-66 -109 -125 -185 q-79 -102 -162.5 -169t-155.5 -90t-132.5 -13.5t-100.5 57.5t-53 125t12 189t74 233.5t101.5 238t103 238t70.5 199.5q26 104 33 190t-11 156t-65 98q-81 49 -199 51t-241 -36t-242 -107q-309 -181 -452 -448q-116 -218 -91 -425q21 -174 133 -266q127 -103 315 -51 q22 6 45 15q116 43 212 180q91 130 104 255q14 129 -71 166q-53 23 -140 3q-39 -9 -48.5 -6t-2 12t20.5 17.5t20 11.5q161 68 237 -16q63 -69 40 -208q-25 -154 -138 -288q-99 -117 -236 -175q-202 -86 -362 -1q-131 69 -187 227zM1694 1571q-8 49 2 70.5t28 21.5 q8 0 14.5 -13t15.5 -33.5t22 -33.5q31 -30 62.5 -40.5t78.5 -10.5q42 0 72 7t53.5 24.5t36.5 32t37 44.5q16 20 36 14q11 -5 9 -16q-37 -82 -112 -129t-173 -47q-61 0 -117.5 28.5t-64.5 80.5z" />
<glyph unicode="&#x16d;" horiz-adv-x="731" d="M47.5 126.5q-0.5 16.5 1.5 31t6.5 31t9.5 29.5t13 29.5t14 28t15 29t14 27.5q-12 0 -19.5 7.5t0.5 25.5l37 71q59 113 115 226q21 43 80 43h125q-41 -30 -67 -62.5t-64 -110.5q-92 -186 -129 -264q-62 -134 -35 -194q19 -45 76 -15q37 19 79 68q53 61 117.5 171.5 t95.5 172.5t93 191q21 43 80 43h110q-45 -36 -70.5 -72.5t-70.5 -130.5q-124 -250 -137 -326q-12 -61 0.5 -91t37.5 -32q35 0 73.5 31t75.5 87t64.5 106.5t59.5 117.5q11 25 25.5 21.5t7.5 -28.5q-1 -5 -4 -11q-17 -35 -24 -50.5t-26 -52.5t-31 -57t-32.5 -53t-37 -52 t-39 -43t-43 -36.5t-45 -21.5t-48.5 -9q-73 0 -101.5 69t7.5 193q-62 -109 -135.5 -185.5t-141.5 -76.5q-42 0 -80 20t-49 72q-3 16 -3.5 32.5zM379 1010q-8 49 2.5 70.5t28.5 21.5q7 0 12.5 -8.5t9 -20t11.5 -26.5t18 -25q31 -30 62.5 -40.5t78.5 -10.5q42 0 72 7 t53.5 24.5t36.5 32t37 44.5q16 20 36 14q11 -5 9 -16q-37 -82 -112 -129t-173 -47q-61 0 -117.5 28.5t-64.5 80.5z" />
<glyph unicode="&#x16e;" horiz-adv-x="1929" d="M23 556q-66 187 7 409q92 279 374 498q102 80 225 147q178 98 352.5 123t314.5 -33q73 -31 118.5 -82.5t62 -118.5t14 -140.5t-22.5 -162.5q-20 -86 -69 -206.5t-100.5 -233t-100.5 -228.5t-76 -227t-18 -195q13 -116 91 -132q89 -18 217 102q75 70 149 178 q82 119 212.5 378.5t131.5 260.5q31 55 61.5 81.5t52.5 26.5q29 -14 37 -38.5t-4 -59.5t-27.5 -66.5t-40.5 -77.5t-38 -75q-78 -165 -123 -332q-23 -87 -36 -167.5t-14.5 -149.5t18 -109.5t60.5 -38.5q55 4 56 -16q0 -16 -26 -26q-21 -9 -44 -5q-55 10 -89.5 53.5t-47 100.5 t-12 131.5t8 134t19.5 121.5q-63 -104 -125 -184q-79 -102 -162.5 -169t-155.5 -90t-132.5 -13.5t-100.5 57t-53 124.5t12 189t74 233.5t101.5 238t103 238t70.5 199.5q88 353 -41 430q-81 49 -199 51t-241 -36t-242 -107q-310 -181 -453 -448q-116 -216 -91 -420 q21 -171 133 -260q128 -101 317 -47q21 6 42 14q116 43 212 180q91 130 104 255q14 129 -71 166q-53 23 -140 3q-39 -9 -48.5 -6t-2 12t20.5 17.5t20 11.5q161 68 237 -16q63 -69 40 -208q-25 -154 -138 -288q-99 -117 -236 -174q-203 -86 -363 -2q-130 68 -185 224z M1720 1614q4 45 49 78.5t101 36.5q56 1 92 -30.5t31 -76.5q-6 -46 -49.5 -80t-100.5 -35t-93 30.5t-30 76.5zM1792 1618q-2 -32 14.5 -54t42.5 -22q27 0 47 23.5t23 56.5q3 32 -14 54t-43 20q-27 -2 -47 -24t-23 -54z" />
<glyph unicode="&#x16f;" horiz-adv-x="731" d="M47.5 126.5q-0.5 16.5 1.5 31t6.5 31t9.5 29.5t13 29.5t14 28t15 29t14 27.5q-12 0 -19.5 7.5t0.5 25.5l37 71q59 113 115 226q21 43 80 43h125q-41 -30 -67 -62.5t-64 -110.5q-92 -186 -129 -264q-62 -134 -35 -194q19 -45 76 -15q37 19 79 68q53 61 117.5 171.5 t95.5 172.5t93 191q21 43 80 43h110q-45 -36 -70.5 -72.5t-70.5 -130.5q-124 -250 -137 -326q-12 -61 0.5 -91t37.5 -32q35 0 73.5 31t75.5 87t64.5 106.5t59.5 117.5q11 25 25.5 21.5t7.5 -28.5q-1 -5 -4 -11q-17 -35 -24 -50.5t-26 -52.5t-31 -57t-32.5 -53t-37 -52 t-39 -43t-43 -36.5t-45 -21.5t-48.5 -9q-73 0 -101.5 69t7.5 193q-62 -109 -135.5 -185.5t-141.5 -76.5q-42 0 -80 20t-49 72q-3 16 -3.5 32.5zM504 989q4 45 48.5 78.5t100.5 36.5q56 1 92 -30.5t31 -76.5q-6 -46 -49 -79.5t-100 -34.5t-93 30.5t-30 75.5zM575 993 q-1 -32 15.5 -53.5t42.5 -21.5q27 0 46.5 23t22.5 56q3 32 -14 54t-43 20q-27 -2 -47 -24t-23 -54z" />
<glyph unicode="&#x170;" horiz-adv-x="1929" d="M23 556q-66 187 7 409q92 279 374 498q102 80 225 147q178 98 352.5 123t314.5 -33q73 -31 118.5 -82.5t62 -118.5t14 -140.5t-22.5 -162.5q-20 -86 -69 -206.5t-100.5 -233t-100.5 -228.5t-76 -227t-18 -195q13 -116 91 -132q89 -18 217 102q75 70 149 178 q82 119 212.5 378.5t131.5 260.5q31 55 61.5 81.5t52.5 26.5q29 -14 37 -38.5t-4 -59.5t-27.5 -66.5t-40.5 -77.5t-38 -75q-78 -165 -123 -332q-23 -87 -36 -167.5t-14.5 -149.5t18 -109.5t60.5 -38.5q55 4 56 -16q0 -16 -26 -26q-21 -9 -44 -5q-55 10 -89.5 53.5t-47 100.5 t-12 131.5t8 134t19.5 121.5q-63 -104 -125 -184q-79 -102 -162.5 -169t-155.5 -90t-132.5 -13.5t-100.5 57t-53 124.5t12 189t74 233.5t101.5 238t103 238t70.5 199.5q88 353 -41 430q-81 49 -199 51t-241 -36t-242 -107q-310 -181 -453 -448q-116 -216 -91 -420 q21 -171 133 -260q128 -101 317 -47q21 6 42 14q116 43 212 180q91 130 104 255q14 129 -71 166q-53 23 -140 3q-39 -9 -48.5 -6t-2 12t20.5 17.5t20 11.5q161 68 237 -16q63 -69 40 -208q-25 -154 -138 -288q-99 -117 -236 -174q-203 -86 -363 -2q-130 68 -185 224z M1659 1423q-3 5 7 56t21.5 107.5t12.5 68.5q12 64 59 76q14 3 27.5 -3t19.5 -18q7 -18 -54.5 -155.5t-72.5 -143.5q-16 -3 -20 12zM1898 1423q-3 5 7 55.5t23 108t14 68.5q8 63 57 76q33 7 47 -21q7 -18 -54.5 -155.5t-72.5 -143.5q-17 -3 -21 12z" />
<glyph unicode="&#x171;" horiz-adv-x="731" d="M47.5 126.5q-0.5 16.5 1.5 31t6.5 31t9.5 29.5t13 29.5t14 28t15 29t14 27.5q-12 0 -19.5 7.5t0.5 25.5l37 71q59 113 115 226q21 43 80 43h125q-41 -30 -67 -62.5t-64 -110.5q-92 -186 -129 -264q-62 -134 -35 -194q19 -45 76 -15q37 19 79 68q53 61 117.5 171.5 t95.5 172.5t93 191q21 43 80 43h110q-45 -36 -70.5 -72.5t-70.5 -130.5q-124 -250 -137 -326q-12 -61 0.5 -91t37.5 -32q35 0 73.5 31t75.5 87t64.5 106.5t59.5 117.5q11 25 25.5 21.5t7.5 -28.5q-1 -5 -4 -11q-17 -35 -24 -50.5t-26 -52.5t-31 -57t-32.5 -53t-37 -52 t-39 -43t-43 -36.5t-45 -21.5t-48.5 -9q-73 0 -101.5 69t7.5 193q-62 -109 -135.5 -185.5t-141.5 -76.5q-42 0 -80 20t-49 72q-3 16 -3.5 32.5zM463 860q-3 5 7 56t21.5 107.5t12.5 68.5q12 63 59 75q33 7 47 -20q7 -18 -54.5 -155.5t-72.5 -143.5q-16 -3 -20 12zM702 860 q-3 5 7 55.5t22.5 108t13.5 68.5q8 62 58 75q34 7 47 -20q7 -18 -54.5 -155.5t-72.5 -143.5q-17 -3 -21 12z" />
<glyph unicode="&#x172;" horiz-adv-x="1929" d="M22 545q-66 190 6 414q91 281 370 501q104 82 229 150q178 98 352.5 123t314.5 -33q266 -114 174 -518q-20 -86 -69 -206.5t-100.5 -233t-100.5 -228.5t-76 -227t-18 -195q13 -116 91 -132q89 -18 217 102q75 70 149 178q82 119 212.5 378.5t131.5 260.5q31 55 61.5 81.5 t52.5 26.5q29 -14 37 -38.5t-4 -59.5t-27.5 -66.5t-40.5 -77.5t-38 -75q-78 -165 -123 -332q-23 -87 -36 -167.5t-14.5 -149.5t18 -109.5t60.5 -38.5q55 4 56 -16q0 -16 -26 -26q-21 -9 -44 -5q-55 10 -89.5 53.5t-47 100.5t-12 131.5t8 134t19.5 121.5q-66 -109 -125 -185 q-110 -140 -215 -205v-16q-89 -71 -164.5 -169.5t-78.5 -164.5q0 -67 59 -67q43 0 104 61q3 2 6.5 3t7.5 1t6 -3t1 -9q-7 -36 -65 -75.5t-130 -39.5q-40 0 -66.5 24t-25.5 68q1 68 77.5 165.5t168.5 170.5q-111 -40 -190.5 4.5t-98.5 161.5q-13 77 12 189t74 233.5 t101.5 238t103 238t70.5 199.5q26 104 33 190t-11 156t-65 98q-81 49 -199 51t-241 -36t-242 -107q-309 -181 -452 -448q-116 -218 -91 -425q21 -174 133 -266q127 -103 315 -51q22 6 45 15q116 43 212 180q91 130 104 255q14 129 -71 166q-53 23 -140 3q-39 -9 -48.5 -6 t-2 12t20.5 17.5t20 11.5q161 68 237 -16q63 -69 40 -208q-25 -154 -138 -288q-99 -117 -236 -175q-202 -86 -362 -1q-131 69 -187 227z" />
<glyph unicode="&#x173;" horiz-adv-x="731" d="M47.5 126.5q-0.5 16.5 1.5 31t6.5 31t9.5 29.5t13 29.5t14 28t15 29t14 27.5q-12 0 -19.5 7.5t0.5 25.5l37 71q59 113 115 226q21 43 80 43h125q-41 -30 -67 -62.5t-64 -110.5q-92 -186 -129 -264q-62 -134 -35 -194q19 -45 76 -15q37 19 79 68q53 61 117.5 171.5 t95.5 172.5t93 191q21 43 80 43h110q-45 -36 -70.5 -72.5t-70.5 -130.5q-124 -250 -137 -326q-12 -61 0.5 -91t37.5 -32q35 0 73.5 31t75.5 87t64.5 106.5t59.5 117.5q11 25 25.5 21.5t7.5 -28.5q-1 -5 -4 -11q-26 -56 -46.5 -95.5t-53 -94.5t-69 -96t-73.5 -64 q-87 -71 -159 -166t-75 -160q0 -68 60 -68q42 0 104 62q3 2 6.5 3t7.5 1t6 -3t1 -9q-7 -36 -65 -75.5t-130 -39.5q-40 0 -66.5 24t-25.5 68q1 68 79.5 167.5t170.5 170.5q-73 0 -100.5 69t8.5 193q-62 -109 -135.5 -185.5t-141.5 -76.5q-42 0 -80 20t-49 72q-3 16 -3.5 32.5 z" />
<glyph unicode="&#x174;" horiz-adv-x="2752" d="M-32 599.5q-9 74.5 7 166t58 186.5q53 123 143 235.5t196.5 197.5t228.5 148.5t240.5 94.5t232 29t202.5 -41q361 -159 59 -842q-94 -211 -180.5 -452t-114.5 -383q-14 -68 -3.5 -103.5t39.5 -35t71 23.5q70 41 150.5 133t157 209t144.5 230.5t139.5 233t116.5 181.5 q31 43 60.5 66.5t50 22.5t33 -17.5t11 -54.5t-18.5 -87q-18 -52 -68.5 -167t-88.5 -218.5t-48 -179.5q-30 -235 105 -269q112 -28 299 88q174 107 310 275q88 108 130 209q64 151 84.5 289.5t-1.5 241t-97 156.5t-193 38q-92 -25 -97 -2q-3 15 34 35q47 24 91 16 q135 12 239 -84.5t132.5 -276t-65.5 -431.5q-85 -215 -290 -388q-184 -155 -378 -204q-199 -51 -308 40q-83 70 -93 214q-8 132 41 293q-41 -67 -91.5 -141.5t-126.5 -171.5t-148.5 -172t-153 -128.5t-144.5 -56.5q-69 -3 -110 46.5t-33 166.5q8 121 73.5 312.5t192.5 494.5 q47 114 82 218.5t64 227.5t17.5 213t-67.5 125q-81 50 -188 53t-217.5 -34t-224.5 -107t-211 -160.5t-175.5 -201.5t-120.5 -223q-46 -124 -56.5 -229t10.5 -176t64 -121.5t102.5 -72.5t127 -21t135.5 26q119 44 211 181q87 129 95 255q8 128 -77 167q-48 23 -124 11 q-43 -7 -43 7q3 14 39 26q177 54 259 -34q68 -72 43 -207q-28 -151 -154 -283q-106 -111 -253 -173q-59 -25 -122.5 -29t-122.5 11t-112.5 49t-95.5 82t-69 113.5t-36 140zM1829 1397l305 217q76 10 78 0l74 -217q5 -11 -11 -12q-22 -1 -30 12l-95 145q-243 -131 -270 -145 q-18 -16 -45 -11q-16 4 -6 11z" />
<glyph unicode="&#x175;" horiz-adv-x="974" d="M47.5 126.5q-0.5 16.5 1.5 31t6.5 31t9.5 29.5t13 29.5t14 28t15 29t14 27.5q-12 0 -19.5 7.5t0.5 25.5l37 71q95 186 115 226q21 43 80 43h125q-41 -30 -67 -62.5t-64 -110.5q-92 -186 -129 -264q-59 -128 -35 -192q18 -45 67 -24q23 10 48 34q30 29 65.5 80t64.5 99 t66 119.5t55.5 109.5t48.5 102t31 66q18 43 78 43h125q-5 -5 -21.5 -16t-33 -26t-27.5 -34q-57 -95 -113 -215q-18 -36 -36.5 -82t-42.5 -119.5t-16.5 -123t52.5 -52.5q82 -6 159.5 93.5t142.5 262.5q-21 46 -25.5 105.5t8.5 99.5q30 104 96 139q43 23 65 2q17 -16 3 -49 q-4 -4 -4 -10q-2 -8 -8 -27q-13 -44 -21.5 -72.5t-29 -88.5t-37.5 -102t-45 -101.5t-54.5 -100.5t-62 -84t-71.5 -67t-80 -35.5t-89 -1.5q-39 9 -61.5 40.5t-26 74.5t1 83.5t15.5 77.5q-151 -276 -273 -276q-45 0 -81.5 25.5t-45.5 68.5q-3 16 -3.5 32.5zM438 797l305 217 q76 10 78 0l74 -217q5 -11 -11 -12q-22 -1 -30 12l-94 145q-244 -131 -271 -145q-18 -16 -45 -11q-16 4 -6 11z" />
<glyph unicode="&#x176;" horiz-adv-x="2060" d="M44.5 625q-14.5 80 4 181.5t70.5 207.5q59 121 154 233t206 198t237.5 150.5t247 97t235 31.5t202.5 -41q108 -49 157 -140.5t39.5 -205.5t-52 -233t-115.5 -242q-265 -451 -320 -700q-19 -88 1.5 -142.5t66 -67.5t106.5 3t121 59q89 63 179 185t157.5 258.5t115 254 t74.5 208.5q5 25 39 50q46 35 67 2q27 -43 -5 -184q-62 -271 -161 -568t-204 -482q31 2 93.5 3t107.5 3t106 8t105 19t86.5 34t69 56t34.5 82q-4 28 6 31q8 2 18 -31l1 -2q14 -46 -24 -109t-124 -100q-50 -20 -140.5 -30.5t-162 -13t-207.5 -3.5q-98 -148 -249 -260.5 t-318 -176.5q-234 -90 -426 -51q-135 27 -185 104q-51 80 18 167q62 77 208 137q190 78 403.5 104.5t481.5 26.5q199 491 280 792q-33 -71 -72 -141.5t-92 -150t-118.5 -149.5t-132.5 -116q-52 -35 -110 -55t-113 -24t-104 11.5t-83.5 48t-50.5 90t-6 132.5q32 228 299 662 q70 114 121.5 234t78 230t13.5 196t-70 122q-80 51 -189 55.5t-222.5 -31t-232.5 -104.5t-222 -158t-187 -198.5t-131 -220.5q-101 -255 -58.5 -404.5t163.5 -203t260 -3.5q121 43 225 185q97 133 116 260q19 130 -63 167q-44 19 -114 7q-45 -9 -43 4q2 12 30 22q4 1 9 2 q169 46 232 -47q53 -80 8 -221q-49 -154 -184 -281q-100 -94 -224 -145q-69 -28 -141.5 -30t-136.5 22.5t-119.5 69t-90.5 112.5t-49.5 148zM548 -665q10 -58 117 -81q132 -29 299 14q38 10 74 23q149 56 282 155.5t220 238.5q-246 0 -451 -35t-372 -131 q-182 -104 -169 -184zM1679 1372l306 217q75 10 77 0l74 -217q5 -11 -11 -12q-22 -1 -30 12l-94 146q-243 -132 -270 -146q-17 -15 -45 -11q-17 3 -7 11z" />
<glyph unicode="&#x177;" horiz-adv-x="817" d="M-353.5 -534.5q-6.5 32.5 1 67.5t26.5 70q53 103 193 168q61 30 142.5 54t194 51.5t161.5 41.5q13 22 25.5 47t25 54.5t22.5 53.5t22 59t19 54.5t19 56.5t16 49.5t15 48.5t12 38q-86 -151 -129 -210q-122 -167 -232 -167q-42 0 -80 20t-49 72q-3 16 -3.5 32.5t1.5 31 t6.5 31t9.5 29.5t13 29.5t14 28t15 29t14 27.5q-12 0 -19.5 7.5t0.5 25.5l37 71q59 113 115 226q21 43 80 43h125q-4 -3 -20.5 -15t-30.5 -26t-25 -33q-74 -126 -184 -363q-62 -134 -35 -194q19 -45 76 -15q37 19 79 68q145 168 322 535q21 43 80 43h110q-23 -16 -42 -37.5 t-32 -40.5t-30 -57t-26 -60.5t-29 -77.5q-26 -71 -81 -231t-83 -238q81 24 160.5 74.5t134.5 128.5q54 79 129 225q12 25 26 21q15 -3 7 -29l-4 -10q-40 -82 -64.5 -127.5t-58 -97t-63.5 -80.5t-75 -61.5t-98.5 -57t-128.5 -51.5q-46 -83 -87 -147t-104.5 -143t-126.5 -131 t-146.5 -88t-170.5 -36q-59 0 -101 15t-63 40t-27.5 57.5zM-300 -557q21 -48 91 -49q63 0 137.5 40t142.5 104.5t119 122.5t93 116l45 76q-20 -5 -81.5 -21t-95 -25t-84.5 -23.5t-91.5 -28.5t-73.5 -29q-113 -48 -173 -144q-52 -82 -29 -139zM322 797l305 217q76 10 78 0 l73 -217q5 -11 -11 -12q-22 -1 -30 12l-94 145q-243 -131 -270 -145q-18 -16 -45 -11q-16 4 -6 11z" />
<glyph unicode="&#x178;" horiz-adv-x="1964" d="M44.5 625q-14.5 80 4 181.5t70.5 207.5q59 121 154 233t206 198t237.5 150.5t247 97t235 31.5t202.5 -41q108 -49 157 -140.5t39.5 -205.5t-52 -233t-115.5 -242q-265 -451 -320 -700q-19 -88 1.5 -142.5t66 -67.5t106.5 3t121 59q89 63 179 185t157.5 258.5t115 254 t74.5 208.5q5 25 39 50q46 35 67 2q27 -43 -5 -184q-62 -271 -161 -568t-204 -482q31 2 93.5 3t107.5 3t106 8t105 19t86.5 34t69 56t34.5 82q-4 28 6 31q8 2 18 -31l1 -2q14 -46 -24 -109t-124 -100q-50 -20 -140.5 -30.5t-162 -13t-207.5 -3.5q-98 -148 -249 -260.5 t-318 -176.5q-234 -90 -426 -51q-135 27 -185 104q-51 80 18 167q62 77 208 137q190 78 403.5 104.5t481.5 26.5q199 491 280 792q-33 -71 -72 -141.5t-92 -150t-118.5 -149.5t-132.5 -116q-52 -35 -110 -55t-113 -24t-104 11.5t-83.5 48t-50.5 90t-6 132.5q32 228 299 662 q70 114 121.5 234t78 230t13.5 196t-70 122q-80 51 -189 55.5t-222.5 -31t-232.5 -104.5t-222 -158t-187 -198.5t-131 -220.5q-101 -255 -58.5 -404.5t163.5 -203t260 -3.5q121 43 225 185q97 133 116 260q19 130 -63 167q-44 19 -114 7q-45 -9 -43 4q2 12 30 22q4 1 9 2 q169 46 232 -47q53 -80 8 -221q-49 -154 -184 -281q-100 -94 -224 -145q-69 -28 -141.5 -30t-136.5 22.5t-119.5 69t-90.5 112.5t-49.5 148zM548 -665q10 -58 117 -81q132 -29 299 14q38 10 74 23q149 56 282 155.5t220 238.5q-246 0 -451 -35t-372 -131 q-182 -104 -169 -184zM1661 1235q0 30 18 49t47 19q30 0 50 -19t20 -49t-18 -49t-47 -19q-30 0 -50 19t-20 49zM1925 1235q0 29 18.5 48.5t47.5 19.5q30 0 49.5 -19t19.5 -49t-18 -49t-47 -19q-30 0 -50 19t-20 49z" />
<glyph unicode="&#x179;" horiz-adv-x="1386" d="M43 75q37 82 136 97q63 11 140 -10q104 -27 293 -148q533 622 693 817q213 250 436 431q-130 36 -275.5 59t-304 26.5t-276.5 -28.5q-53 -14 -104.5 -41.5t-89.5 -65.5t-54.5 -80t3.5 -89t81 -87q33 -22 30 -33t-24 -9t-31 4q-36 9 -82 61q-35 39 -49 94t2.5 117.5 t62.5 117.5t144 96t234 52q72 6 150 -1t170.5 -29.5t148.5 -38t165 -51t138 -44.5q131 103 227 138q66 24 112.5 12t71.5 -40t14 -73t-59 -86q-30 -25 -82.5 -31t-110 2.5t-138.5 28.5q-65 -60 -156.5 -173.5t-203 -261.5t-161.5 -210q-38 -47 -77 -92t-81.5 -89 t-76.5 -78.5t-80.5 -76.5t-72 -65.5t-73.5 -64t-64 -53.5t-63.5 -52t-52.5 -43q63 -27 162.5 -69t310.5 -120.5t308 -97.5q52 -10 116 -14t141 3.5t141.5 28t112 67t56.5 112.5q7 44 26 52q14 6 20 -19q5 -22 1 -64q-3 -29 -14 -60.5t-44.5 -75t-83 -76.5t-138 -58 t-201.5 -27q-84 -2 -214.5 37.5t-256.5 97t-240 115.5t-184 98l-70 41q-245 -175 -409 -141q-105 24 -147 110q-38 77 -3 151zM129 -45q28 -62 119 -78q29 -5 63 -4q68 3 142.5 33t119.5 69q-41 34 -61 48q-124 69 -209 79q-113 12 -162 -47q-37 -46 -12 -100zM1652 1505.5 q-2 8.5 3 14.5q3 7 58.5 47t118.5 84.5t75 54.5q66 50 118 25q15 -8 20.5 -24.5t-1.5 -31.5q-11 -24 -190.5 -105.5t-192.5 -76.5q-7 4 -9 12.5zM1845 1274q197 -56 264 -14q29 18 37.5 53.5t-8 64.5t-51.5 29q-86 0 -242 -133z" />
<glyph unicode="&#x17a;" horiz-adv-x="698" d="M-394 -452q6 49 38 98q23 34 59.5 65.5t87.5 59t98.5 49t117.5 45.5t116.5 39t124 38t114.5 35q15 46 24 90t13 95t-14.5 79t-60.5 21q-38 -20 -91 -39q-16 -6 -26 2t-8 20t18 17q138 42 229 180q45 68 12 125q-27 48 -85 49q-79 2 -143 -88l-17 -26q-55 -91 -109 -205 q-11 -25 -25 -21q-15 5 -1 38q1 2 2 5q109 213 121 234q65 119 175 155q90 30 153 -10q56 -35 53 -106t-55.5 -149t-145.5 -134q137 3 141 -133q0 -23 -7.5 -74t-14.5 -75q48 10 93.5 43.5t85.5 88t71 109t65 125.5q9 18 20 21.5t14 -7t-5 -30.5q-30 -61 -47.5 -94.5 t-47 -85t-54.5 -81t-58 -62.5t-70.5 -51.5t-79.5 -27.5q-80 -220 -236.5 -376.5t-373.5 -219.5q-62 -16 -114.5 -12t-89 31t-55 64t-12.5 86zM-314 -547q31 -59 128 -39q62 14 135.5 55t147.5 104t140.5 156t106.5 197q-43 -14 -135.5 -41t-145.5 -43.5t-119 -42.5t-108 -51 q-91 -53 -137 -150q-42 -89 -13 -145zM489 872q3 7 58.5 47.5t118.5 85t75 54.5q66 50 119 24q15 -8 20.5 -24t-1.5 -31q-11 -24 -190.5 -105.5t-192.5 -76.5q-18 11 -7 26z" />
<glyph unicode="&#x17b;" horiz-adv-x="1386" d="M43 75q37 82 136 97q63 11 140 -10q104 -27 293 -148q533 622 693 817q213 250 436 431q-130 36 -275.5 59t-304 26.5t-276.5 -28.5q-53 -14 -104.5 -41.5t-89.5 -65.5t-54.5 -80t3.5 -89t81 -87q33 -22 30 -33t-24 -9t-31 4q-36 9 -82 61q-35 39 -49 94t2.5 117.5 t62.5 117.5t144 96t234 52q72 6 150 -1t170.5 -29.5t148.5 -38t165 -51t138 -44.5q131 103 227 138q66 24 112.5 12t71.5 -40t14 -73t-59 -86q-30 -25 -82.5 -31t-110 2.5t-138.5 28.5q-65 -60 -156.5 -173.5t-203 -261.5t-161.5 -210q-38 -47 -77 -92t-81.5 -89 t-76.5 -78.5t-80.5 -76.5t-72 -65.5t-73.5 -64t-64 -53.5t-63.5 -52t-52.5 -43q63 -27 162.5 -69t310.5 -120.5t308 -97.5q52 -10 116 -14t141 3.5t141.5 28t112 67t56.5 112.5q7 44 26 52q14 6 20 -19q5 -22 1 -64q-3 -29 -14 -60.5t-44.5 -75t-83 -76.5t-138 -58 t-201.5 -27q-84 -2 -214.5 37.5t-256.5 97t-240 115.5t-184 98l-70 41q-245 -175 -409 -141q-105 24 -147 110q-38 77 -3 151zM129 -45q28 -62 119 -78q29 -5 63 -4q68 3 142.5 33t119.5 69q-41 34 -61 48q-124 69 -209 79q-113 12 -162 -47q-37 -46 -12 -100zM1530 1620 q0 34 32 74.5t64 40.5q22 0 35.5 -16t13.5 -38q0 -40 -31 -71t-69 -31q-20 0 -32.5 10.5t-12.5 30.5zM1845 1274q197 -56 264 -14q29 18 37.5 53.5t-8 64.5t-51.5 29q-86 0 -242 -133z" />
<glyph unicode="&#x17c;" horiz-adv-x="698" d="M-394 -452q6 49 38 98q23 34 59.5 65.5t87.5 59t98.5 49t117.5 45.5t116.5 39t124 38t114.5 35q15 46 24 90t13 95t-14.5 79t-60.5 21q-38 -20 -91 -39q-16 -6 -26 2t-8 20t18 17q138 42 229 180q45 68 12 125q-27 48 -85 49q-79 2 -143 -88l-17 -26q-55 -91 -109 -205 q-11 -25 -25 -21q-15 5 -1 38q1 2 2 5q109 213 121 234q65 119 175 155q90 30 153 -10q56 -35 53 -106t-55.5 -149t-145.5 -134q137 3 141 -133q0 -23 -7.5 -74t-14.5 -75q48 10 93.5 43.5t85.5 88t71 109t65 125.5q9 18 20 21.5t14 -7t-5 -30.5q-30 -61 -47.5 -94.5 t-47 -85t-54.5 -81t-58 -62.5t-70.5 -51.5t-79.5 -27.5q-80 -220 -236.5 -376.5t-373.5 -219.5q-62 -16 -114.5 -12t-89 31t-55 64t-12.5 86zM-314 -547q31 -59 128 -39q62 14 135.5 55t147.5 104t140.5 156t106.5 197q-43 -14 -135.5 -41t-145.5 -43.5t-119 -42.5t-108 -51 q-91 -53 -137 -150q-42 -89 -13 -145zM410 913q0 34 32 74.5t64 40.5q22 0 35.5 -16t13.5 -37q0 -40 -31 -71.5t-69 -31.5q-20 0 -32.5 10.5t-12.5 30.5z" />
<glyph unicode="&#x17d;" horiz-adv-x="1386" d="M38 186q38 81 139 97q62 9 138 -11q106 -28 293 -147q168 186 377 434q-34 -2 -118.5 -9t-125.5 -9q-22 -2 -41 22t-10.5 49t51.5 25q173 0 308 -2l168 201q92 108 209 224t227 206q-130 36 -275.5 59t-304 26.5t-276.5 -28.5q-53 -14 -104.5 -41t-89.5 -65.5t-54.5 -80 t3.5 -88.5t81 -87q33 -22 30 -33t-24 -9.5t-31 3.5q-36 9 -82 61q-35 39 -49 94t2.5 117.5t62.5 117.5t144 96t234 52q72 6 150 -1t170.5 -29.5t148.5 -38t165 -51t138 -44.5q131 103 227 138q66 24 112.5 12t71.5 -40t14 -73t-59 -86q-30 -25 -82.5 -31t-110.5 2.5 t-139 28.5q-49 -45 -124.5 -132t-122 -145t-149 -189.5t-118.5 -151.5q126 -4 215 -4q49 -1 64 -23q13 -18 -16 -27q-14 -4 -35 -4q-150 0 -279 -6q-79 -95 -158.5 -174t-125.5 -117.5t-122.5 -97t-105.5 -82.5q63 -27 162.5 -69t310.5 -120.5t308 -97.5q52 -10 116 -14 t141 3.5t141.5 28t112 67t56.5 112.5q7 44 26 52q14 6 20 -19q5 -22 1 -64q-3 -29 -14 -60.5t-44.5 -75t-83 -76.5t-138 -58t-201.5 -27q-84 -2 -214.5 37.5t-256.5 97.5t-240 115.5t-184 98.5l-70 41q-247 -176 -410 -142q-105 24 -147 110q-38 77 -3 152zM125 66 q28 -62 119 -78q29 -5 63 -4q68 3 142.5 33t119.5 69q-41 33 -61 47q-126 71 -209 80q-113 12 -162 -47q-37 -46 -12 -100zM1757 1278q197 -56 264 -14q29 18 37.5 53.5t-8 64.5t-51.5 29q-86 0 -242 -133zM1896 1726q-5 11 11 12q22 0 30 -12l95 -145q243 131 270 145 q18 16 45 11q16 -4 6 -11l-305 -217q-76 -10 -78 0z" />
<glyph unicode="&#x17e;" horiz-adv-x="698" d="M-394 -452q6 49 38 98q23 34 59.5 65.5t87.5 59t98.5 49t117.5 45.5t116.5 39t124 38t114.5 35q15 46 24 90t13 95t-14.5 79t-60.5 21q-38 -20 -91 -39q-16 -6 -26 2t-8 20t18 17q138 42 229 180q45 68 12 125q-27 48 -85 49q-79 2 -143 -88l-17 -26q-55 -91 -109 -205 q-11 -25 -25 -21q-15 5 -1 38q1 2 2 5q109 213 121 234q65 119 175 155q90 30 153 -10q56 -35 53 -106t-55.5 -149t-145.5 -134q137 3 141 -133q0 -23 -7.5 -74t-14.5 -75q48 10 93.5 43.5t85.5 88t71 109t65 125.5q9 18 20 21.5t14 -7t-5 -30.5q-30 -61 -47.5 -94.5 t-47 -85t-54.5 -81t-58 -62.5t-70.5 -51.5t-79.5 -27.5q-80 -220 -236.5 -376.5t-373.5 -219.5q-62 -16 -114.5 -12t-89 31t-55 64t-12.5 86zM-314 -547q31 -59 128 -39q62 14 135.5 55t147.5 104t140.5 156t106.5 197q-43 -14 -135.5 -41t-145.5 -43.5t-119 -42.5t-108 -51 q-91 -53 -137 -150q-42 -89 -13 -145zM412 1098q-5 11 11 12q22 1 30 -12l94 -146q243 132 270 146q18 16 45 11q16 -4 6 -11l-305 -217q-76 -10 -78 0z" />
<glyph unicode="&#x192;" horiz-adv-x="1024" d="M-573 -612q-3 48 10 77l35 3q-24 -95 10 -138q37 -43 80 -43q55 0 114 54.5t113 162.5q99 199 208 469t190.5 487.5t107.5 272.5h-160l25 45h153q61 148 72 172q78 177 139 271q117 182 289 182q89 0 133 -72q16 -29 19 -80q3 -46 -11 -77l-34 -3q24 94 -11 138 q-37 43 -80 43q-107 0 -227 -217q-43 -75 -170 -357h281l-25 -45h-274q-218 -551 -339 -846t-153 -364.5t-55 -104.5q-117 -182 -289 -182q-89 0 -133 72q-15 27 -18 80z" />
<glyph unicode="&#x218;" horiz-adv-x="1845" d="M-4 332q-5 97 40.5 211t129 212t180.5 144q9 4 20 6.5t19.5 2.5t12 -3.5t-4 -13t-26.5 -23.5q-90 -71 -142 -153q-111 -172 -114 -383q-1 -105 40 -190t112.5 -138.5t165 -88.5t200.5 -44t216 0t214 38.5t192 74.5q127 67 217 162.5t127 196t12.5 201t-114.5 173.5 q-67 54 -275.5 142.5t-279.5 135.5q-88 59 -127 131.5t-28 142t54.5 136t117.5 119t163 84.5q158 55 351 59.5t307 -49.5q72 -36 110 -97t28 -129t-71 -118q-53 -43 -137 -66q-33 -9 -40 7q-7 14 19 26q14 6 31 8q84 10 114 79q31 70 -13 147q-56 96 -192 127 q-176 40 -429 -50q-74 -27 -132 -68t-91.5 -92.5t-38 -106.5t33 -113t117.5 -107q58 -35 231 -113.5t253 -128.5q121 -74 172 -167t37.5 -184t-72 -184t-146 -172t-194.5 -143q-115 -68 -260 -108.5t-293.5 -50t-292 18.5t-256.5 87.5t-186.5 166t-81.5 245.5zM527 -621 q-3 11 14 16q1 1 2 1q55 19 94 60.5t45 99.5q-27 -19 -51 -19q-32 0 -50.5 22.5t-13.5 53.5q4 32 30.5 54t57.5 22q39 0 60.5 -25t21.5 -63q0 -82 -60 -141.5t-132 -84.5q-14 -6 -18 4z" />
<glyph unicode="&#x219;" horiz-adv-x="524" d="M-16 -404q-3 11 14 16q1 1 2 1q55 19 94 60.5t45 99.5q-27 -19 -51 -19q-32 0 -50 22.5t-13 53.5q4 32 30.5 54t57.5 22q39 0 60.5 -25t21.5 -63q0 -82 -60.5 -141.5t-132.5 -84.5q-14 -6 -18 4zM-10 218q21 56 61 62q3 1 6 1q109 206 176 354q32 69 76 119t94 57 q45 6 76 -10q27 -13 24 -30q-3 -16 -27 -7q-2 1 -5 2q-38 15 -65 2q-44 -21 -59.5 -71t-9 -98.5t24.5 -90.5q5 -12 24.5 -55.5t27.5 -63.5t15.5 -55.5t6.5 -67.5q-3 -60 -44 -123.5t-101 -103.5l14 -2q94 -13 184 94q44 54 154 268q5 9 14.5 10t15.5 -6t1 -16 q-16 -35 -24.5 -54t-26.5 -56.5t-32 -59.5t-34.5 -55t-39.5 -53t-43.5 -44t-49.5 -35.5t-53.5 -21t-60.5 -8t-66 11.5q-48 -20 -84 -20q-127 0 -168 91q-29 66 -2 135zM67.5 117.5q-4.5 -38.5 17 -64.5t60.5 -26q25 0 41 8q-77 48 -82 153q-32 -32 -36.5 -70.5zM92 276h5 t10.5 -3.5t13.5 -9.5t10.5 -19.5t3.5 -32.5q-3 -55 22.5 -97t63.5 -61q82 64 90 213q3 61 -15.5 201t-10.5 188q-135 -273 -193 -379z" />
<glyph unicode="&#x2c6;" horiz-adv-x="993" d="M332 797l305 217q76 10 78 0l73 -217q5 -11 -11 -12q-21 0 -29 12l-95 145q-243 -131 -270 -145q-18 -16 -45 -11q-16 4 -6 11z" />
<glyph unicode="&#x2da;" horiz-adv-x="638" d="M213 1071q4 45 48.5 78.5t100.5 36.5q56 1 92 -30.5t31 -76.5q-6 -46 -49 -79.5t-100 -34.5t-93 30.5t-30 75.5zM285 1075q-2 -32 14.5 -54t42.5 -22q27 0 47 23.5t23 56.5q3 32 -14.5 54t-43.5 20t-46 -24t-23 -54z" />
<glyph unicode="&#x2dc;" horiz-adv-x="993" d="M375 870q78 134 170 127q39 -2 108 -30t101 -31q63 -5 96 59q2 8 26 3q9 -2 9 -5q-71 -144 -170 -137q-37 3 -105.5 33.5t-103.5 32.5q-60 6 -90 -56q-4 -10 -29 -4q-13 3 -12 8z" />
<glyph unicode="&#x1e02;" horiz-adv-x="2189" d="M37 202q37 83 137 115q121 38 281 -18q42 -16 143 -71t154 -81q75 72 149 186t140.5 240.5t135 257t159 270.5t186.5 247l116 133q-375 64 -784 -23q-275 -59 -446 -225q-127 -124 -146 -256q-18 -123 69 -189q31 -23 72 -36q90 -26 161.5 -5.5t118.5 66.5t71 91.5 t20 70.5q0 8 15 12q24 -2 28 -29v-2q-11 -74 -55.5 -134.5t-105.5 -92.5t-133.5 -42.5t-139.5 15.5q-155 54 -201 181q-47 129 33 275q87 161 286 267q166 89 380 119q433 62 807 -18q56 50 112 69q52 21 54 5q2 -13 -33 -35q-20 -13 -38.5 -30.5t-21.5 -25.5 q181 -46 297 -119t155.5 -173t-30.5 -218q-41 -70 -124.5 -119.5t-167.5 -70t-169 -23.5q58 -18 112.5 -42.5t113.5 -60t102 -84t59 -103.5q28 -94 7 -175.5t-75.5 -148.5t-137.5 -117.5t-177.5 -82.5t-195.5 -43.5t-193 -0.5q-317 40 -544 142q-245 -181 -523 -144 q-161 20 -222 117q-48 76 -11 159zM144 123q8 -72 77 -111q43 -25 101 -28q208 -8 385 125q-21 10 -68 33.5t-75.5 37t-73.5 32.5t-87 34q-139 48 -214 -12q-53 -43 -45 -111zM838 106q232 -97 497 -122q236 -22 420 96q139 88 192 219q56 137 -13 249q-45 73 -140 118 q-65 32 -160.5 61t-153.5 49t-67 39q0 20 14.5 30t45 10.5t62.5 -2t83.5 -6t91.5 -3.5q62 1 130 30t124 75t91.5 106t41 119.5t-36 119t-131.5 101.5q-76 37 -192 63q-89 -122 -205 -316t-207.5 -355.5t-204 -334t-205.5 -272.5zM1989 1626q0 34 32 74.5t64 40.5 q22 0 35.5 -16t13.5 -37q0 -40 -31 -71.5t-69 -31.5q-20 0 -32.5 10.5t-12.5 30.5z" />
<glyph unicode="&#x1e03;" horiz-adv-x="641" d="M-52 82q-5 12 3 24q58 77 167 285t227.5 437t191.5 337q71 104 137 101h10q4 0 36.5 -6.5t49.5 -2.5q-67 -71 -212.5 -285t-238.5 -399q-41 -83 -71.5 -166t-46 -161.5t-0.5 -132.5t65 -64q66 -14 176 117q93 111 154 254q28 71 33 129t-22.5 94.5t-88.5 30.5 q-35 -3 -42 15q-7 16 18 24q21 7 53 2q72 -11 115.5 -56t51.5 -105t-3 -128q-30 -139 -121 -259.5t-213 -152.5q-117 -31 -185.5 -7.5t-92.5 80t-5 132.5q22 85 90 225q-167 -317 -217 -364q-13 -11 -19 2zM686 1409q0 34 32 74.5t64 40.5q22 0 35.5 -16t13.5 -38 q0 -40 -31 -71t-69 -31q-20 0 -32.5 10.5t-12.5 30.5z" />
<glyph unicode="&#x1e0a;" horiz-adv-x="2103" d="M22 200q36 82 136 115q121 40 282 -16q85 -32 312 -152q84 80 164.5 201t149 250.5t137 260.5t154 266t173.5 233q-153 92 -332.5 122.5t-372.5 -7.5q-273 -58 -440 -228q-125 -126 -142 -262q-15 -125 71 -193q32 -25 75 -38q91 -25 159.5 -7.5t115 63.5t70.5 91t26 76 q1 13 18 13q21 0 23 -21v-11q-11 -74 -54.5 -134.5t-104.5 -92.5t-133.5 -42.5t-139.5 15.5q-131 46 -190 162q-63 127 -9 269q64 168 270 280q174 94 426 131q187 27 373.5 -5t347.5 -118q78 93 152 144.5t116 42.5q12 -3 15 -9.5t-2.5 -12t-12.5 -5.5q-25 0 -66 -46.5 t-68 -88t-46 -76.5q218 -144 333 -371.5t87 -509.5q-11 -118 -58 -214t-118 -158.5t-162.5 -106t-193.5 -61t-210 -18t-212 17.5t-199.5 49.5t-173.5 75.5q-228 -184 -512 -148q-161 19 -222 116q-48 76 -12 158zM142 116q9 -71 75 -108q38 -22 90 -24q211 -9 391 122 q-24 12 -70.5 35t-76 37.5t-74.5 33.5t-88 34q-134 46 -206 -17q-50 -44 -41 -113zM817 111q98 -58 218.5 -90t242.5 -35.5t240 27t212.5 89t158 157.5t77.5 226q25 244 -67.5 455t-272.5 352q-60 -95 -228 -373t-285 -452t-218 -283q-29 -32 -78 -73zM1952 1626 q0 34 32 74.5t64 40.5q22 0 35.5 -16t13.5 -37q0 -40 -31 -71.5t-69 -31.5q-20 0 -32.5 10.5t-12.5 30.5z" />
<glyph unicode="&#x1e0b;" horiz-adv-x="751" d="M61.5 242q19.5 84 63 172t100.5 157q59 68 133 109t154 47t154 -37q139 263 237 486q29 67 58.5 89t80.5 17q3 0 36.5 -5t51.5 -3q-47 -44 -249.5 -419t-290.5 -583q-11 -26 -20 -55.5t-17 -70.5t4 -67t45 -26q23 0 48 15.5t50.5 47.5t45.5 59.5t45.5 74t36 66.5t29.5 59 q6 13 9 18q8 18 19.5 22.5t15 -5t-3.5 -29.5q-162 -381 -332 -381q-54 0 -92 55q-45 68 -18 181q-72 -118 -119 -165q-88 -87 -180 -63q-69 19 -91.5 84.5t-3 149.5zM159 113q12 -56 60 -50q69 9 156 132q108 150 274 462q-53 47 -134 4t-163 -135t-139 -196 q-72 -136 -54 -217zM1067 1417q0 34 32 74.5t64 40.5q22 0 35.5 -16t13.5 -37q0 -40 -31 -71.5t-69 -31.5q-20 0 -32.5 10.5t-12.5 30.5z" />
</font>
</defs>
</svg>
